<svg width="413" height="858" viewBox="0 0 413 858" fill="none" xmlns="http://www.w3.org/2000/svg">
<path d="M408.346 181.735C410.555 181.735 412.346 183.525 412.346 185.735L412.346 253.903C412.346 256.112 410.555 257.903 408.346 257.903L407.001 257.903L407.001 181.735L408.346 181.735Z" fill="url(#paint0_linear_202_783)"/>
<path d="M4 137.637C1.79086 137.637 7.8281e-08 139.428 1.74846e-07 141.637L2.45364e-06 193.77C2.5502e-06 195.979 1.79086 197.77 4 197.77L5.34513 197.77L5.34513 137.637L4 137.637Z" fill="url(#paint1_linear_202_783)"/>
<path d="M4 207.124C1.79086 207.124 7.8281e-08 208.915 1.74846e-07 211.124L2.45364e-06 263.257C2.5502e-06 265.466 1.79086 267.257 4 267.257L5.34513 267.257L5.34513 207.124L4 207.124Z" fill="url(#paint2_linear_202_783)"/>
<path d="M11 81.809C11 40.4931 38.6336 7.00002 72.7215 7.00002H339.279C373.366 7.00002 401 40.4932 401 81.8091V776.191C401 817.507 373.366 851 339.279 851H72.7215C38.6337 851 11 817.507 11 776.191V81.809Z" fill="#3E4651"/>
<path fill-rule="evenodd" clip-rule="evenodd" d="M343.379 7.60502H68.6206C36.9976 7.60502 11.3621 38.2488 11.3621 76.0499V781.95C11.3621 819.751 36.9976 850.395 68.6206 850.395H343.379C375.002 850.395 400.638 819.751 400.638 781.95V76.05C400.638 38.2489 375.002 7.60502 343.379 7.60502ZM68.6206 1.52588e-05C33.4839 1.52588e-05 5 34.0487 5 76.0499V781.95C5 823.951 33.4839 858 68.6206 858H343.379C378.516 858 407 823.951 407 781.95V76.05C407 34.0488 378.516 1.52588e-05 343.379 1.52588e-05H68.6206Z" fill="white"/>
<path d="M183 31.3982C183 29.1891 184.791 27.3982 187 27.3982H225.77C227.979 27.3982 229.77 29.1891 229.77 31.3982V32.7522C229.77 34.9613 227.979 36.7522 225.77 36.7522H187C184.791 36.7522 183 34.9613 183 32.7522V31.3982Z" fill="#3E4651"/>
<defs>
<linearGradient id="paint0_linear_202_783" x1="407" y1="214" x2="412" y2="214" gradientUnits="userSpaceOnUse">
<stop stop-color="#F2F2F2"/>
<stop offset="1" stop-color="#DDDDDD"/>
</linearGradient>
<linearGradient id="paint1_linear_202_783" x1="1.31424e-06" y1="167.704" x2="5.34513" y2="167.704" gradientUnits="userSpaceOnUse">
<stop stop-color="#F2F2F2"/>
<stop offset="1" stop-color="#DDDDDD"/>
</linearGradient>
<linearGradient id="paint2_linear_202_783" x1="1.31424e-06" y1="237.19" x2="5.34513" y2="237.19" gradientUnits="userSpaceOnUse">
<stop stop-color="#F2F2F2"/>
<stop offset="1" stop-color="#DDDDDD"/>
</linearGradient>
</defs>
</svg>
