<svg width="453" height="871" viewBox="0 0 453 871" fill="none" xmlns="http://www.w3.org/2000/svg">
<path d="M449 181.734C451.209 181.734 453 183.525 453 185.734L453 253.903C453 256.112 451.209 257.903 449 257.903L447.655 257.903L447.655 181.734L449 181.734Z" fill="url(#paint0_linear_114_1093)"/>
<path d="M4 137.637C1.79086 137.637 7.8281e-08 139.428 1.74846e-07 141.637L2.45364e-06 193.769C2.5502e-06 195.979 1.79086 197.769 4 197.769L5.34513 197.769L5.34513 137.637L4 137.637Z" fill="url(#paint1_linear_114_1093)"/>
<path d="M4 207.124C1.79086 207.124 7.8281e-08 208.915 1.74846e-07 211.124L2.45364e-06 263.257C2.5502e-06 265.466 1.79086 267.257 4 267.257L5.34513 267.257L5.34513 207.124L4 207.124Z" fill="url(#paint2_linear_114_1093)"/>
<rect x="5" width="443" height="871" rx="70" fill="#202730"/>
<rect x="8.5" y="3.5" width="436" height="864" rx="66.5" stroke="white" stroke-width="7"/>
<rect x="177.726" y="839.345" width="104.23" height="4" rx="2" fill="#3E4651"/>
<rect x="205.788" y="29.3984" width="46.7699" height="9.35398" rx="4" fill="#3E4651"/>
<path fill-rule="evenodd" clip-rule="evenodd" d="M202.547 58.954C202.178 59.1134 201.918 59.3602 201.727 59.7323C201.578 60.0222 201.572 60.3462 201.572 69.095C201.572 76.7475 201.591 78.2451 201.691 78.7215C202.235 81.2997 204.207 83.1293 206.858 83.5158C208.442 83.7467 209.245 83.3569 209.453 82.255C209.618 81.3846 209.074 80.5415 208.231 80.3613C208.002 80.3123 207.653 80.2722 207.456 80.2722C206.444 80.2722 205.382 79.4623 205.069 78.4519C204.903 77.9156 204.9 77.7854 204.9 69.1152C204.9 63.2291 204.871 60.2212 204.814 60.0166C204.563 59.1135 203.418 58.5771 202.547 58.954ZM234.844 64.9299C232.886 65.3395 231.178 66.7514 230.38 68.6197C229.895 69.7576 229.894 69.7658 229.918 76.4338L229.94 82.5098L230.14 82.8002C230.558 83.4078 231.318 83.6952 232.014 83.5082C232.475 83.3845 233.017 82.8558 233.135 82.4155C233.19 82.2072 233.229 80.0155 233.244 76.2255L233.268 70.3579L233.497 69.9128C233.81 69.3011 234.37 68.7557 234.964 68.4826C235.384 68.2892 235.565 68.2544 236.15 68.2541C236.726 68.2538 236.915 68.2888 237.296 68.4669C238.167 68.8744 238.778 69.6568 238.982 70.6249C239.042 70.9151 239.072 72.874 239.072 76.6826C239.072 82.9552 239.04 82.5953 239.639 83.1347C240.399 83.8193 241.604 83.616 242.136 82.7133L242.359 82.3359L242.399 76.3065L242.44 70.277L242.626 69.8997C242.924 69.2984 243.406 68.8138 243.995 68.5244C244.465 68.2941 244.606 68.2632 245.188 68.2645C246.12 68.2666 246.671 68.4922 247.317 69.1368C247.665 69.4841 247.869 69.7729 248.007 70.1151L248.203 70.6007L248.243 76.5493C248.289 83.1589 248.255 82.7772 248.837 83.2199C249.804 83.9552 251.246 83.4443 251.486 82.2818C251.554 81.9495 251.572 80.1984 251.55 75.9286C251.517 69.3457 251.547 69.7105 250.921 68.4092C250.127 66.7593 248.684 65.5539 246.888 65.0389C246.136 64.8233 244.519 64.784 243.779 64.9634C243.083 65.1323 241.765 65.8077 241.185 66.2928L240.661 66.7316L240.049 66.2457C239.395 65.7264 238.4 65.2061 237.684 65.0089C237.055 64.8357 235.501 64.7924 234.844 64.9299ZM188.28 65.5496C185.811 66.0666 183.574 67.6665 182.307 69.8221C181.01 72.0293 180.669 74.5314 181.326 77.0243C182.2 80.342 185.051 82.9882 188.444 83.6299C189.265 83.7852 191.057 83.7891 191.853 83.6372C193.119 83.3957 194.512 82.8005 195.487 82.0854L195.953 81.7434L196.007 82.2206C196.108 83.1102 196.739 83.6724 197.634 83.67C198.242 83.6683 198.664 83.4491 199.012 82.9555L199.259 82.6051V77.9383C199.259 72.6989 199.265 72.7618 198.643 71.1643C197.493 68.2103 194.859 66.0376 191.777 65.5016C190.799 65.3316 189.217 65.3533 188.28 65.5496ZM216.71 65.502C213.988 65.9995 211.488 67.8147 210.19 70.2365C209.012 72.436 208.789 75.1558 209.594 77.5204C210.037 78.8244 210.658 79.8473 211.613 80.8492C212.826 82.1205 214.332 83.0307 215.98 83.4869C216.757 83.7024 216.866 83.7116 218.577 83.7071C220.251 83.7027 220.413 83.6888 221.168 83.4857C222.479 83.1329 223.446 82.5839 223.748 82.0211C224.183 81.2113 223.814 80.1592 222.948 79.7366C222.378 79.4587 222.01 79.4984 221.163 79.9288C220.287 80.3739 219.775 80.5141 218.819 80.5703C216.718 80.694 214.77 79.7338 213.636 78.0157C213.264 77.4529 212.855 76.5175 212.855 76.2319V76.0637H219.676C226.209 76.0637 226.51 76.0572 226.798 75.9104C227.148 75.7326 227.308 75.566 227.507 75.1761C227.627 74.9391 227.642 74.7567 227.603 74.0026C227.385 69.8294 224.155 66.2314 219.966 65.4963C219.169 65.3565 217.49 65.3594 216.71 65.502ZM219.957 68.7364C222.076 69.3042 223.735 70.9997 224.174 73.0489L224.231 73.312H218.462C215.288 73.312 212.692 73.2975 212.692 73.28C212.692 73.2624 212.769 72.9984 212.863 72.6932C213.511 70.5842 215.124 69.0935 217.237 68.6518C217.897 68.514 219.288 68.5573 219.957 68.7364ZM191.589 68.9146C192.706 69.1897 193.584 69.716 194.449 70.6303C196.788 73.103 196.366 77.3713 193.587 79.3353C192.475 80.1212 191.502 80.434 190.168 80.434C188.545 80.434 187.243 79.8999 186.113 78.7704C184.945 77.6027 184.453 76.4953 184.388 74.8901C184.341 73.6991 184.476 72.9785 184.921 72.0575C186.146 69.5197 188.857 68.2419 191.589 68.9146ZM223.219 85.9088C223.188 85.9394 223.163 86.4619 223.163 87.0698C223.163 88.1207 223.172 88.184 223.351 88.3513C223.565 88.5525 223.974 88.5912 223.974 88.4103C223.974 88.346 223.874 88.2454 223.751 88.1869L223.528 88.0804L223.487 86.9952C223.45 85.9895 223.388 85.7398 223.219 85.9088ZM230.346 86.6017C230.034 86.7804 229.986 86.9293 229.983 87.7382C229.981 88.4692 229.993 88.5273 230.14 88.5273C230.285 88.5273 230.302 88.4607 230.323 87.7872C230.342 87.1868 230.373 87.0303 230.488 86.9581C230.591 86.8933 230.669 86.8932 230.772 86.9579C230.884 87.0282 230.923 87.1982 230.955 87.766C230.989 88.3674 231.019 88.4896 231.137 88.5121C231.263 88.5361 231.28 88.4641 231.28 87.8805C231.28 87.172 231.364 86.9086 231.591 86.9086C231.861 86.9086 231.929 87.0833 231.929 87.7771C231.929 88.3207 231.954 88.4611 232.059 88.5011C232.256 88.5766 232.332 88.3794 232.333 87.7907C232.336 86.7996 232.014 86.3991 231.371 86.5913C231.142 86.6599 231.016 86.6606 230.891 86.5941C230.68 86.4816 230.553 86.4834 230.346 86.6017ZM249.08 86.5859C248.765 86.7123 248.64 87.0846 248.666 87.8214C248.688 88.425 248.705 88.4868 248.852 88.4868C249 88.4868 249.017 88.4249 249.038 87.8029C249.063 87.0917 249.134 86.9086 249.387 86.9086C249.62 86.9086 249.704 87.1665 249.704 87.8805C249.704 88.4641 249.721 88.5361 249.846 88.5121C249.966 88.4893 249.992 88.377 250.012 87.802C250.037 87.0916 250.109 86.9086 250.361 86.9086C250.594 86.9086 250.678 87.1663 250.678 87.8745C250.678 88.4733 250.692 88.5273 250.841 88.5273C250.992 88.5273 251.003 88.4733 251.003 87.7693C251.003 87.136 250.977 86.9778 250.842 86.8072C250.636 86.5456 250.332 86.4704 250.049 86.6105C249.863 86.702 249.792 86.7025 249.623 86.6134C249.39 86.4904 249.325 86.4871 249.08 86.5859ZM203.006 86.6389C202.977 86.6685 202.952 87.0064 202.952 87.3897C202.952 87.8977 202.987 88.1368 203.082 88.2716C203.273 88.5439 203.557 88.6269 203.866 88.501C204.08 88.414 204.163 88.4147 204.345 88.5053C204.532 88.5982 204.608 88.5969 204.848 88.4969C205.236 88.3351 205.306 88.1616 205.306 87.3565C205.306 86.8041 205.28 86.6508 205.181 86.6128C204.981 86.5362 204.943 86.6372 204.9 87.372C204.869 87.9006 204.828 88.0855 204.724 88.15C204.457 88.3174 204.332 88.0812 204.331 87.4046C204.329 86.7365 204.259 86.5333 204.056 86.611C203.951 86.6512 203.926 86.7919 203.926 87.3413C203.926 88.0761 203.835 88.2627 203.524 88.1643C203.374 88.1169 203.358 88.0458 203.358 87.4454C203.358 86.737 203.222 86.4242 203.006 86.6389ZM207.553 86.6372C207.523 86.6678 207.498 87.0064 207.498 87.3897C207.498 87.8977 207.533 88.1368 207.628 88.2716C207.819 88.5439 208.102 88.6269 208.411 88.501C208.624 88.4145 208.708 88.4147 208.884 88.5019C209.174 88.6466 209.574 88.5038 209.732 88.1988C209.864 87.9442 209.896 86.8616 209.777 86.6742C209.738 86.6122 209.647 86.5837 209.576 86.611C209.471 86.6512 209.446 86.7919 209.446 87.3413C209.446 88.0761 209.354 88.2627 209.044 88.1643C208.894 88.1169 208.877 88.0459 208.877 87.4391C208.877 86.949 208.845 86.74 208.759 86.6687C208.545 86.4913 208.472 86.6627 208.472 87.3423C208.472 88.0274 208.403 88.2035 208.135 88.2035C207.918 88.2035 207.866 88.0572 207.822 87.3197C207.785 86.6982 207.703 86.4884 207.553 86.6372ZM212.099 86.6372C212.068 86.6678 212.043 87.0264 212.043 87.434C212.043 88.0995 212.062 88.1924 212.226 88.342C212.486 88.5794 212.7 88.6233 212.955 88.4913C213.146 88.392 213.208 88.3921 213.409 88.4923C213.686 88.6298 214.107 88.5224 214.236 88.2813C214.28 88.1999 214.316 87.7822 214.316 87.3531C214.316 86.6538 214.301 86.5758 214.174 86.6001C214.054 86.6228 214.028 86.7352 214.008 87.3101C213.983 88.0192 213.911 88.2035 213.661 88.2035C213.437 88.2035 213.386 88.0618 213.342 87.3133C213.31 86.7737 213.275 86.6254 213.179 86.6254C213.083 86.6254 213.049 86.7773 213.017 87.3453C212.985 87.914 212.946 88.084 212.834 88.1542C212.731 88.2188 212.653 88.2188 212.55 88.1542C212.438 88.0842 212.4 87.9142 212.368 87.3517C212.331 86.7005 212.25 86.4864 212.099 86.6372ZM219.551 86.6621C219.247 86.7873 219.006 87.1295 218.966 87.4904C218.887 88.2065 219.555 88.7315 220.243 88.495C220.421 88.4341 220.565 88.4165 220.565 88.4558C220.565 88.4951 220.639 88.5273 220.728 88.5273C220.876 88.5273 220.89 88.4733 220.89 87.9162C220.89 87.1912 220.766 86.9025 220.374 86.7172C220.072 86.5741 219.807 86.5564 219.551 86.6621ZM226.525 86.6633C226.432 86.7008 226.258 86.8469 226.139 86.9881C225.715 87.4906 225.961 88.2965 226.603 88.5074C227.008 88.6407 227.415 88.5427 227.45 88.3031C227.474 88.1398 227.45 88.1319 227.074 88.1763C226.735 88.2163 226.646 88.197 226.501 88.0518C226.406 87.9572 226.328 87.8434 226.328 87.7989C226.328 87.7506 226.639 87.7179 227.099 87.7179H227.871V87.5116C227.871 86.8702 227.145 86.413 226.525 86.6633ZM234.339 86.6936C234.316 86.7533 234.465 86.9736 234.669 87.1831L235.04 87.5638L234.652 87.9569C234.293 88.3204 234.228 88.5273 234.474 88.5273C234.529 88.5273 234.717 88.3816 234.891 88.2035C235.066 88.0255 235.24 87.8798 235.28 87.8798C235.319 87.8798 235.5 88.0255 235.682 88.2035C236.277 88.785 236.475 88.498 235.889 87.9031L235.548 87.5561L235.889 87.209C236.077 87.0182 236.231 86.82 236.231 86.7687C236.231 86.5327 236.021 86.5968 235.672 86.9399L235.291 87.3138L234.932 86.9494C234.561 86.5719 234.411 86.5074 234.339 86.6936ZM241.451 86.6991C241.135 86.8412 240.938 87.1975 240.938 87.6268C240.938 88.2594 241.596 88.71 242.216 88.5025C242.56 88.3876 242.727 88.1741 242.584 88.0319C242.511 87.9589 242.441 87.9679 242.285 88.0701C241.995 88.2594 241.694 88.2355 241.462 88.0048C241.219 87.7621 241.208 87.4857 241.431 87.2028C241.617 86.9675 241.924 86.9245 242.276 87.0845C242.586 87.2252 242.74 87.0508 242.51 86.8206C242.295 86.6071 241.785 86.5485 241.451 86.6991ZM245.196 86.6945C244.854 86.8488 244.672 87.1586 244.672 87.5875C244.672 88.5461 245.901 88.9177 246.442 88.1226C246.993 87.3127 246.098 86.2871 245.196 86.6945ZM227.215 87.027C227.447 87.1463 227.576 87.3372 227.486 87.4267C227.459 87.4534 227.188 87.4751 226.883 87.4751C226.259 87.4751 226.169 87.3692 226.542 87.0764C226.796 86.8774 226.909 86.8691 227.215 87.027ZM220.397 87.2028C220.62 87.4857 220.61 87.7621 220.366 88.0048C220.025 88.345 219.514 88.2401 219.36 87.7983C219.204 87.3525 219.457 86.9895 219.923 86.9895C220.157 86.9895 220.269 87.0397 220.397 87.2028ZM246.072 87.1312C246.431 87.532 246.152 88.2035 245.627 88.2035C245.328 88.2035 244.997 87.8781 244.997 87.5852C244.997 87.0889 245.75 86.771 246.072 87.1312ZM216.431 88.2386C216.312 88.3809 216.413 88.6224 216.578 88.5911C216.749 88.5588 216.796 88.2382 216.639 88.1782C216.573 88.1529 216.479 88.1801 216.431 88.2386ZM238.427 88.2005C238.272 88.296 238.359 88.5677 238.545 88.5677C238.648 88.5677 238.715 88.5052 238.731 88.3959C238.758 88.2086 238.59 88.1004 238.427 88.2005Z" fill="white"/>
<path fill-rule="evenodd" clip-rule="evenodd" d="M256.466 64.938C256.209 65.0656 255.79 65.4151 255.359 65.8614C254.767 66.4731 254.644 66.6486 254.528 67.0459C254.345 67.6749 254.462 68.2217 254.896 68.7593C255.067 68.9707 256.116 70.045 257.228 71.1468C259.138 73.0403 259.265 73.1498 259.55 73.1498C259.947 73.1498 260.175 72.9228 260.175 72.5273C260.175 72.2443 260.057 72.1105 257.943 69.9935C256.31 68.358 255.711 67.7082 255.711 67.5712C255.711 67.446 255.931 67.1591 256.374 66.7058C256.919 66.1494 257.082 66.0278 257.285 66.0278C257.501 66.0278 257.864 66.3587 260.171 68.6554L262.81 71.283L261.869 72.2367C260.878 73.24 260.717 73.5104 260.717 74.1615C260.717 74.8127 260.878 75.083 261.869 76.0869L262.811 77.0412L260.169 79.6681C257.959 81.8662 257.49 82.2952 257.3 82.2952C257.126 82.2952 256.921 82.1486 256.429 81.6716C255.756 81.018 255.637 80.8039 255.789 80.5198C255.84 80.4253 256.847 79.3835 258.028 78.2047C259.988 76.2478 260.175 76.0378 260.175 75.7882C260.175 75.3933 259.94 75.1408 259.573 75.1408C259.291 75.1408 259.153 75.262 257.041 77.3624C255.812 78.5843 254.741 79.7114 254.66 79.8672C254.445 80.2817 254.389 80.7535 254.501 81.2087C254.587 81.5574 254.711 81.7197 255.5 82.5068C256.316 83.3221 256.441 83.4157 256.829 83.5068C257.308 83.6193 257.711 83.57 258.142 83.3461C258.3 83.2638 259.617 82.0103 261.067 80.5607L263.705 77.9249L266.384 80.5878C267.857 82.0524 269.191 83.3164 269.347 83.3968C269.73 83.5939 270.505 83.5918 270.916 83.3927C271.087 83.3097 271.57 82.8999 271.99 82.482C272.653 81.8222 272.771 81.6627 272.885 81.2701C273.035 80.7568 272.996 80.3341 272.759 79.88C272.674 79.7172 271.379 78.3646 269.881 76.8743L267.157 74.1645L269.946 71.3709C272.42 68.8915 272.749 68.5322 272.866 68.1783C273.153 67.3178 272.974 66.8151 272.032 65.8377C271.024 64.7909 270.402 64.5496 269.502 64.8556C269.199 64.9584 268.707 65.4109 266.464 67.6477C264.992 69.1159 263.751 70.3172 263.706 70.3172C263.661 70.3172 262.419 69.1159 260.947 67.6477C258.705 65.4109 258.213 64.9584 257.91 64.8556C257.384 64.6768 256.941 64.7021 256.466 64.938ZM271.037 66.7058C271.485 67.164 271.701 67.4453 271.701 67.5734C271.701 67.7151 270.895 68.5678 268.516 70.9421L265.332 74.121L268.516 77.3C271.246 80.0253 271.701 80.5126 271.701 80.7142C271.701 80.9014 271.561 81.0892 271.015 81.6333C270.389 82.2577 270.308 82.3129 270.084 82.2682C269.897 82.2309 268.918 81.3015 265.989 78.3825C263.872 76.2724 262.098 74.4693 262.048 74.3756C261.998 74.2819 261.978 74.1197 262.005 74.0151C262.031 73.9099 263.801 72.0832 265.965 69.9264C269.416 66.488 269.908 66.0278 270.126 66.0278C270.329 66.0278 270.492 66.1487 271.037 66.7058Z" fill="white"/>
<defs>
<linearGradient id="paint0_linear_114_1093" x1="453" y1="219.818" x2="447.655" y2="219.818" gradientUnits="userSpaceOnUse">
<stop offset="0.286458" stop-color="white"/>
<stop offset="1" stop-color="#E9E9E9"/>
</linearGradient>
<linearGradient id="paint1_linear_114_1093" x1="1.31424e-06" y1="167.703" x2="5.34513" y2="167.703" gradientUnits="userSpaceOnUse">
<stop stop-color="white"/>
<stop offset="1" stop-color="#E9E9E9"/>
</linearGradient>
<linearGradient id="paint2_linear_114_1093" x1="1.31424e-06" y1="237.19" x2="5.34513" y2="237.19" gradientUnits="userSpaceOnUse">
<stop stop-color="white"/>
<stop offset="1" stop-color="#E9E9E9"/>
</linearGradient>
</defs>
</svg>
