<svg width="102" height="33" viewBox="0 0 102 33" fill="none" xmlns="http://www.w3.org/2000/svg">
<path fill-rule="evenodd" clip-rule="evenodd" d="M23.8918 0.135197C23.4829 0.311982 23.1947 0.585593 22.9825 0.998209C22.8171 1.31965 22.8112 1.67896 22.8112 11.3796C22.8112 19.8647 22.8317 21.5253 22.9431 22.0535C23.5462 24.9122 25.7326 26.9409 28.6724 27.3695C30.4285 27.6255 31.3181 27.1932 31.5493 25.9714C31.732 25.0063 31.1288 24.0715 30.1946 23.8717C29.9403 23.8173 29.5535 23.7728 29.335 23.7728C28.2127 23.7728 27.035 22.8748 26.6879 21.7545C26.5037 21.1599 26.5011 21.0155 26.5006 11.402C26.5003 4.87552 26.4689 1.54032 26.4057 1.31346C26.1268 0.312071 24.858 -0.282623 23.8918 0.135197ZM59.7028 6.76137C57.5315 7.21544 55.6377 8.78101 54.7535 10.8526C54.2151 12.1143 54.2145 12.1234 54.2412 19.5169L54.2655 26.2539L54.4868 26.5759C54.95 27.2497 55.7934 27.5683 56.5654 27.361C57.0765 27.2238 57.6774 26.6376 57.8074 26.1494C57.8689 25.9185 57.9119 23.4883 57.929 19.2859L57.9555 12.7799L58.2088 12.2864C58.5568 11.6081 59.1772 11.0034 59.8355 10.7006C60.3017 10.4861 60.5019 10.4475 61.1504 10.4472C61.7895 10.4468 61.9986 10.4857 62.4212 10.6832C63.3876 11.135 64.0654 12.0025 64.2905 13.076C64.358 13.3978 64.3903 15.5698 64.3903 19.7928C64.3903 26.7478 64.3552 26.3488 65.0191 26.9468C65.8619 27.706 67.1985 27.4805 67.7886 26.4796L68.0353 26.0612L68.0803 19.3757L68.1253 12.6902L68.332 12.2718C68.6614 11.6051 69.1962 11.0678 69.85 10.7469C70.3701 10.4916 70.5273 10.4573 71.1727 10.4588C72.2059 10.4611 72.8161 10.7112 73.5331 11.426C73.9192 11.811 74.145 12.1312 74.298 12.5107L74.5151 13.0491L74.5601 19.6449C74.6102 26.9737 74.5725 26.5504 75.2179 27.0413C76.2901 27.8566 77.8898 27.2901 78.1551 26.0011C78.2309 25.6327 78.2507 23.6911 78.2266 18.9567C78.1896 11.6576 78.2234 12.0621 77.5289 10.6192C76.6482 8.78972 75.049 7.45325 73.0571 6.88216C72.2232 6.64309 70.4305 6.59957 69.6102 6.79843C68.838 6.98571 67.3768 7.73458 66.7341 8.27256L66.1528 8.75903L65.4741 8.22024C64.7488 7.64448 63.6457 7.06756 62.8521 6.84895C62.1547 6.65691 60.4314 6.6089 59.7028 6.76137ZM8.07246 7.4484C5.3349 8.02165 2.855 9.79568 1.45012 12.1858C0.0115941 14.6332 -0.366578 17.4075 0.361597 20.1716C1.3307 23.8503 4.49242 26.7844 8.25398 27.4959C9.16468 27.6681 11.1514 27.6724 12.0339 27.5041C13.4375 27.2363 14.9831 26.5763 16.0633 25.7834L16.5799 25.4042L16.6399 25.9333C16.7519 26.9197 17.452 27.5431 18.4448 27.5404C19.118 27.5385 19.5868 27.2954 19.9725 26.7481L20.2462 26.3596V21.1851C20.2462 15.3756 20.2525 15.4453 19.5632 13.6741C18.2883 10.3986 15.3673 7.98952 11.9499 7.39528C10.8657 7.20674 9.11176 7.23079 8.07246 7.4484ZM39.5958 7.39564C36.5773 7.94735 33.806 9.95999 32.3669 12.6453C31.06 15.0841 30.8129 18.0998 31.7052 20.7217C32.1972 22.1676 32.8855 23.3018 33.9448 24.4127C35.2892 25.8223 36.9596 26.8315 38.7859 27.3374C39.6482 27.5763 39.7686 27.5865 41.6658 27.5815C43.5216 27.5767 43.7017 27.5612 44.5386 27.336C45.9922 26.9448 47.0645 26.3361 47.3995 25.7121C47.8814 24.8142 47.4728 23.6477 46.5122 23.179C45.8806 22.8709 45.4723 22.9149 44.5329 23.3922C43.5614 23.8856 42.9937 24.0411 41.9342 24.1034C39.6045 24.2406 37.4445 23.1759 36.187 21.2709C35.7751 20.6468 35.3209 19.6097 35.3209 19.293V19.1065H42.8844C50.1286 19.1065 50.4619 19.0993 50.7817 18.9365C51.169 18.7394 51.3473 18.5547 51.5671 18.1223C51.7008 17.8595 51.7174 17.6573 51.6738 16.8211C51.4322 12.1939 47.8504 8.20445 43.2058 7.38936C42.3225 7.23438 40.4603 7.23761 39.5958 7.39564ZM43.1958 10.982C45.546 11.6115 47.3846 13.4915 47.8723 15.7637L47.935 16.0554H41.5379C38.0196 16.0554 35.1409 16.0394 35.1409 16.0199C35.1409 16.0004 35.226 15.7077 35.3299 15.3693C36.0483 13.0308 37.8375 11.3779 40.1806 10.8882C40.9118 10.7353 42.454 10.7833 43.1958 10.982ZM11.7414 11.1795C12.9806 11.4846 13.9533 12.0681 14.9124 13.0819C17.5063 15.8237 17.0379 20.5564 13.957 22.734C12.7241 23.6055 11.6448 23.9523 10.1664 23.9523C8.36594 23.9523 6.92219 23.36 5.6696 22.1077C4.37461 20.8129 3.82896 19.585 3.7575 17.8053C3.70449 16.4846 3.85461 15.6856 4.34762 14.6644C5.70596 11.8505 8.71199 10.4337 11.7414 11.1795ZM46.8126 30.0227C46.7785 30.0567 46.7507 30.636 46.7507 31.3101C46.7507 32.4754 46.761 32.5455 46.959 32.731C47.1972 32.9541 47.6507 32.997 47.6507 32.7965C47.6507 32.7251 47.5393 32.6136 47.4032 32.5487L47.1557 32.4306L47.1107 31.2274C47.069 30.1123 47.0004 29.8354 46.8126 30.0227ZM54.7155 30.7911C54.369 30.9892 54.3163 31.1543 54.3134 32.0512C54.3107 32.8617 54.3236 32.9261 54.4871 32.9261C54.6479 32.9261 54.6661 32.8523 54.6896 32.1056C54.7107 31.4398 54.7452 31.2663 54.873 31.1862C54.9875 31.1144 55.0735 31.1143 55.188 31.186C55.3124 31.2639 55.355 31.4524 55.3905 32.082C55.4281 32.7489 55.4613 32.8843 55.593 32.9093C55.7326 32.9359 55.7505 32.856 55.7505 32.2089C55.7505 31.4234 55.844 31.1314 56.0957 31.1314C56.3952 31.1314 56.4705 31.325 56.4705 32.0943C56.4705 32.6971 56.4984 32.8527 56.6146 32.8971C56.8331 32.9808 56.9176 32.7622 56.9191 32.1094C56.9217 31.0105 56.5654 30.5665 55.8522 30.7795C55.5975 30.8556 55.4579 30.8564 55.3197 30.7826C55.086 30.6579 54.9449 30.6599 54.7155 30.7911ZM75.4873 30.7735C75.1383 30.9137 75.0001 31.3265 75.029 32.1434C75.0527 32.8128 75.0719 32.8813 75.2351 32.8813C75.3988 32.8813 75.4175 32.8126 75.4416 32.123C75.469 31.3343 75.5481 31.1314 75.8279 31.1314C76.0866 31.1314 76.1801 31.4174 76.1801 32.2089C76.1801 32.8561 76.198 32.9359 76.3376 32.9093C76.4702 32.884 76.4992 32.7595 76.5215 32.122C76.549 31.3343 76.6282 31.1314 76.9079 31.1314C77.1661 31.1314 77.2601 31.4171 77.2601 32.2023C77.2601 32.8663 77.2749 32.9261 77.4401 32.9261C77.6073 32.9261 77.6201 32.8663 77.6201 32.0857C77.6201 31.3834 77.5907 31.2081 77.4415 31.0189C77.2127 30.7289 76.8761 30.6454 76.5618 30.8008C76.3564 30.9023 76.2774 30.9028 76.0901 30.804C75.8317 30.6677 75.7598 30.664 75.4873 30.7735ZM24.4012 30.8323C24.3682 30.8651 24.3412 31.2398 24.3412 31.6648C24.3412 32.2281 24.3802 32.4931 24.4852 32.6426C24.6974 32.9446 25.0115 33.0366 25.3544 32.897C25.5917 32.8005 25.6834 32.8013 25.8853 32.9017C26.0924 33.0047 26.1768 33.0034 26.443 32.8925C26.8738 32.713 26.9511 32.5207 26.9511 31.628C26.9511 31.0154 26.9225 30.8455 26.8122 30.8034C26.5902 30.7184 26.5488 30.8304 26.5011 31.6451C26.4668 32.2313 26.4205 32.4363 26.3062 32.5079C26.0095 32.6934 25.8712 32.4316 25.8698 31.6813C25.8682 30.9405 25.7903 30.7152 25.5652 30.8014C25.4489 30.8459 25.4211 31.002 25.4211 31.6111C25.4211 32.4258 25.3201 32.6328 24.9755 32.5237C24.8093 32.4711 24.7911 32.3923 24.7911 31.7266C24.7911 30.9411 24.6399 30.5942 24.4012 30.8323ZM29.443 30.8304C29.4089 30.8643 29.3811 31.2398 29.3811 31.6648C29.3811 32.2281 29.4201 32.4931 29.5251 32.6426C29.7373 32.9446 30.0514 33.0366 30.3943 32.897C30.6301 32.8011 30.7232 32.8013 30.9178 32.898C31.2401 33.0584 31.6833 32.9001 31.8587 32.5619C32.0051 32.2797 32.0406 31.0792 31.9087 30.8715C31.865 30.8027 31.7643 30.7711 31.6851 30.8014C31.5688 30.8459 31.541 31.002 31.541 31.6111C31.541 32.4258 31.4399 32.6328 31.0953 32.5237C30.929 32.4711 30.911 32.3924 30.911 31.7196C30.911 31.1761 30.8755 30.9444 30.78 30.8654C30.5422 30.6687 30.461 30.8587 30.461 31.6123C30.461 32.3719 30.3848 32.5672 30.0883 32.5672C29.8472 32.5672 29.7897 32.4049 29.741 31.5871C29.7 30.898 29.6084 30.6654 29.443 30.8304ZM34.4829 30.8304C34.4488 30.8643 34.4209 31.2619 34.4209 31.7139C34.4209 32.4518 34.4416 32.5548 34.6234 32.7207C34.9119 32.9839 35.1493 33.0326 35.4319 32.8862C35.6446 32.7762 35.7129 32.7763 35.9361 32.8874C36.2427 33.0398 36.7092 32.9207 36.8528 32.6534C36.9012 32.5631 36.9409 32.1 36.9409 31.6242C36.9409 30.8489 36.9246 30.7624 36.7834 30.7893C36.6508 30.8145 36.6218 30.9391 36.5994 31.5766C36.572 32.3627 36.4927 32.5672 36.2152 32.5672C35.9663 32.5672 35.9099 32.41 35.8609 31.5801C35.8256 30.9818 35.7868 30.8173 35.6809 30.8173C35.5745 30.8173 35.5364 30.9857 35.5009 31.6156C35.4654 32.2461 35.4228 32.4346 35.2984 32.5125C35.184 32.5841 35.0979 32.5841 34.9834 32.5125C34.8593 32.4348 34.8164 32.2464 34.7809 31.6227C34.7399 30.9006 34.6505 30.6632 34.4829 30.8304ZM42.7458 30.858C42.4093 30.9968 42.1414 31.3763 42.0974 31.7764C42.0101 32.5705 42.7501 33.1526 43.5136 32.8903C43.71 32.8228 43.8708 32.8033 43.8708 32.8469C43.8708 32.8905 43.9518 32.9261 44.0508 32.9261C44.2148 32.9261 44.2307 32.8663 44.2307 32.2486C44.2307 31.4447 44.093 31.1246 43.6586 30.9191C43.3234 30.7605 43.0299 30.7408 42.7458 30.858ZM50.4782 30.8594C50.3753 30.9009 50.1829 31.063 50.0508 31.2195C49.5806 31.7767 49.8532 32.6703 50.5647 32.9041C51.0145 33.0519 51.465 32.9433 51.5039 32.6776C51.5304 32.4965 51.5047 32.4878 51.0876 32.537C50.7121 32.5814 50.6133 32.5599 50.4519 32.3989C50.3467 32.294 50.2606 32.1678 50.2606 32.1185C50.2606 32.065 50.6056 32.0287 51.1156 32.0287H51.9706V31.7999C51.9706 31.0887 51.1664 30.5818 50.4782 30.8594ZM59.1433 30.8929C59.1178 30.9592 59.2822 31.2034 59.5086 31.4357L59.9201 31.8579L59.4897 32.2937C59.0915 32.6968 59.02 32.9261 59.2925 32.9261C59.3538 32.9261 59.5621 32.7646 59.7554 32.5672C59.9487 32.3698 60.1424 32.2082 60.1857 32.2082C60.2291 32.2082 60.4298 32.3698 60.6318 32.5672C61.2914 33.2119 61.5109 32.8937 60.8617 32.2341L60.483 31.8493L60.8617 31.4645C61.0699 31.2529 61.2404 31.0331 61.2404 30.9762C61.2404 30.7145 61.0081 30.7856 60.6209 31.166L60.1986 31.5807L59.8008 31.1766C59.3888 30.7581 59.2228 30.6864 59.1433 30.8929ZM67.0286 30.899C66.6785 31.0566 66.4603 31.4516 66.4603 31.9277C66.4603 32.6291 67.1893 33.1288 67.8771 32.8987C68.2583 32.7712 68.4435 32.5345 68.2854 32.3768C68.2042 32.2959 68.1266 32.3059 67.9531 32.4192C67.6318 32.6291 67.2976 32.6026 67.0412 32.3469C66.7712 32.0777 66.7594 31.7712 67.0069 31.4576C67.2127 31.1966 67.5529 31.149 67.9435 31.3264C68.2871 31.4824 68.4583 31.289 68.2025 31.0338C67.965 30.7971 67.3995 30.7321 67.0286 30.899ZM71.1809 30.8939C70.8016 31.065 70.6002 31.4086 70.6002 31.8841C70.6002 32.947 71.9624 33.359 72.5623 32.4774C73.1734 31.5794 72.1814 30.4423 71.1809 30.8939ZM51.2441 31.2627C51.5006 31.3949 51.644 31.6065 51.5444 31.7059C51.5148 31.7354 51.2139 31.7595 50.8756 31.7595C50.1842 31.7595 50.0838 31.6421 50.4978 31.3174C50.779 31.0967 50.9046 31.0876 51.2441 31.2627ZM43.6842 31.4576C43.9317 31.7712 43.9198 32.0777 43.6498 32.3469C43.2716 32.724 42.7053 32.6077 42.534 32.1179C42.3612 31.6236 42.6414 31.2211 43.1581 31.2211C43.4178 31.2211 43.5416 31.2767 43.6842 31.4576ZM72.1529 31.3781C72.5507 31.8226 72.2415 32.5672 71.6591 32.5672C71.328 32.5672 70.9602 32.2063 70.9602 31.8816C70.9602 31.3313 71.7954 30.9788 72.1529 31.3781ZM39.2859 32.606C39.1544 32.7639 39.2666 33.0317 39.4497 32.9969C39.6388 32.961 39.6911 32.6056 39.5172 32.5391C39.4439 32.511 39.3399 32.5411 39.2859 32.606ZM63.6758 32.5638C63.5039 32.6697 63.6007 32.971 63.8066 32.971C63.9202 32.971 63.9952 32.9016 64.0126 32.7805C64.0423 32.5727 63.8559 32.4528 63.6758 32.5638Z" fill="#C11B17"/>
<path fill-rule="evenodd" clip-rule="evenodd" d="M83.6772 6.77062C83.3926 6.91204 82.9279 7.29962 82.4495 7.79444C81.7936 8.47277 81.6573 8.66732 81.5289 9.10785C81.3255 9.80529 81.4556 10.4116 81.9366 11.0077C82.1256 11.2421 83.2889 12.4333 84.5217 13.6549C86.6404 15.7544 86.7812 15.8759 87.0963 15.8759C87.5369 15.8759 87.7897 15.6242 87.7897 15.1856C87.7897 14.8718 87.659 14.7235 85.3147 12.3761C83.5037 10.5627 82.8398 9.84217 82.8398 9.69025C82.8398 9.55142 83.0837 9.23339 83.5757 8.73077C84.1796 8.11382 84.3607 7.97894 84.5854 7.97894C84.8246 7.97894 85.2276 8.34588 87.785 10.8925L90.7109 13.806L89.6675 14.8634C88.5697 15.9759 88.3902 16.2757 88.3902 16.9976C88.3902 17.7197 88.5696 18.0194 89.6681 19.1325L90.7122 20.1906L87.783 23.1034C85.3322 25.5406 84.8126 26.0163 84.6015 26.0163C84.4084 26.0163 84.1815 25.8537 83.6365 25.3249C82.8896 24.6001 82.7577 24.3627 82.9267 24.0477C82.983 23.9429 84.1001 22.7878 85.4093 21.4808C87.5828 19.3109 87.7897 19.078 87.7897 18.8013C87.7897 18.3634 87.5294 18.0834 87.1224 18.0834C86.81 18.0834 86.6568 18.2179 84.3147 20.5468C82.9523 21.9016 81.7641 23.1514 81.6744 23.3242C81.4359 23.7837 81.3738 24.3069 81.4981 24.8116C81.5932 25.1982 81.7316 25.3782 82.6058 26.2509C83.5113 27.1549 83.6492 27.2587 84.0797 27.3597C84.6112 27.4844 85.0578 27.4298 85.5355 27.1815C85.7111 27.0903 87.1707 25.7004 88.7791 24.093L91.7036 21.1704L94.674 24.1231C96.3077 25.7471 97.7862 27.1486 97.9595 27.2377C98.3844 27.4563 99.244 27.454 99.6992 27.2331C99.8888 27.1412 100.425 26.6867 100.89 26.2234C101.625 25.4918 101.756 25.315 101.883 24.8797C102.049 24.3105 102.006 23.8419 101.743 23.3383C101.649 23.1578 100.213 21.658 98.5518 20.0055L95.5319 17.0009L98.6234 13.9034C101.367 11.1542 101.731 10.7559 101.862 10.3635C102.18 9.40937 101.981 8.85191 100.937 7.76823C99.8189 6.60747 99.1296 6.33996 98.131 6.67917C97.7954 6.79323 97.2496 7.29496 94.7631 9.77514C93.131 11.4031 91.7546 12.7351 91.7046 12.7351C91.6546 12.7351 90.2782 11.4031 88.6461 9.77514C86.1596 7.29496 85.6138 6.79323 85.2782 6.67917C84.6946 6.48094 84.2038 6.50903 83.6772 6.77062ZM99.8335 8.73077C100.331 9.23877 100.569 9.5507 100.569 9.69276C100.569 9.8498 99.6756 10.7953 97.0385 13.4279L93.5076 16.9527L97.0385 20.4776C100.066 23.4994 100.569 24.0397 100.569 24.2633C100.569 24.4708 100.414 24.679 99.809 25.2823C99.1145 25.9748 99.025 26.0359 98.7765 25.9863C98.5695 25.945 97.4835 24.9145 94.2362 21.6779C91.8886 19.3382 89.9224 17.3389 89.8667 17.235C89.8109 17.1311 89.7892 16.9513 89.8183 16.8353C89.8478 16.7186 91.8097 14.6932 94.2101 12.3017C98.0366 8.48919 98.5812 7.97894 98.8232 7.97894C99.0485 7.97894 99.2288 8.11301 99.8335 8.73077Z" fill="#C11B17"/>
</svg>
