<svg width="345" height="397" viewBox="0 0 345 397" fill="none" xmlns="http://www.w3.org/2000/svg">
<path fill-rule="evenodd" clip-rule="evenodd" d="M98.0372 5.31704C97.7063 5.3162 97.3762 5.31734 97.0467 5.32045C95.6661 5.33349 94.5362 4.22482 94.5232 2.84417C94.5102 1.46352 95.6188 0.333711 96.9995 0.32067C97.349 0.31737 97.6991 0.316162 98.0499 0.317059C99.4307 0.32059 100.547 1.44274 100.544 2.82344C100.54 4.20415 99.4179 5.32057 98.0372 5.31704ZM110.946 3.7678C111.184 2.4077 112.479 1.49782 113.839 1.73551C114.185 1.79595 114.531 1.85837 114.878 1.92277C116.236 2.17478 117.132 3.47956 116.88 4.83708C116.628 6.19459 115.323 7.09079 113.966 6.83878C113.636 6.77757 113.307 6.71827 112.978 6.66086C111.618 6.42317 110.708 5.1279 110.946 3.7678ZM84.1143 3.91721C84.3871 5.27069 83.5111 6.5891 82.1576 6.86195C81.8303 6.92795 81.5038 6.99598 81.1781 7.06605C79.8283 7.35646 78.4986 6.49763 78.2082 5.14781C77.9178 3.79798 78.7766 2.46831 80.1264 2.1779C80.4732 2.10328 80.8209 2.03083 81.1695 1.96056C82.523 1.68771 83.8414 2.56373 84.1143 3.91721ZM126.983 7.51406C127.428 6.20711 128.848 5.50856 130.155 5.9538C130.488 6.06721 130.821 6.1824 131.155 6.29938C132.458 6.75614 133.144 8.18268 132.687 9.48565C132.231 10.7886 130.804 11.4746 129.501 11.0179C129.181 10.9057 128.862 10.7953 128.543 10.6867C127.236 10.2414 126.537 8.82101 126.983 7.51406ZM68.2518 8.32926C68.7968 9.59784 68.2102 11.0681 66.9417 11.6131C66.6362 11.7443 66.3317 11.8775 66.028 12.0125C64.7665 12.5736 63.2889 12.0058 62.7278 10.7442C62.1667 9.48266 62.7346 8.0051 63.9961 7.44401C64.319 7.30038 64.643 7.15876 64.9679 7.01916C66.2365 6.47413 67.7067 7.06068 68.2518 8.32926ZM142.31 13.5489C142.919 12.3095 144.417 11.798 145.656 12.4064C145.97 12.5605 146.284 12.7162 146.599 12.8735C147.834 13.4909 148.335 14.9925 147.717 16.2275C147.1 17.4625 145.598 17.9632 144.363 17.3458C144.06 17.1939 143.756 17.0436 143.453 16.8947C142.213 16.2863 141.702 14.7883 142.31 13.5489ZM53.6119 15.8678C54.3936 17.0059 54.1045 18.5622 52.9664 19.3439C52.6913 19.5328 52.4171 19.7234 52.144 19.9157C51.015 20.7105 49.4554 20.4396 48.6606 19.3106C47.8658 18.1816 48.1367 16.6221 49.2657 15.8273C49.5547 15.6238 49.8447 15.4221 50.1358 15.2222C51.274 14.4406 52.8303 14.7296 53.6119 15.8678ZM156.821 21.3738C157.555 20.2047 159.099 19.8524 160.268 20.5869C160.56 20.7705 160.852 20.9553 161.145 21.1415C162.31 21.8828 162.653 23.428 161.911 24.5929C161.17 25.7577 159.625 26.101 158.46 25.3597C158.176 25.1787 157.892 24.999 157.608 24.8207C156.439 24.0861 156.086 22.5429 156.821 21.3738ZM40.6424 26.0346C41.6109 27.0187 41.5982 28.6015 40.614 29.57C40.3765 29.8038 40.1398 30.039 39.9042 30.2757C38.93 31.2541 37.3471 31.2575 36.3687 30.2833C35.3903 29.3091 35.3869 27.7262 36.3611 26.7478C36.6086 26.4991 36.8573 26.2519 37.107 26.0062C38.0911 25.0377 39.674 25.0504 40.6424 26.0346ZM170.532 30.6005C171.364 29.4988 172.932 29.2803 174.034 30.1125C174.176 30.2197 174.318 30.3272 174.46 30.4351L174.882 30.7556C175.981 31.591 176.195 33.1594 175.36 34.2587C174.524 35.358 172.956 35.572 171.857 34.7366L171.436 34.4174C171.298 34.312 171.159 34.2069 171.02 34.1022C169.919 33.27 169.7 31.7023 170.532 30.6005ZM29.5589 38.2165C30.6664 39.041 30.8958 40.6072 30.0713 41.7147C29.8705 41.9843 29.6708 42.2551 29.4721 42.5271C28.6575 43.6419 27.0934 43.8853 25.9786 43.0707C24.8638 42.2561 24.6204 40.6921 25.435 39.5772C25.6424 39.2933 25.851 39.0105 26.0607 38.7289C26.8852 37.6214 28.4514 37.392 29.5589 38.2165ZM183.667 40.6522C184.516 39.5636 186.087 39.3695 187.176 40.2187C187.379 40.3776 187.583 40.5363 187.786 40.6949L187.97 40.8392C189.058 41.6893 189.251 43.2605 188.401 44.3484C187.551 45.4363 185.979 45.629 184.891 44.7788C184.739 44.6597 184.586 44.5404 184.433 44.4211C184.322 44.3345 184.211 44.2478 184.1 44.1611C183.012 43.3119 182.818 41.7409 183.667 40.6522ZM196.521 50.7846C197.386 49.7088 198.96 49.5384 200.036 50.4039C200.303 50.6189 200.57 50.8336 200.836 51.0481C201.911 51.9147 202.079 53.4886 201.213 54.5635C200.346 55.6384 198.772 55.8072 197.698 54.9406C197.433 54.7272 197.167 54.5135 196.902 54.2995C195.826 53.434 195.655 51.8603 196.521 50.7846ZM20.3631 51.9034C21.5713 52.5716 22.0092 54.0928 21.341 55.301C21.1784 55.5951 21.0168 55.89 20.8563 56.1858C20.1976 57.3993 18.68 57.8491 17.4665 57.1905C16.253 56.5319 15.8032 55.0142 16.4618 53.8007C16.6286 53.4934 16.7965 53.1869 16.9655 52.8814C17.6336 51.6731 19.1548 51.2353 20.3631 51.9034ZM209.15 61.0646C210.033 60.0037 211.61 59.8601 212.671 60.7438C212.862 60.9033 213.053 61.0626 213.244 61.2219L213.473 61.4128C214.533 62.2978 214.674 63.8743 213.789 64.9342C212.905 65.994 211.328 66.1357 210.268 65.2508C210.003 65.0293 209.737 64.8076 209.47 64.5855C208.41 63.7018 208.266 62.1254 209.15 61.0646ZM13.0162 66.6516C14.296 67.1696 14.9136 68.6271 14.3955 69.9069C14.2691 70.2193 14.1437 70.5324 14.0193 70.8462C13.5104 72.1297 12.0574 72.7577 10.7739 72.2488C9.49036 71.7399 8.86238 70.2869 9.37125 69.0034C9.50004 68.6786 9.6299 68.3544 9.76083 68.0309C10.2789 66.7511 11.7364 66.1335 13.0162 66.6516ZM221.569 71.5486C222.474 70.5052 224.053 70.3925 225.096 71.2968C225.363 71.5286 225.63 71.7601 225.896 71.9913C226.938 72.897 227.049 74.4761 226.143 75.5182C225.237 76.5603 223.658 76.6709 222.616 75.7651C222.352 75.5355 222.087 75.3055 221.821 75.0751C220.778 74.1708 220.665 72.5919 221.569 71.5486ZM233.838 82.3481C234.766 81.3258 236.347 81.2494 237.37 82.1775C237.616 82.401 237.861 82.6242 238.106 82.8471C239.127 83.7768 239.201 85.3579 238.271 86.3788C237.342 87.3997 235.76 87.4736 234.74 86.544C234.497 86.3228 234.253 86.1013 234.009 85.8795C232.986 84.9514 232.91 83.3703 233.838 82.3481ZM7.43565 82.1632C8.76496 82.5365 9.53998 83.9167 9.16673 85.246C9.07525 85.5718 8.9848 85.8981 8.8954 86.2249C8.53107 87.5566 7.15611 88.3409 5.82433 87.9766C4.49255 87.6122 3.70828 86.2373 4.07261 84.9055C4.16496 84.5679 4.25839 84.2309 4.3529 83.8943C4.72615 82.565 6.10635 81.7899 7.43565 82.1632ZM245.854 93.4579C246.81 92.4615 248.392 92.4285 249.389 93.3843C249.627 93.6129 249.865 93.8412 250.102 94.0691C251.096 95.0267 251.126 96.6093 250.169 97.604C249.211 98.5987 247.629 98.6288 246.634 97.6713C246.399 97.4454 246.164 97.2193 245.928 96.9927C244.931 96.0369 244.898 94.4544 245.854 93.4579ZM3.5673 98.1928C4.92841 98.4246 5.84386 99.716 5.61203 101.077C5.58355 101.244 5.55534 101.411 5.5274 101.579L0.595703 100.755C0.624535 100.583 0.653639 100.41 0.683016 100.238C0.914856 98.8764 2.2062 97.961 3.5673 98.1928ZM257.504 104.88C258.492 103.916 260.075 103.936 261.039 104.924C261.174 105.062 261.308 105.2 261.442 105.338C261.548 105.447 261.653 105.555 261.759 105.663C262.72 106.654 262.697 108.237 261.706 109.198C260.716 110.16 259.133 110.137 258.171 109.146C257.935 108.903 257.698 108.659 257.46 108.415C256.496 107.427 256.515 105.844 257.504 104.88ZM268.791 116.775C269.819 115.853 271.4 115.939 272.321 116.967C272.558 117.231 272.794 117.495 273.028 117.758C273.947 118.788 273.856 120.369 272.825 121.287C271.794 122.206 270.214 122.115 269.295 121.084C269.064 120.825 268.832 120.565 268.599 120.305C267.677 119.277 267.763 117.696 268.791 116.775ZM279.533 129.189C280.61 128.325 282.183 128.497 283.047 129.574C283.264 129.844 283.479 130.113 283.692 130.381C284.552 131.461 284.374 133.034 283.293 133.894C282.213 134.754 280.64 134.575 279.78 133.495C279.638 133.316 279.494 133.136 279.35 132.956C279.283 132.872 279.215 132.788 279.148 132.704C278.284 131.627 278.456 130.053 279.533 129.189ZM289.401 142.095C290.538 141.313 292.095 141.601 292.877 142.739C293.068 143.016 293.256 143.292 293.443 143.568C294.219 144.71 293.923 146.265 292.781 147.041C291.639 147.817 290.084 147.52 289.308 146.378C289.126 146.11 288.942 145.841 288.757 145.572C287.975 144.434 288.263 142.877 289.401 142.095ZM298.226 155.924C299.443 155.271 300.958 155.728 301.611 156.944C301.772 157.245 301.932 157.544 302.089 157.843C302.731 159.065 302.262 160.576 301.04 161.219C299.818 161.862 298.306 161.393 297.664 160.171C297.561 159.975 297.457 159.779 297.352 159.583C297.304 159.492 297.255 159.4 297.206 159.309C296.553 158.092 297.009 156.577 298.226 155.924ZM305.159 170.671C306.47 170.241 307.883 170.955 308.313 172.267C308.419 172.591 308.523 172.913 308.623 173.234C309.035 174.552 308.301 175.954 306.983 176.366C305.665 176.778 304.263 176.044 303.851 174.726C303.758 174.428 303.661 174.128 303.562 173.826C303.132 172.514 303.847 171.102 305.159 170.671ZM308.783 186.584C310.163 186.578 311.287 187.693 311.293 189.074C311.294 189.433 311.291 189.79 311.283 190.144C311.253 191.525 310.11 192.619 308.729 192.589C307.349 192.559 306.254 191.416 306.285 190.035C306.291 189.725 306.294 189.411 306.293 189.094C306.287 187.714 307.402 186.59 308.783 186.584ZM306.209 202.577C307.417 203.245 307.855 204.766 307.187 205.974C307.006 206.301 306.82 206.623 306.629 206.941C305.919 208.125 304.383 208.508 303.199 207.798C302.016 207.087 301.632 205.552 302.342 204.368C302.503 204.1 302.659 203.829 302.811 203.554C303.48 202.346 305.001 201.908 306.209 202.577ZM295.868 215.062C296.613 216.224 296.275 217.77 295.112 218.515C294.809 218.71 294.504 218.9 294.196 219.087C293.015 219.803 291.478 219.427 290.761 218.246C290.045 217.066 290.422 215.528 291.602 214.812C291.876 214.646 292.146 214.477 292.415 214.306C293.577 213.561 295.123 213.899 295.868 215.062ZM281.174 222.103C281.515 223.441 280.706 224.802 279.368 225.143C279.024 225.231 278.679 225.315 278.335 225.397C276.991 225.716 275.644 224.886 275.325 223.542C275.006 222.199 275.836 220.851 277.179 220.532C277.498 220.457 277.817 220.378 278.134 220.297C279.472 219.957 280.833 220.765 281.174 222.103ZM265.064 224.77C265.074 226.15 263.963 227.278 262.583 227.289C262.409 227.29 262.235 227.291 262.062 227.291C261.935 227.291 261.803 227.292 261.664 227.295C260.283 227.324 259.141 226.229 259.112 224.848C259.083 223.468 260.178 222.325 261.559 222.296C261.73 222.293 261.898 222.291 262.062 222.291C262.222 222.291 262.383 222.29 262.545 222.289C263.925 222.278 265.053 223.389 265.064 224.77ZM248.794 226.477C249.068 227.83 248.193 229.149 246.84 229.423C246.772 229.437 246.703 229.45 246.635 229.464C246.38 229.516 246.122 229.569 245.863 229.623C244.511 229.903 243.188 229.034 242.908 227.682C242.628 226.33 243.497 225.007 244.849 224.727C245.062 224.683 245.273 224.639 245.484 224.596C245.606 224.571 245.727 224.547 245.848 224.522C247.202 224.248 248.521 225.123 248.794 226.477ZM232.713 230.112C233.066 231.447 232.271 232.816 230.936 233.169C230.616 233.254 230.294 233.34 229.971 233.426C228.637 233.784 227.267 232.992 226.909 231.659C226.552 230.325 227.343 228.954 228.677 228.597C229.005 228.509 229.331 228.422 229.656 228.336C230.991 227.982 232.36 228.778 232.713 230.112ZM216.908 234.581C217.325 235.898 216.595 237.303 215.279 237.719C214.955 237.821 214.631 237.924 214.306 238.028C212.991 238.449 211.584 237.723 211.164 236.408C210.744 235.093 211.469 233.686 212.784 233.266C213.114 233.16 213.443 233.056 213.771 232.952C215.087 232.535 216.492 233.265 216.908 234.581ZM201.297 239.808C201.778 241.102 201.118 242.541 199.824 243.022C199.505 243.141 199.186 243.26 198.866 243.38C197.574 243.865 196.132 243.21 195.647 241.917C195.162 240.625 195.817 239.184 197.11 238.699C197.434 238.577 197.759 238.456 198.083 238.335C199.377 237.854 200.816 238.514 201.297 239.808ZM185.981 245.835C186.536 247.099 185.962 248.574 184.698 249.129C184.387 249.265 184.078 249.402 183.768 249.54C182.507 250.1 181.029 249.532 180.469 248.27C179.908 247.008 180.477 245.531 181.739 244.97C182.054 244.83 182.37 244.69 182.687 244.551C183.951 243.996 185.426 244.571 185.981 245.835ZM171.092 252.815C171.742 254.033 171.282 255.548 170.064 256.198C169.867 256.303 169.67 256.408 169.473 256.514C169.369 256.57 169.265 256.626 169.161 256.683C167.947 257.34 166.429 256.888 165.772 255.673C165.116 254.459 165.567 252.942 166.782 252.285C167.09 252.118 167.4 251.952 167.71 251.786C168.928 251.136 170.443 251.597 171.092 252.815ZM156.837 261.072C157.619 262.21 157.331 263.766 156.193 264.548C155.914 264.74 155.637 264.932 155.363 265.124C154.232 265.916 152.673 265.641 151.881 264.51C151.089 263.379 151.364 261.82 152.495 261.028C152.658 260.914 152.821 260.8 152.985 260.687C153.11 260.6 153.235 260.514 153.361 260.427C154.499 259.645 156.055 259.934 156.837 261.072ZM143.843 271.116C144.824 272.088 144.83 273.671 143.858 274.652C143.627 274.885 143.398 275.119 143.173 275.354C142.217 276.35 140.634 276.382 139.638 275.425C138.642 274.469 138.61 272.886 139.567 271.891C139.811 271.636 140.058 271.383 140.308 271.131C141.28 270.151 142.863 270.144 143.843 271.116ZM133.59 283.928C134.854 284.484 135.427 285.96 134.871 287.223C134.744 287.511 134.623 287.799 134.507 288.088C133.991 289.369 132.535 289.989 131.254 289.473C129.973 288.958 129.353 287.501 129.868 286.22C130.005 285.882 130.147 285.545 130.295 285.209C130.851 283.945 132.326 283.372 133.59 283.928ZM130.149 299.824C131.505 299.563 132.815 300.451 133.075 301.807C133.133 302.104 133.195 302.403 133.264 302.702C133.574 304.048 132.734 305.389 131.389 305.699C130.043 306.009 128.701 305.169 128.392 303.823C128.309 303.465 128.234 303.107 128.165 302.75C127.905 301.394 128.793 300.084 130.149 299.824ZM136.106 314.995C137.206 314.161 138.774 314.377 139.608 315.477C139.812 315.746 140.022 316.016 140.236 316.287C141.092 317.37 140.909 318.942 139.826 319.799C138.743 320.655 137.17 320.472 136.314 319.389C136.079 319.092 135.849 318.795 135.624 318.498C134.79 317.398 135.005 315.83 136.106 314.995ZM147.215 327.116C148.095 326.053 149.671 325.904 150.734 326.784C150.871 326.897 151.007 327.01 151.145 327.123C151.277 327.23 151.408 327.338 151.54 327.445C152.609 328.318 152.768 329.893 151.895 330.963C151.022 332.032 149.447 332.191 148.377 331.318C148.244 331.209 148.111 331.1 147.978 330.991C147.833 330.873 147.689 330.754 147.546 330.636C146.483 329.756 146.334 328.18 147.215 327.116ZM159.911 337.23C160.737 336.124 162.304 335.897 163.41 336.723C163.541 336.821 163.671 336.918 163.802 337.015C163.937 337.116 164.072 337.216 164.206 337.316C165.315 338.139 165.547 339.705 164.724 340.814C163.901 341.922 162.335 342.154 161.227 341.331C160.957 341.131 160.688 340.931 160.418 340.729C159.312 339.903 159.085 338.336 159.911 337.23ZM173.032 346.683C173.8 345.536 175.353 345.23 176.5 345.999C176.776 346.184 177.052 346.368 177.327 346.551C178.476 347.316 178.788 348.868 178.023 350.018C177.258 351.167 175.706 351.479 174.556 350.713C174.276 350.527 173.996 350.34 173.716 350.152C172.569 349.383 172.263 347.83 173.032 346.683ZM186.625 355.43C187.329 354.242 188.862 353.849 190.05 354.552C190.336 354.721 190.621 354.889 190.905 355.057C192.096 355.756 192.494 357.288 191.795 358.478C191.096 359.669 189.564 360.067 188.373 359.368C188.083 359.198 187.793 359.026 187.503 358.854C186.315 358.151 185.922 356.618 186.625 355.43ZM200.694 363.374C201.324 362.146 202.831 361.661 204.059 362.291C204.357 362.443 204.654 362.595 204.951 362.746C206.182 363.371 206.673 364.876 206.048 366.107C205.422 367.338 203.918 367.829 202.687 367.204C202.384 367.05 202.081 366.895 201.777 366.74C200.549 366.11 200.064 364.603 200.694 363.374ZM215.247 370.437C215.796 369.17 217.268 368.588 218.535 369.138C218.843 369.271 219.15 369.404 219.458 369.535C220.727 370.079 221.315 371.549 220.771 372.818C220.227 374.087 218.757 374.675 217.488 374.131C217.295 374.048 217.102 373.965 216.909 373.882C216.788 373.83 216.667 373.778 216.546 373.725C215.28 373.176 214.698 371.704 215.247 370.437ZM230.228 376.524C230.691 375.223 232.121 374.544 233.421 375.007C233.735 375.118 234.048 375.229 234.361 375.339C235.664 375.796 236.349 377.223 235.892 378.526C235.434 379.828 234.008 380.514 232.705 380.057C232.504 379.986 232.303 379.915 232.103 379.844C231.984 379.802 231.865 379.76 231.746 379.718C230.445 379.255 229.765 377.825 230.228 376.524ZM245.577 381.583C245.951 380.254 247.331 379.479 248.661 379.853C248.983 379.944 249.306 380.034 249.628 380.123C250.959 380.492 251.739 381.869 251.37 383.2C251.002 384.531 249.624 385.311 248.294 384.942C247.965 384.851 247.636 384.759 247.306 384.667C245.977 384.293 245.203 382.912 245.577 381.583ZM261.238 385.607C261.525 384.257 262.853 383.395 264.203 383.682C264.528 383.751 264.853 383.819 265.178 383.887C266.53 384.169 267.397 385.493 267.115 386.845C266.833 388.196 265.509 389.064 264.157 388.782C263.826 388.713 263.495 388.643 263.163 388.572C261.813 388.285 260.951 386.958 261.238 385.607ZM277.121 388.637C277.328 387.272 278.603 386.334 279.968 386.541C280.156 386.569 280.344 386.598 280.532 386.626C280.674 386.647 280.816 386.668 280.958 386.689C282.324 386.892 283.267 388.163 283.065 389.529C282.862 390.895 281.591 391.838 280.225 391.635C279.889 391.586 279.554 391.535 279.218 391.484C277.852 391.277 276.914 390.002 277.121 388.637ZM293.146 390.775C293.285 389.401 294.511 388.4 295.885 388.539C296.218 388.573 296.552 388.607 296.885 388.639C298.259 388.775 299.263 389.999 299.128 391.373C298.992 392.747 297.769 393.751 296.394 393.615C296.057 393.582 295.719 393.548 295.381 393.514C294.007 393.375 293.006 392.148 293.146 390.775ZM309.252 392.177C309.339 390.8 310.527 389.753 311.905 389.841C312.241 389.862 312.576 389.883 312.911 389.904C314.289 389.988 315.338 391.174 315.253 392.552C315.168 393.93 313.982 394.979 312.604 394.894C312.266 394.873 311.927 394.852 311.589 394.831C310.211 394.743 309.165 393.555 309.252 392.177ZM325.398 393.05C325.453 391.67 326.616 390.596 327.996 390.652C328.332 390.665 328.668 390.678 329.004 390.691C330.384 390.745 331.459 391.907 331.405 393.287C331.351 394.666 330.189 395.741 328.81 395.688C328.472 395.674 328.134 395.661 327.796 395.648C326.416 395.592 325.343 394.429 325.398 393.05ZM341.559 393.631C341.603 392.251 342.758 391.169 344.138 391.213L344.643 391.23L344.48 396.227L343.976 396.211C342.596 396.166 341.514 395.011 341.559 393.631Z" fill="black"/>
</svg>
