<svg width="345" height="397" viewBox="0 0 345 397" fill="none" xmlns="http://www.w3.org/2000/svg">
<path fill-rule="evenodd" clip-rule="evenodd" d="M97.5391 5.63907C97.2083 5.63823 96.8781 5.63936 96.5487 5.64248C95.168 5.65552 94.0382 4.54685 94.0252 3.1662C94.0121 1.78555 95.1208 0.65574 96.5014 0.642699C96.8509 0.639399 97.2011 0.638191 97.5519 0.639089C98.9326 0.642619 100.049 1.76477 100.046 3.14547C100.042 4.52618 98.9198 5.6426 97.5391 5.63907ZM110.448 4.08983C110.686 2.72973 111.981 1.81985 113.341 2.05754C113.687 2.11798 114.033 2.1804 114.38 2.2448C115.738 2.49681 116.634 3.80159 116.382 5.1591C116.13 6.51662 114.825 7.41281 113.467 7.1608C113.138 7.0996 112.809 7.0403 112.48 6.98289C111.12 6.7452 110.21 5.44993 110.448 4.08983ZM83.6162 4.23924C83.8891 5.59272 83.013 6.91113 81.6596 7.18398C81.3322 7.24997 81.0057 7.31801 80.68 7.38808C79.3302 7.67849 78.0005 6.81966 77.7101 5.46984C77.4197 4.12001 78.2785 2.79034 79.6284 2.49993C79.9752 2.42531 80.3229 2.35286 80.6715 2.28259C82.025 2.00973 83.3434 2.88576 83.6162 4.23924ZM126.485 7.83609C126.93 6.52914 128.35 5.83059 129.657 6.27583C129.99 6.38924 130.323 6.50443 130.657 6.62141C131.96 7.07817 132.646 8.50471 132.189 9.80768C131.733 11.1107 130.306 11.7966 129.003 11.3399C128.683 11.2278 128.364 11.1174 128.045 11.0087C126.738 10.5635 126.039 9.14304 126.485 7.83609ZM67.7537 8.65129C68.2988 9.91987 67.7122 11.3901 66.4436 11.9351C66.1382 12.0664 65.8336 12.1995 65.53 12.3346C64.2684 12.8957 62.7909 12.3278 62.2298 11.0662C61.6687 9.80468 62.2365 8.32713 63.4981 7.76604C63.821 7.62241 64.1449 7.48079 64.4699 7.34119C65.7385 6.79615 67.2087 7.38271 67.7537 8.65129ZM141.812 13.8709C142.421 12.6315 143.919 12.12 145.158 12.7284C145.472 12.8826 145.786 13.0383 146.101 13.1955C147.336 13.8129 147.837 15.3145 147.219 16.5495C146.602 17.7845 145.1 18.2852 143.865 17.6679C143.561 17.516 143.258 17.3656 142.955 17.2168C141.715 16.6083 141.204 15.1103 141.812 13.8709ZM53.1139 16.1898C53.8955 17.328 53.6065 18.8843 52.4683 19.6659C52.1932 19.8548 51.9191 20.0454 51.6459 20.2377C50.5169 21.0326 48.9574 20.7616 48.1626 19.6326C47.3677 18.5037 47.6387 16.9441 48.7677 16.1493C49.0566 15.9459 49.3467 15.7442 49.6378 15.5442C50.7759 14.7626 52.3322 15.0516 53.1139 16.1898ZM156.323 21.6959C157.057 20.5267 158.601 20.1744 159.77 20.909C160.062 21.0925 160.354 21.2773 160.647 21.4635C161.811 22.2048 162.155 23.7501 161.413 24.9149C160.672 26.0797 159.127 26.423 157.962 25.6817C157.678 25.5007 157.394 25.321 157.11 25.1427C155.941 24.4082 155.588 22.865 156.323 21.6959ZM40.1444 26.3566C41.1128 27.3407 41.1001 28.9236 40.116 29.892C39.8784 30.1258 39.6418 30.361 39.4062 30.5977C38.432 31.5761 36.8491 31.5795 35.8707 30.6053C34.8922 29.6311 34.8888 28.0482 35.863 27.0698C36.1106 26.8212 36.3592 26.574 36.6089 26.3282C37.5931 25.3598 39.1759 25.3725 40.1444 26.3566ZM170.034 30.9226C170.866 29.8208 172.434 29.6023 173.536 30.4345C173.678 30.5417 173.82 30.6493 173.962 30.7571L174.384 31.0777C175.483 31.913 175.697 33.4814 174.862 34.5807C174.026 35.6801 172.458 35.894 171.359 35.0587L170.938 34.7394C170.8 34.634 170.661 34.529 170.522 34.4242C169.42 33.5921 169.202 32.0243 170.034 30.9226ZM29.0608 38.5385C30.1683 39.363 30.3977 40.9292 29.5732 42.0367C29.3725 42.3064 29.1728 42.5772 28.9741 42.8491C28.1595 43.9639 26.5954 44.2073 25.4806 43.3927C24.3658 42.5782 24.1224 41.0141 24.9369 39.8993C25.1444 39.6153 25.353 39.3325 25.5626 39.0509C26.3871 37.9434 27.9533 37.714 29.0608 38.5385ZM183.169 40.9743C184.018 39.8856 185.589 39.6915 186.678 40.5408C186.881 40.6996 187.085 40.8583 187.288 41.0169L187.472 41.1612C188.56 42.0114 188.753 43.5825 187.903 44.6704C187.052 45.7583 185.481 45.9511 184.393 45.1009C184.241 44.9817 184.088 44.8625 183.935 44.7431C183.824 44.6565 183.713 44.5698 183.602 44.4831C182.514 43.6339 182.319 42.0629 183.169 40.9743ZM196.023 51.1066C196.888 50.0308 198.462 49.8604 199.538 50.7259C199.805 50.9409 200.072 51.1557 200.338 51.3702C201.413 52.2367 201.581 53.8106 200.715 54.8855C199.848 55.9604 198.274 56.1293 197.199 55.2627C196.935 55.0492 196.669 54.8355 196.403 54.6216C195.328 53.7561 195.157 52.1823 196.023 51.1066ZM19.865 52.2255C21.0733 52.8936 21.5111 54.4148 20.8429 55.6231C20.6804 55.9171 20.5188 56.212 20.3582 56.5079C19.6996 57.7214 18.1819 58.1712 16.9684 57.5126C15.7549 56.8539 15.3051 55.3363 15.9637 54.1228C16.1306 53.8154 16.2984 53.509 16.4674 53.2034C17.1356 51.9951 18.6567 51.5573 19.865 52.2255ZM208.652 61.3866C209.535 60.3257 211.112 60.1821 212.173 61.0658C212.364 61.2253 212.555 61.3847 212.746 61.5439L212.975 61.7349C214.035 62.6198 214.176 64.1964 213.291 65.2562C212.406 66.316 210.83 66.4578 209.77 65.5728C209.505 65.3514 209.239 65.1296 208.972 64.9075C207.912 64.0238 207.768 62.4474 208.652 61.3866ZM12.5181 66.9736C13.798 67.4917 14.4155 68.9491 13.8975 70.229C13.771 70.5414 13.6456 70.8544 13.5212 71.1682C13.0124 72.4517 11.5594 73.0797 10.2758 72.5708C8.99231 72.062 8.36434 70.6089 8.8732 69.3254C9.00199 69.0006 9.13185 68.6764 9.26278 68.353C9.78083 67.0731 11.2383 66.4556 12.5181 66.9736ZM221.071 71.8706C221.976 70.8273 223.555 70.7145 224.598 71.6188C224.865 71.8507 225.132 72.0822 225.398 72.3133C226.44 73.2191 226.551 74.7981 225.645 75.8402C224.739 76.8824 223.16 76.9929 222.118 76.0872C221.854 75.8575 221.589 75.6275 221.323 75.3972C220.28 74.4929 220.167 72.914 221.071 71.8706ZM233.34 82.6701C234.268 81.6478 235.849 81.5714 236.872 82.4995C237.118 82.7231 237.363 82.9463 237.608 83.1692C238.629 84.0988 238.703 85.68 237.773 86.7008C236.844 87.7217 235.262 87.7957 234.242 86.866C233.999 86.6449 233.755 86.4233 233.511 86.2015C232.488 85.2734 232.412 83.6924 233.34 82.6701ZM6.93761 82.4852C8.26691 82.8585 9.04194 84.2387 8.66868 85.568C8.5772 85.8938 8.48676 86.2201 8.39736 86.5469C8.03303 87.8787 6.65806 88.6629 5.32628 88.2986C3.99451 87.9343 3.21024 86.5593 3.57456 85.2275C3.66691 84.89 3.76034 84.5529 3.85485 84.2163C4.22811 82.887 5.6083 82.112 6.93761 82.4852ZM245.356 93.78C246.312 92.7835 247.894 92.7505 248.891 93.7063C249.129 93.935 249.367 94.1632 249.604 94.3912C250.598 95.3487 250.628 96.9314 249.671 97.9261C248.713 98.9208 247.131 98.9509 246.136 97.9933C245.901 97.7675 245.666 97.5413 245.43 97.3147C244.433 96.359 244.4 94.7764 245.356 93.78ZM3.06926 98.5148C4.43037 98.7467 5.34582 100.038 5.11398 101.399C5.08551 101.566 5.0573 101.734 5.02935 101.901L0.0976563 101.077C0.126488 100.905 0.155592 100.732 0.184969 100.56C0.416809 99.1984 1.70815 98.283 3.06926 98.5148ZM257.006 105.202C257.994 104.238 259.577 104.258 260.541 105.246C260.676 105.384 260.81 105.522 260.944 105.66C261.05 105.769 261.155 105.877 261.26 105.985C262.222 106.976 262.199 108.559 261.208 109.521C260.217 110.482 258.635 110.459 257.673 109.468C257.437 109.225 257.2 108.981 256.962 108.737C255.998 107.749 256.017 106.166 257.006 105.202ZM268.293 117.097C269.321 116.175 270.902 116.261 271.823 117.289C272.06 117.553 272.296 117.817 272.53 118.08C273.449 119.11 273.358 120.691 272.327 121.609C271.296 122.528 269.716 122.437 268.797 121.406C268.566 121.147 268.334 120.887 268.101 120.627C267.179 119.599 267.265 118.018 268.293 117.097ZM279.035 129.511C280.111 128.647 281.685 128.819 282.549 129.896C282.766 130.166 282.981 130.435 283.194 130.703C284.054 131.783 283.876 133.356 282.795 134.216C281.715 135.076 280.142 134.897 279.282 133.817C279.14 133.638 278.996 133.458 278.852 133.278C278.785 133.194 278.717 133.11 278.65 133.026C277.786 131.949 277.958 130.375 279.035 129.511ZM288.903 142.417C290.04 141.635 291.597 141.923 292.379 143.061C292.569 143.338 292.758 143.614 292.945 143.89C293.721 145.032 293.425 146.587 292.283 147.363C291.141 148.139 289.586 147.842 288.81 146.7C288.628 146.432 288.444 146.163 288.259 145.894C287.477 144.756 287.765 143.2 288.903 142.417ZM297.728 156.246C298.944 155.593 300.46 156.05 301.113 157.266C301.274 157.567 301.434 157.866 301.591 158.165C302.233 159.387 301.764 160.898 300.542 161.541C299.32 162.184 297.808 161.715 297.165 160.493C297.063 160.297 296.959 160.101 296.854 159.905C296.806 159.814 296.757 159.722 296.708 159.631C296.055 158.415 296.511 156.899 297.728 156.246ZM304.66 170.993C305.972 170.563 307.385 171.277 307.815 172.589C307.921 172.913 308.025 173.235 308.125 173.556C308.537 174.874 307.803 176.276 306.485 176.688C305.167 177.1 303.765 176.366 303.353 175.048C303.26 174.75 303.163 174.45 303.064 174.148C302.634 172.836 303.349 171.424 304.66 170.993ZM308.284 186.906C309.665 186.9 310.789 188.015 310.795 189.396C310.796 189.755 310.793 190.112 310.785 190.466C310.755 191.847 309.612 192.941 308.231 192.911C306.851 192.881 305.756 191.738 305.787 190.357C305.793 190.047 305.796 189.733 305.795 189.416C305.789 188.036 306.904 186.912 308.284 186.906ZM305.711 202.899C306.919 203.567 307.357 205.088 306.689 206.296C306.508 206.623 306.322 206.945 306.131 207.263C305.421 208.447 303.885 208.83 302.701 208.12C301.517 207.409 301.134 205.874 301.844 204.69C302.005 204.422 302.161 204.151 302.313 203.876C302.982 202.668 304.503 202.23 305.711 202.899ZM295.37 215.384C296.115 216.546 295.777 218.092 294.614 218.837C294.311 219.032 294.006 219.222 293.698 219.409C292.517 220.125 290.98 219.749 290.263 218.568C289.547 217.388 289.924 215.85 291.104 215.134C291.378 214.968 291.648 214.799 291.916 214.628C293.079 213.883 294.625 214.221 295.37 215.384ZM280.676 222.425C281.016 223.763 280.208 225.124 278.87 225.465C278.526 225.553 278.181 225.637 277.837 225.719C276.493 226.038 275.146 225.208 274.827 223.864C274.508 222.521 275.338 221.173 276.681 220.854C277 220.779 277.319 220.7 277.636 220.62C278.974 220.279 280.335 221.087 280.676 222.425ZM264.566 225.092C264.576 226.473 263.465 227.6 262.085 227.611C261.911 227.612 261.737 227.613 261.564 227.613C261.437 227.613 261.305 227.614 261.165 227.617C259.785 227.646 258.643 226.551 258.614 225.17C258.585 223.79 259.68 222.647 261.061 222.618C261.232 222.615 261.4 222.613 261.564 222.613C261.724 222.613 261.885 222.612 262.047 222.611C263.427 222.6 264.555 223.711 264.566 225.092ZM248.296 226.799C248.57 228.152 247.695 229.471 246.342 229.745C246.274 229.759 246.205 229.772 246.137 229.786C245.882 229.838 245.624 229.891 245.365 229.945C244.013 230.225 242.69 229.356 242.41 228.004C242.13 226.652 242.999 225.329 244.351 225.049C244.564 225.005 244.775 224.961 244.985 224.918C245.107 224.893 245.229 224.869 245.35 224.844C246.703 224.57 248.023 225.445 248.296 226.799ZM232.215 230.434C232.568 231.769 231.773 233.138 230.438 233.491C230.118 233.576 229.796 233.662 229.473 233.748C228.139 234.106 226.769 233.314 226.411 231.981C226.054 230.647 226.845 229.276 228.179 228.919C228.506 228.831 228.833 228.744 229.158 228.658C230.493 228.304 231.862 229.1 232.215 230.434ZM216.41 234.903C216.827 236.22 216.097 237.625 214.781 238.041C214.457 238.143 214.133 238.246 213.808 238.35C212.493 238.771 211.086 238.045 210.666 236.73C210.245 235.415 210.971 234.008 212.286 233.588C212.616 233.482 212.944 233.378 213.273 233.274C214.589 232.857 215.994 233.587 216.41 234.903ZM200.799 240.13C201.28 241.424 200.62 242.863 199.326 243.344C199.007 243.463 198.688 243.582 198.368 243.702C197.076 244.187 195.634 243.532 195.149 242.24C194.664 240.947 195.319 239.506 196.612 239.021C196.936 238.899 197.261 238.778 197.585 238.657C198.879 238.176 200.318 238.836 200.799 240.13ZM185.483 246.157C186.038 247.421 185.464 248.896 184.2 249.451C183.889 249.588 183.58 249.724 183.27 249.862C182.008 250.422 180.531 249.854 179.971 248.592C179.41 247.33 179.979 245.853 181.241 245.292C181.556 245.152 181.872 245.012 182.189 244.873C183.453 244.318 184.928 244.893 185.483 246.157ZM170.594 253.137C171.244 254.355 170.784 255.87 169.566 256.52C169.368 256.625 169.172 256.73 168.975 256.836C168.871 256.892 168.767 256.949 168.663 257.005C167.448 257.662 165.931 257.21 165.274 255.995C164.617 254.781 165.069 253.264 166.284 252.607C166.592 252.44 166.902 252.274 167.212 252.108C168.43 251.458 169.944 251.919 170.594 253.137ZM156.339 261.394C157.121 262.532 156.832 264.089 155.694 264.87C155.416 265.062 155.139 265.254 154.865 265.446C153.734 266.238 152.175 265.963 151.383 264.832C150.591 263.701 150.866 262.142 151.997 261.35C152.159 261.236 152.323 261.122 152.487 261.009C152.612 260.922 152.737 260.836 152.863 260.749C154.001 259.967 155.557 260.256 156.339 261.394ZM143.345 271.438C144.326 272.41 144.332 273.993 143.36 274.974C143.129 275.207 142.9 275.441 142.675 275.676C141.719 276.672 140.136 276.704 139.14 275.747C138.144 274.791 138.112 273.208 139.068 272.213C139.313 271.958 139.56 271.705 139.81 271.453C140.782 270.473 142.365 270.466 143.345 271.438ZM133.092 284.25C134.356 284.806 134.929 286.282 134.373 287.545C134.246 287.833 134.125 288.121 134.008 288.41C133.493 289.691 132.037 290.311 130.756 289.795C129.475 289.28 128.855 287.823 129.37 286.542C129.507 286.204 129.649 285.867 129.797 285.531C130.353 284.267 131.828 283.694 133.092 284.25ZM129.651 300.146C131.007 299.885 132.317 300.773 132.577 302.129C132.634 302.426 132.697 302.725 132.766 303.024C133.076 304.37 132.236 305.711 130.891 306.021C129.545 306.331 128.203 305.491 127.894 304.146C127.811 303.787 127.736 303.43 127.667 303.072C127.407 301.716 128.295 300.406 129.651 300.146ZM135.608 315.317C136.708 314.483 138.276 314.699 139.11 315.799C139.314 316.068 139.524 316.338 139.738 316.609C140.594 317.692 140.411 319.264 139.328 320.121C138.245 320.977 136.672 320.794 135.816 319.711C135.581 319.414 135.351 319.117 135.126 318.82C134.292 317.72 134.507 316.152 135.608 315.317ZM146.716 327.438C147.597 326.375 149.173 326.226 150.236 327.106C150.372 327.219 150.509 327.332 150.647 327.445C150.779 327.552 150.91 327.66 151.042 327.767C152.111 328.64 152.27 330.215 151.397 331.285C150.524 332.354 148.949 332.513 147.879 331.64C147.746 331.531 147.613 331.422 147.48 331.313C147.335 331.195 147.191 331.076 147.048 330.958C145.985 330.078 145.836 328.502 146.716 327.438ZM159.413 337.552C160.239 336.446 161.806 336.219 162.912 337.045C163.043 337.143 163.173 337.24 163.304 337.337C163.439 337.438 163.574 337.538 163.708 337.638C164.817 338.461 165.049 340.027 164.226 341.136C163.403 342.244 161.837 342.476 160.729 341.653C160.459 341.453 160.19 341.253 159.92 341.051C158.814 340.225 158.587 338.658 159.413 337.552ZM172.534 347.005C173.302 345.858 174.855 345.552 176.002 346.321C176.278 346.506 176.554 346.69 176.829 346.873C177.978 347.638 178.29 349.19 177.525 350.34C176.76 351.489 175.208 351.801 174.058 351.035C173.778 350.849 173.498 350.662 173.218 350.474C172.071 349.705 171.765 348.152 172.534 347.005ZM186.127 355.752C186.831 354.564 188.364 354.171 189.552 354.874C189.838 355.043 190.123 355.211 190.407 355.379C191.598 356.078 191.996 357.61 191.297 358.8C190.598 359.991 189.066 360.389 187.875 359.69C187.585 359.52 187.295 359.349 187.005 359.177C185.817 358.473 185.424 356.94 186.127 355.752ZM200.196 363.696C200.826 362.468 202.333 361.983 203.561 362.613C203.859 362.765 204.156 362.917 204.453 363.068C205.684 363.693 206.175 365.198 205.55 366.429C204.924 367.66 203.42 368.151 202.189 367.526C201.886 367.372 201.583 367.217 201.279 367.062C200.051 366.432 199.566 364.925 200.196 363.696ZM214.749 370.759C215.298 369.492 216.77 368.91 218.037 369.46C218.345 369.593 218.652 369.726 218.96 369.857C220.229 370.401 220.817 371.871 220.273 373.14C219.729 374.409 218.259 374.997 216.99 374.453C216.797 374.37 216.604 374.287 216.411 374.204C216.29 374.152 216.169 374.1 216.048 374.047C214.782 373.498 214.2 372.026 214.749 370.759ZM229.73 376.846C230.193 375.545 231.623 374.866 232.923 375.329C233.237 375.44 233.55 375.551 233.863 375.661C235.165 376.118 235.851 377.545 235.394 378.848C234.936 380.15 233.51 380.836 232.207 380.379C232.006 380.308 231.805 380.237 231.605 380.166C231.486 380.124 231.367 380.082 231.248 380.04C229.947 379.577 229.267 378.147 229.73 376.846ZM245.079 381.905C245.453 380.576 246.833 379.802 248.163 380.175C248.485 380.266 248.808 380.356 249.13 380.445C250.461 380.814 251.241 382.191 250.872 383.522C250.504 384.853 249.126 385.633 247.796 385.264C247.467 385.173 247.138 385.081 246.808 384.989C245.479 384.615 244.705 383.234 245.079 381.905ZM260.74 385.929C261.027 384.579 262.354 383.717 263.705 384.004C264.03 384.073 264.355 384.141 264.68 384.209C266.032 384.491 266.899 385.815 266.617 387.167C266.335 388.518 265.011 389.386 263.659 389.104C263.328 389.035 262.997 388.965 262.665 388.895C261.315 388.607 260.453 387.28 260.74 385.929ZM276.623 388.959C276.83 387.594 278.105 386.656 279.47 386.863C279.658 386.891 279.846 386.92 280.034 386.948C280.176 386.969 280.318 386.99 280.46 387.011C281.826 387.214 282.769 388.485 282.566 389.851C282.364 391.217 281.093 392.16 279.727 391.957C279.391 391.908 279.055 391.857 278.72 391.806C277.354 391.599 276.416 390.324 276.623 388.959ZM292.648 391.097C292.787 389.723 294.013 388.722 295.387 388.861C295.72 388.895 296.054 388.929 296.387 388.961C297.761 389.097 298.765 390.321 298.63 391.695C298.494 393.069 297.27 394.073 295.896 393.937C295.559 393.904 295.221 393.87 294.883 393.836C293.509 393.697 292.508 392.47 292.648 391.097ZM308.754 392.5C308.841 391.122 310.029 390.075 311.407 390.163C311.743 390.184 312.078 390.205 312.413 390.226C313.791 390.31 314.84 391.496 314.755 392.874C314.67 394.252 313.484 395.301 312.106 395.216C311.768 395.195 311.429 395.174 311.091 395.153C309.713 395.065 308.667 393.877 308.754 392.5ZM324.9 393.372C324.955 391.992 326.118 390.918 327.497 390.974C327.834 390.987 328.17 391 328.506 391.013C329.886 391.067 330.961 392.229 330.907 393.609C330.853 394.988 329.691 396.063 328.312 396.01C327.974 395.996 327.636 395.983 327.298 395.97C325.918 395.914 324.845 394.751 324.9 393.372ZM341.06 393.953C341.105 392.573 342.26 391.491 343.64 391.535L344.145 391.552L343.982 396.549L343.478 396.533C342.098 396.488 341.016 395.333 341.06 393.953Z" fill="white"/>
</svg>
