<svg width="468" height="128" viewBox="0 0 468 128" fill="none" xmlns="http://www.w3.org/2000/svg">
<path fill-rule="evenodd" clip-rule="evenodd" d="M1.09048 4.03808L0.732422 3.71447L4.08657 0.00640869L4.44159 0.327284C5.4663 1.25267 5.54682 2.83353 4.62143 3.85824C3.69605 4.88295 2.11519 4.96347 1.09048 4.03808ZM11.9398 10.3088C12.841 9.26281 14.4196 9.14541 15.4656 10.0466C15.714 10.2606 15.9631 10.4749 16.2129 10.6895C17.2602 11.5892 17.38 13.1676 16.4803 14.2149C15.5806 15.2623 14.0022 15.382 12.9549 14.4823C12.7032 14.2661 12.4523 14.0503 12.202 13.8346C11.156 12.9334 11.0386 11.3549 11.9398 10.3088ZM393.654 20.0095C393.675 18.6289 394.812 17.5273 396.193 17.5489C396.524 17.5541 396.854 17.5608 397.185 17.569C398.565 17.6031 399.656 18.7497 399.622 20.13C399.588 21.5103 398.442 22.6016 397.061 22.5674C396.746 22.5596 396.43 22.5533 396.114 22.5483C394.734 22.5267 393.632 21.39 393.654 20.0095ZM384.157 20.524C384.332 21.8935 383.365 23.146 381.995 23.3215C381.684 23.3614 381.373 23.4028 381.062 23.4458C379.695 23.635 378.433 22.6797 378.243 21.312C378.054 19.9444 379.009 18.6822 380.377 18.493C380.705 18.4477 381.032 18.4041 381.359 18.3621C382.729 18.1866 383.981 19.1545 384.157 20.524ZM409.101 20.9876C409.31 19.6227 410.586 18.6855 411.951 18.8943C412.276 18.9441 412.601 18.9951 412.926 19.0474C414.289 19.267 415.216 20.55 414.997 21.9131C414.777 23.2763 413.494 24.2033 412.131 23.9838C411.819 23.9336 411.507 23.8846 411.195 23.8368C409.83 23.628 408.893 22.3524 409.101 20.9876ZM24.0239 20.5548C24.9012 19.4886 26.4766 19.3354 27.5429 20.2126C27.7947 20.4198 28.047 20.6272 28.2999 20.8346C29.3673 21.7104 29.5226 23.2857 28.6468 24.3531C27.771 25.4205 26.1957 25.5758 25.1283 24.7C24.8737 24.4911 24.6196 24.2823 24.366 24.0737C23.2998 23.1965 23.1467 21.621 24.0239 20.5548ZM368.949 23.3326C369.347 24.6547 368.599 26.0492 367.277 26.4475C366.976 26.5382 366.675 26.6305 366.374 26.7245C365.057 27.1368 363.654 26.4027 363.242 25.085C362.83 23.7673 363.564 22.3648 364.881 21.9526C365.199 21.8533 365.517 21.7558 365.834 21.66C367.156 21.2618 368.551 22.0106 368.949 23.3326ZM424.287 23.9615C424.656 22.6311 426.034 21.8521 427.364 22.2215C427.681 22.3094 427.997 22.3983 428.312 22.4883C429.64 22.8669 430.41 24.2502 430.031 25.578C429.652 26.9058 428.269 27.6752 426.941 27.2966C426.637 27.2098 426.332 27.124 426.027 27.0392C424.696 26.6698 423.917 25.2919 424.287 23.9615ZM439.046 28.6484C439.553 27.3642 441.005 26.7344 442.289 27.2416C442.595 27.3621 442.899 27.4835 443.203 27.6056C444.484 28.1208 445.105 29.5769 444.589 30.8579C444.074 32.1389 442.618 32.7597 441.337 32.2445C441.043 32.1262 440.748 32.0087 440.453 31.892C439.169 31.3848 438.539 29.9326 439.046 28.6484ZM354.413 28.6378C355.028 29.8742 354.524 31.3747 353.287 31.9893C353.004 32.1303 352.72 32.273 352.437 32.4175C351.207 33.0451 349.702 32.5569 349.074 31.3271C348.447 30.0972 348.935 28.5915 350.165 27.9639C350.463 27.8115 350.762 27.6609 351.062 27.5121C352.298 26.8974 353.798 27.4014 354.413 28.6378ZM36.2675 30.4778C37.1217 29.3929 38.6935 29.2059 39.7783 30.06C40.0349 30.2621 40.2919 30.4642 40.5494 30.6663C41.6353 31.519 41.8245 33.0905 40.9718 34.1765C40.1191 35.2625 38.5475 35.4516 37.4616 34.5989C37.2024 34.3954 36.9436 34.1919 36.6853 33.9885C35.6005 33.1344 35.4134 31.5626 36.2675 30.4778ZM453.239 34.8039C453.867 33.5744 455.373 33.0868 456.602 33.715C456.897 33.8656 457.191 34.0167 457.484 34.1685C458.709 34.8039 459.188 36.3127 458.553 37.5385C457.917 38.7643 456.408 39.243 455.183 38.6076C454.986 38.5055 454.788 38.4037 454.591 38.3022C454.503 38.2573 454.415 38.2124 454.328 38.1676C453.098 37.5394 452.611 36.0335 453.239 34.8039ZM340.954 36.2888C341.759 37.4108 341.502 38.9727 340.38 39.7774C340.127 39.9584 339.875 40.1411 339.623 40.3255C338.509 41.1407 336.945 40.8983 336.129 39.7839C335.314 38.6696 335.557 37.1053 336.671 36.2901C336.936 36.0965 337.201 35.9045 337.466 35.7143C338.588 34.9096 340.15 35.1668 340.954 36.2888ZM48.7509 40.1597C49.5816 39.0569 51.1491 38.8363 52.2519 39.6671C52.5148 39.8651 52.7781 40.0632 53.0418 40.2612C54.1457 41.0904 54.3684 42.6576 53.5391 43.7616C52.7099 44.8655 51.1427 45.0882 50.0388 44.259C49.7733 44.0596 49.5083 43.8602 49.2436 43.6608C48.1407 42.83 47.9201 41.2626 48.7509 40.1597ZM466.803 42.2831C467.543 41.1179 469.088 40.7736 470.253 41.5141C470.527 41.688 470.799 41.8621 471.07 42.0364C472.231 42.7838 472.566 44.3309 471.818 45.4918C471.071 46.6527 469.524 46.9878 468.363 46.2403C468.101 46.0713 467.837 45.9026 467.572 45.734C466.406 44.9935 466.062 43.4484 466.803 42.2831ZM328.853 45.9254C329.81 46.9204 329.779 48.503 328.784 49.4602C328.558 49.6777 328.332 49.8968 328.107 50.1173C327.12 51.0828 325.537 51.0652 324.572 50.0781C323.606 49.0911 323.624 47.5082 324.611 46.5428C324.846 46.3126 325.082 46.0839 325.318 45.8568C326.313 44.8996 327.896 44.9303 328.853 45.9254ZM61.4534 49.5816C62.2599 48.4609 63.8222 48.2061 64.9429 49.0125C65.2079 49.2032 65.4732 49.3939 65.7388 49.5845C66.8607 50.3893 67.1176 51.9513 66.3127 53.0731C65.5078 54.1949 63.9459 54.4519 62.8241 53.647C62.5566 53.4551 62.2894 53.2631 62.0225 53.071C60.9018 52.2646 60.647 50.7023 61.4534 49.5816ZM479.579 51.0149C480.436 49.9323 482.009 49.7494 483.091 50.6064C483.217 50.7062 483.343 50.806 483.468 50.9058L480.351 54.8151C480.23 54.719 480.109 54.6229 479.988 54.5267C478.905 53.6698 478.722 52.0975 479.579 51.0149ZM318.197 57.106C319.269 57.9758 319.433 59.5502 318.563 60.6224C318.361 60.8716 318.16 61.1222 317.958 61.3742C317.096 62.4526 315.523 62.628 314.444 61.7659C313.366 60.9037 313.19 59.3305 314.053 58.2521C314.261 57.9908 314.471 57.7309 314.68 57.4725C315.55 56.4002 317.125 56.2361 318.197 57.106ZM74.3336 58.7005C75.1143 57.5616 76.6703 57.2713 77.8091 58.052C78.079 58.237 78.349 58.4218 78.6193 58.6065C79.7593 59.3855 80.0519 60.9411 79.2729 62.0811C78.4939 63.2211 76.9382 63.5137 75.7983 62.7347C75.526 62.5486 75.2539 62.3624 74.982 62.176C73.8432 61.3953 73.5529 59.8393 74.3336 58.7005ZM87.4328 67.5238C88.1855 66.3663 89.734 66.0381 90.8915 66.7909C91.0509 66.8945 91.2104 66.9981 91.3699 67.1016C91.4853 67.1765 91.6007 67.2514 91.7162 67.3262C92.8749 68.0771 93.2055 69.6251 92.4546 70.7838C91.7038 71.9425 90.1558 72.2731 88.9971 71.5222C88.7198 71.3425 88.4427 71.1626 88.1657 70.9825C87.0082 70.2298 86.6801 68.6813 87.4328 67.5238ZM308.906 69.4554C310.063 70.2098 310.389 71.7589 309.634 72.9152C309.461 73.1801 309.289 73.4462 309.117 73.7136C308.369 74.8744 306.822 75.2093 305.661 74.4617C304.5 73.714 304.166 72.167 304.913 71.0062C305.091 70.7306 305.268 70.4563 305.447 70.1833C306.201 69.0269 307.75 68.701 308.906 69.4554ZM100.751 76.0176C101.472 74.8406 103.012 74.4716 104.189 75.1934C104.468 75.3646 104.747 75.5355 105.027 75.7061C106.205 76.4259 106.576 77.9645 105.857 79.1428C105.137 80.3211 103.598 80.6928 102.42 79.973C102.138 79.8009 101.856 79.6284 101.575 79.4557C100.398 78.7339 100.029 77.1946 100.751 76.0176ZM300.823 82.7178C302.04 83.3694 302.499 84.8844 301.848 86.1017C301.813 86.1671 301.778 86.2325 301.743 86.298C301.701 86.3768 301.659 86.4556 301.617 86.5346C301.575 86.6126 301.533 86.6905 301.492 86.7683C301.451 86.8445 301.41 86.9205 301.369 86.9965C300.714 88.2119 299.198 88.6663 297.982 88.0113C296.767 87.3563 296.313 85.84 296.968 84.6245C297.046 84.4789 297.124 84.3328 297.202 84.1863C297.281 84.038 297.36 83.8899 297.439 83.7422C298.091 82.5249 299.606 82.0663 300.823 82.7178ZM114.291 84.1406C114.978 82.943 116.506 82.529 117.703 83.2161C117.988 83.3796 118.273 83.5427 118.558 83.7056C119.757 84.3903 120.174 85.9173 119.49 87.1163C118.805 88.3153 117.278 88.7322 116.079 88.0475C115.791 87.883 115.503 87.7182 115.215 87.5531C114.018 86.8661 113.604 85.3383 114.291 84.1406ZM128.084 91.8541C128.731 90.6345 130.245 90.1704 131.464 90.8175C131.754 90.9712 132.044 91.1245 132.334 91.2775C133.555 91.9219 134.022 93.4342 133.378 94.6553C132.733 95.8764 131.221 96.3439 130 95.6994C129.817 95.6028 129.634 95.5061 129.451 95.4092C129.341 95.3509 129.231 95.2926 129.121 95.2343C127.901 94.5871 127.437 93.0738 128.084 91.8541ZM292.598 96.2754C293.68 97.1333 293.862 98.7058 293.004 99.7876C292.793 100.053 292.581 100.317 292.368 100.579C291.496 101.649 289.921 101.81 288.851 100.938C287.78 100.066 287.619 98.4917 288.491 97.4212C288.69 97.1764 288.889 96.9296 289.086 96.6807C289.944 95.5989 291.517 95.4175 292.598 96.2754ZM142.13 99.084C142.731 97.8408 144.226 97.3198 145.469 97.9204C145.763 98.0624 146.057 98.2039 146.351 98.3449C147.595 98.9423 148.12 100.436 147.523 101.68C146.925 102.925 145.432 103.45 144.187 102.853C143.889 102.71 143.592 102.566 143.294 102.423C142.051 101.822 141.53 100.327 142.13 99.084ZM156.433 105.74C156.978 104.472 158.449 103.885 159.717 104.43C160.015 104.558 160.312 104.686 160.609 104.812C161.879 105.354 162.47 106.822 161.929 108.092C161.387 109.362 159.919 109.953 158.649 109.412C158.347 109.283 158.045 109.154 157.743 109.024C156.474 108.479 155.888 107.009 156.433 105.74ZM281.936 107.842C282.799 108.92 282.625 110.493 281.547 111.356C281.279 111.571 281.009 111.784 280.738 111.994C279.648 112.841 278.077 112.643 277.23 111.552C276.384 110.461 276.582 108.891 277.672 108.044C277.923 107.85 278.173 107.653 278.422 107.453C279.5 106.59 281.073 106.765 281.936 107.842ZM171.062 111.731C171.54 110.436 172.977 109.773 174.272 110.25C174.58 110.364 174.888 110.477 175.196 110.589C176.493 111.061 177.161 112.496 176.688 113.794C176.215 115.091 174.78 115.759 173.483 115.286C173.17 115.172 172.857 115.057 172.543 114.942C171.248 114.464 170.585 113.027 171.062 111.731ZM185.995 116.885C186.388 115.562 187.78 114.807 189.103 115.201C189.414 115.293 189.724 115.384 190.033 115.475C191.359 115.862 192.119 117.251 191.732 118.576C191.344 119.901 189.956 120.661 188.631 120.274C188.314 120.181 187.996 120.088 187.679 119.994C186.356 119.6 185.602 118.209 185.995 116.885ZM268.871 116.641C269.452 117.894 268.908 119.38 267.656 119.962C267.347 120.105 267.037 120.247 266.726 120.386C265.466 120.949 263.987 120.383 263.424 119.123C262.861 117.862 263.426 116.384 264.687 115.82C264.976 115.691 265.263 115.56 265.55 115.427C266.802 114.846 268.289 115.389 268.871 116.641ZM201.225 120.985C201.51 119.635 202.837 118.771 204.188 119.057C204.509 119.125 204.83 119.192 205.151 119.258C206.503 119.536 207.374 120.858 207.096 122.21C206.818 123.563 205.496 124.434 204.144 124.156C203.814 124.088 203.484 124.019 203.153 123.949C201.802 123.663 200.939 122.336 201.225 120.985ZM254.1 122.15C254.396 123.499 253.542 124.832 252.193 125.127C251.859 125.2 251.525 125.272 251.189 125.341C249.837 125.62 248.515 124.749 248.236 123.397C247.957 122.045 248.827 120.723 250.18 120.444C250.495 120.379 250.809 120.312 251.123 120.243C252.471 119.947 253.804 120.801 254.1 122.15ZM216.788 123.745C216.934 122.372 218.165 121.377 219.538 121.522C219.857 121.556 220.175 121.589 220.493 121.62C221.867 121.755 222.872 122.979 222.736 124.353C222.601 125.727 221.378 126.731 220.003 126.596C219.673 126.563 219.343 126.53 219.011 126.495C217.638 126.349 216.643 125.118 216.788 123.745ZM238.526 124.53C238.58 125.909 237.504 127.071 236.125 127.124C235.787 127.137 235.449 127.149 235.11 127.158C233.73 127.198 232.578 126.112 232.539 124.732C232.499 123.352 233.585 122.2 234.965 122.16C235.288 122.151 235.61 122.14 235.932 122.128C237.312 122.075 238.473 123.15 238.526 124.53Z" fill="white"/>
</svg>
