<svg width="484" height="128" viewBox="0 0 484 128" fill="none" xmlns="http://www.w3.org/2000/svg">
<path fill-rule="evenodd" clip-rule="evenodd" d="M1.04653 4.10724L0.688477 3.78362L4.04262 0.0755615L4.39765 0.396437C5.42236 1.32182 5.50287 2.90268 4.57749 3.92739C3.65211 4.9521 2.07124 5.03262 1.04653 4.10724ZM11.8958 10.378C12.7971 9.33196 14.3756 9.21457 15.4216 10.1158C15.67 10.3298 15.9192 10.5441 16.1689 10.7587C17.2163 11.6583 17.336 13.2367 16.4363 14.2841C15.5367 15.3314 13.9583 15.4511 12.9109 14.5515C12.6593 14.3353 12.4083 14.1194 12.1581 13.9038C11.112 13.0026 10.9946 11.424 11.8958 10.378ZM393.61 20.0786C393.631 18.6981 394.768 17.5964 396.149 17.6181C396.48 17.6233 396.81 17.6299 397.141 17.6381C398.521 17.6722 399.613 18.8188 399.578 20.1991C399.544 21.5794 398.398 22.6707 397.017 22.6366C396.702 22.6288 396.386 22.6224 396.07 22.6175C394.69 22.5958 393.588 21.4592 393.61 20.0786ZM384.113 20.5931C384.289 21.9626 383.321 23.2151 381.951 23.3907C381.64 23.4305 381.329 23.472 381.019 23.515C379.651 23.7042 378.389 22.7489 378.199 21.3812C378.01 20.0135 378.966 18.7514 380.333 18.5622C380.661 18.5168 380.988 18.4732 381.315 18.4313C382.685 18.2557 383.937 19.2236 384.113 20.5931ZM409.057 21.0567C409.266 19.6919 410.542 18.7547 411.907 18.9634C412.232 19.0132 412.557 19.0643 412.882 19.1166C414.245 19.3361 415.172 20.6191 414.953 21.9823C414.733 23.3454 413.45 24.2725 412.087 24.053C411.775 24.0027 411.463 23.9537 411.151 23.9059C409.786 23.6972 408.849 22.4216 409.057 21.0567ZM23.98 20.6239C24.8572 19.5577 26.4327 19.4045 27.4989 20.2818C27.7507 20.489 28.0031 20.6963 28.2559 20.9038C29.3233 21.7796 29.4787 23.3549 28.6029 24.4223C27.7271 25.4897 26.1518 25.645 25.0844 24.7692C24.8298 24.5603 24.5757 24.3515 24.3221 24.1429C23.2559 23.2656 23.1027 21.6901 23.98 20.6239ZM368.905 23.4018C369.303 24.7238 368.555 26.1184 367.233 26.5167C366.932 26.6073 366.631 26.6996 366.33 26.7937C365.013 27.2059 363.61 26.4719 363.198 25.1542C362.786 23.8364 363.52 22.434 364.838 22.0218C365.155 21.9224 365.473 21.8249 365.79 21.7292C367.112 21.3309 368.507 22.0798 368.905 23.4018ZM424.243 24.0307C424.612 22.7003 425.99 21.9213 427.321 22.2907C427.637 22.3786 427.953 22.4675 428.268 22.5574C429.596 22.9361 430.366 24.3194 429.987 25.6472C429.608 26.9749 428.225 27.7444 426.897 27.3657C426.593 27.279 426.288 27.1932 425.983 27.1084C424.652 26.739 423.873 25.361 424.243 24.0307ZM439.002 28.7176C439.509 27.4334 440.961 26.8035 442.246 27.3108C442.551 27.4313 442.855 27.5526 443.159 27.6748C444.44 28.19 445.061 29.6461 444.545 30.9271C444.03 32.208 442.574 32.8288 441.293 32.3137C440.999 32.1954 440.704 32.0779 440.409 31.9612C439.125 31.4539 438.495 30.0017 439.002 28.7176ZM354.369 28.707C354.984 29.9433 354.48 31.4438 353.243 32.0585C352.96 32.1995 352.677 32.3422 352.393 32.4867C351.164 33.1143 349.658 32.6261 349.03 31.3962C348.403 30.1664 348.891 28.6607 350.121 28.0331C350.419 27.8806 350.718 27.73 351.018 27.5812C352.254 26.9666 353.755 27.4706 354.369 28.707ZM36.2236 30.5469C37.0777 29.4621 38.6495 29.2751 39.7344 30.1292C39.991 30.3312 40.248 30.5333 40.5054 30.7355C41.5914 31.5881 41.7805 33.1597 40.9278 34.2457C40.0752 35.3316 38.5036 35.5207 37.4176 34.6681C37.1584 34.4645 36.8997 34.2611 36.6413 34.0577C35.5565 33.2036 35.3695 31.6318 36.2236 30.5469ZM453.195 34.8731C453.823 33.6435 455.329 33.156 456.558 33.7841C456.853 33.9347 457.147 34.0859 457.44 34.2376C458.665 34.873 459.144 36.3818 458.509 37.6077C457.873 38.8335 456.365 39.3121 455.139 38.6767C454.942 38.5747 454.744 38.4729 454.547 38.3714C454.459 38.3264 454.371 38.2816 454.284 38.2367C453.054 37.6086 452.567 36.1026 453.195 34.8731ZM340.911 36.358C341.715 37.48 341.458 39.0419 340.336 39.8465C340.083 40.0276 339.831 40.2103 339.579 40.3946C338.465 41.2099 336.901 40.9674 336.085 39.8531C335.27 38.7387 335.513 37.1745 336.627 36.3593C336.892 36.1656 337.157 35.9737 337.422 35.7834C338.544 34.9787 340.106 35.236 340.911 36.358ZM48.7069 40.2289C49.5377 39.126 51.1051 38.9055 52.208 39.7362C52.4709 39.9343 52.7342 40.1323 52.9978 40.3303C54.1018 41.1596 54.3245 42.7268 53.4952 43.8307C52.666 44.9347 51.0988 45.1574 49.9948 44.3281C49.7294 44.1287 49.4643 43.9293 49.1996 43.7299C48.0968 42.8992 47.8762 41.3317 48.7069 40.2289ZM466.759 42.3523C467.499 41.187 469.044 40.8427 470.21 41.5833C470.483 41.7571 470.755 41.9312 471.026 42.1055C472.187 42.853 472.522 44.4 471.775 45.5609C471.027 46.7218 469.48 47.057 468.319 46.3095C468.057 46.1405 467.793 45.9717 467.528 45.8032C466.362 45.0626 466.018 43.5176 466.759 42.3523ZM328.809 45.9945C329.766 46.9896 329.735 48.5722 328.74 49.5294C328.514 49.7469 328.289 49.9659 328.063 50.1865C327.076 51.1519 325.493 51.1344 324.528 50.1473C323.562 49.1602 323.58 47.5774 324.567 46.612C324.802 46.3818 325.038 46.1531 325.274 45.926C326.269 44.9688 327.852 44.9995 328.809 45.9945ZM61.4095 49.6507C62.2159 48.53 63.7782 48.2752 64.8989 49.0817C65.164 49.2724 65.4293 49.463 65.6949 49.6536C66.8167 50.4585 67.0737 52.0204 66.2688 53.1423C65.4639 54.2641 63.902 54.521 62.7801 53.7161C62.5127 53.5242 62.2454 53.3322 61.9785 53.1402C60.8578 52.3337 60.603 50.7714 61.4095 49.6507ZM479.535 51.084C480.392 50.0015 481.965 49.8186 483.047 50.6755C483.173 50.7754 483.299 50.8752 483.424 50.975L480.307 54.8842C480.186 54.7882 480.065 54.6921 479.944 54.5959C478.861 53.7389 478.678 52.1666 479.535 51.084ZM318.153 57.1751C319.225 58.045 319.389 59.6193 318.519 60.6916C318.317 60.9407 318.116 61.1913 317.914 61.4433C317.052 62.5218 315.479 62.6972 314.4 61.835C313.322 60.9729 313.147 59.3997 314.009 58.3212C314.218 58.0599 314.427 57.8001 314.636 57.5417C315.506 56.4694 317.081 56.3053 318.153 57.1751ZM74.2896 58.7696C75.0703 57.6308 76.6264 57.3405 77.7652 58.1212C78.035 58.3061 78.3051 58.491 78.5754 58.6757C79.7153 59.4547 80.0079 61.0103 79.2289 62.1503C78.4499 63.2902 76.8943 63.5828 75.7543 62.8038C75.482 62.6177 75.2099 62.4315 74.9381 62.2452C73.7993 61.4645 73.509 59.9084 74.2896 58.7696ZM87.3889 67.5929C88.1416 66.4354 89.6901 66.1073 90.8476 66.86C91.007 66.9637 91.1664 67.0672 91.3259 67.1707C91.4414 67.2457 91.5568 67.3205 91.6723 67.3954C92.831 68.1463 93.1616 69.6943 92.4107 70.8529C91.6598 72.0116 90.1118 72.3422 88.9531 71.5913C88.6758 71.4116 88.3987 71.2317 88.1218 71.0517C86.9643 70.2989 86.6362 68.7504 87.3889 67.5929ZM308.862 69.5246C310.019 70.279 310.345 71.828 309.59 72.9844C309.417 73.2493 309.245 73.5154 309.073 73.7827C308.325 74.9435 306.778 75.2784 305.617 74.5308C304.457 73.7832 304.122 72.2361 304.869 71.0753C305.047 70.7998 305.224 70.5255 305.403 70.2524C306.157 69.096 307.706 68.7702 308.862 69.5246ZM100.707 76.0868C101.428 74.9098 102.968 74.5407 104.145 75.2625C104.424 75.4337 104.703 75.6046 104.983 75.7753C106.161 76.4951 106.533 78.0337 105.813 79.212C105.093 80.3903 103.554 80.762 102.376 80.0422C102.094 79.87 101.813 79.6976 101.531 79.5249C100.354 78.8031 99.9849 77.2638 100.707 76.0868ZM300.779 82.787C301.997 83.4385 302.455 84.9536 301.804 86.1709C301.769 86.2362 301.734 86.3017 301.699 86.3671C301.657 86.4459 301.615 86.5248 301.573 86.6038C301.531 86.6818 301.49 86.7597 301.448 86.8374C301.407 86.9136 301.366 86.9897 301.325 87.0656C300.67 88.2811 299.154 88.7354 297.939 88.0804C296.723 87.4254 296.269 85.9091 296.924 84.6937C297.002 84.5481 297.08 84.402 297.158 84.2554C297.237 84.1071 297.316 83.9591 297.395 83.8114C298.047 82.5941 299.562 82.1354 300.779 82.787ZM114.247 84.2098C114.934 83.0121 116.462 82.5982 117.659 83.2852C117.944 83.4487 118.229 83.6119 118.514 83.7747C119.713 84.4594 120.13 85.9865 119.446 87.1854C118.761 88.3844 117.234 88.8013 116.035 88.1166C115.747 87.9522 115.459 87.7874 115.171 87.6223C113.974 86.9352 113.56 85.4074 114.247 84.2098ZM128.04 91.9233C128.687 90.7036 130.201 90.2395 131.42 90.8867C131.71 91.0404 132 91.1937 132.29 91.3466C133.511 91.9911 133.978 93.5034 133.334 94.7245C132.689 95.9455 131.177 96.413 129.956 95.7686C129.773 95.672 129.59 95.5752 129.407 95.4783C129.297 95.4201 129.187 95.3618 129.077 95.3034C127.857 94.6563 127.393 93.1429 128.04 91.9233ZM292.554 96.3446C293.636 97.2025 293.818 98.775 292.96 99.8568C292.749 100.123 292.537 100.386 292.324 100.648C291.452 101.718 289.877 101.879 288.807 101.008C287.736 100.136 287.575 98.5609 288.447 97.4903C288.647 97.2456 288.845 96.9988 289.042 96.7499C289.9 95.6681 291.473 95.4866 292.554 96.3446ZM142.086 99.1532C142.687 97.91 144.182 97.389 145.425 97.9895C145.719 98.1315 146.013 98.273 146.307 98.4141C147.551 99.0115 148.076 100.505 147.479 101.75C146.881 102.994 145.388 103.519 144.143 102.922C143.845 102.779 143.548 102.636 143.25 102.492C142.007 101.891 141.486 100.396 142.086 99.1532ZM156.389 105.809C156.934 104.541 158.405 103.954 159.673 104.5C159.971 104.627 160.268 104.755 160.565 104.881C161.836 105.423 162.426 106.891 161.885 108.161C161.344 109.432 159.875 110.022 158.605 109.481C158.303 109.352 158.001 109.223 157.699 109.093C156.43 108.548 155.844 107.078 156.389 105.809ZM281.892 107.911C282.755 108.989 282.581 110.563 281.503 111.426C281.235 111.64 280.965 111.853 280.694 112.063C279.604 112.91 278.033 112.712 277.186 111.621C276.34 110.531 276.538 108.96 277.628 108.114C277.879 107.919 278.129 107.722 278.378 107.522C279.456 106.659 281.029 106.834 281.892 107.911ZM171.018 111.8C171.496 110.505 172.933 109.842 174.229 110.319C174.536 110.433 174.844 110.546 175.152 110.658C176.449 111.131 177.117 112.566 176.644 113.863C176.171 115.16 174.737 115.828 173.439 115.355C173.126 115.241 172.813 115.126 172.499 115.011C171.204 114.533 170.541 113.096 171.018 111.8ZM185.951 116.954C186.344 115.631 187.736 114.877 189.059 115.27C189.37 115.362 189.68 115.453 189.989 115.544C191.315 115.931 192.075 117.32 191.688 118.645C191.3 119.97 189.912 120.731 188.587 120.343C188.27 120.251 187.953 120.157 187.635 120.063C186.312 119.669 185.558 118.278 185.951 116.954ZM268.827 116.711C269.408 117.963 268.865 119.45 267.612 120.031C267.303 120.175 266.993 120.316 266.683 120.455C265.422 121.018 263.943 120.453 263.38 119.192C262.817 117.931 263.382 116.453 264.643 115.89C264.932 115.761 265.219 115.629 265.506 115.496C266.758 114.915 268.245 115.458 268.827 116.711ZM201.181 121.055C201.466 119.704 202.793 118.841 204.144 119.126C204.465 119.194 204.786 119.261 205.107 119.327C206.459 119.605 207.33 120.927 207.052 122.28C206.774 123.632 205.452 124.503 204.1 124.225C203.77 124.157 203.44 124.088 203.109 124.018C201.758 123.732 200.895 122.405 201.181 121.055ZM254.056 122.219C254.352 123.568 253.498 124.901 252.149 125.196C251.816 125.27 251.481 125.341 251.145 125.41C249.793 125.689 248.471 124.818 248.192 123.466C247.913 122.114 248.783 120.792 250.136 120.513C250.451 120.448 250.765 120.381 251.079 120.312C252.427 120.017 253.76 120.87 254.056 122.219ZM216.744 123.815C216.89 122.441 218.121 121.446 219.494 121.591C219.813 121.625 220.131 121.658 220.449 121.689C221.823 121.824 222.828 123.048 222.692 124.422C222.557 125.796 221.334 126.8 219.96 126.665C219.629 126.632 219.299 126.599 218.968 126.564C217.595 126.418 216.599 125.188 216.744 123.815ZM238.483 124.599C238.536 125.978 237.461 127.14 236.081 127.193C235.743 127.206 235.405 127.218 235.066 127.228C233.686 127.267 232.535 126.181 232.495 124.801C232.455 123.421 233.541 122.27 234.921 122.23C235.244 122.22 235.566 122.209 235.888 122.197C237.268 122.144 238.429 123.219 238.483 124.599Z" fill="black"/>
</svg>
