<svg width="337" height="128" viewBox="0 0 337 128" fill="none" xmlns="http://www.w3.org/2000/svg">
<path fill-rule="evenodd" clip-rule="evenodd" d="M-146.125 4.10028L-146.483 3.77666L-143.129 0.0686035L-142.774 0.389479C-141.75 1.31486 -141.669 2.89573 -142.594 3.92044C-143.52 4.94514 -145.101 5.02566 -146.125 4.10028ZM-135.276 10.371C-134.375 9.325 -132.796 9.20761 -131.75 10.1088C-131.502 10.3228 -131.253 10.5371 -131.003 10.7517C-129.956 11.6514 -129.836 13.2298 -130.736 14.2771C-131.635 15.3245 -133.214 15.4442 -134.261 14.5445C-134.513 14.3283 -134.764 14.1124 -135.014 13.8968C-136.06 12.9956 -136.177 11.4171 -135.276 10.371ZM246.438 20.0717C246.46 18.6911 247.596 17.5895 248.977 17.6111C249.308 17.6163 249.638 17.623 249.969 17.6312C251.349 17.6653 252.441 18.8119 252.407 20.1922C252.372 21.5725 251.226 22.6637 249.846 22.6296C249.53 22.6218 249.214 22.6155 248.898 22.6105C247.518 22.5889 246.416 21.4522 246.438 20.0717ZM236.941 20.5862C237.117 21.9557 236.149 23.2082 234.779 23.3837C234.468 23.4236 234.158 23.465 233.847 23.508C232.479 23.6972 231.217 22.7419 231.028 21.3742C230.838 20.0066 231.794 18.7444 233.161 18.5552C233.489 18.5099 233.816 18.4663 234.144 18.4243C235.513 18.2488 236.766 19.2166 236.941 20.5862ZM261.885 21.0498C262.094 19.6849 263.37 18.7477 264.735 18.9565C265.06 19.0062 265.385 19.0573 265.71 19.1096C267.073 19.3292 268 20.6122 267.781 21.9753C267.561 23.3385 266.278 24.2655 264.915 24.046C264.603 23.9958 264.291 23.9468 263.979 23.899C262.614 23.6902 261.677 22.4146 261.885 21.0498ZM-123.192 20.617C-122.315 19.5508 -120.739 19.3976 -119.673 20.2748C-119.421 20.482 -119.169 20.6894 -118.916 20.8968C-117.849 21.7726 -117.693 23.3479 -118.569 24.4153C-119.445 25.4827 -121.02 25.638 -122.087 24.7622C-122.342 24.5533 -122.596 24.3445 -122.85 24.1359C-123.916 23.2587 -124.069 21.6832 -123.192 20.617ZM221.733 23.3948C222.132 24.7169 221.383 26.1114 220.061 26.5097C219.76 26.6003 219.459 26.6927 219.159 26.7867C217.841 27.199 216.438 26.4649 216.026 25.1472C215.614 23.8295 216.348 22.427 217.666 22.0148C217.983 21.9155 218.301 21.818 218.618 21.7222C219.94 21.324 221.335 22.0728 221.733 23.3948ZM277.071 24.0237C277.44 22.6933 278.818 21.9143 280.149 22.2837C280.465 22.3716 280.781 22.4605 281.096 22.5505C282.424 22.9291 283.194 24.3124 282.815 25.6402C282.436 26.968 281.053 27.7374 279.725 27.3588C279.421 27.272 279.116 27.1862 278.811 27.1014C277.481 26.732 276.702 25.3541 277.071 24.0237ZM291.83 28.7106C292.337 27.4264 293.79 26.7966 295.074 27.3038C295.379 27.4243 295.683 27.5457 295.987 27.6678C297.268 28.183 297.889 29.6391 297.374 30.9201C296.858 32.2011 295.402 32.8219 294.121 32.3067C293.827 32.1884 293.532 32.0709 293.237 31.9542C291.953 31.447 291.323 29.9948 291.83 28.7106ZM207.197 28.7C207.812 29.9364 207.308 31.4369 206.072 32.0515C205.788 32.1925 205.505 32.3352 205.222 32.4797C203.992 33.1073 202.486 32.6191 201.858 31.3893C201.231 30.1594 201.719 28.6537 202.949 28.0261C203.248 27.8736 203.547 27.723 203.846 27.5743C205.082 26.9596 206.583 27.4636 207.197 28.7ZM-110.948 30.54C-110.094 29.4551 -108.522 29.2681 -107.438 30.1222C-107.181 30.3243 -106.924 30.5263 -106.666 30.7285C-105.58 31.5812 -105.391 33.1527 -106.244 34.2387C-107.097 35.3247 -108.668 35.5138 -109.754 34.6611C-110.013 34.4576 -110.272 34.2541 -110.531 34.0507C-111.615 33.1966 -111.802 31.6248 -110.948 30.54ZM306.023 34.8661C306.651 33.6366 308.157 33.149 309.387 33.7772C309.681 33.9278 309.975 34.0789 310.268 34.2307C311.494 34.8661 311.972 36.3749 311.337 37.6007C310.701 38.8265 309.193 39.3052 307.967 38.6698C307.77 38.5677 307.573 38.4659 307.375 38.3644C307.287 38.3195 307.2 38.2746 307.112 38.2298C305.882 37.6016 305.395 36.0957 306.023 34.8661ZM193.739 36.351C194.543 37.473 194.286 39.0349 193.164 39.8396C192.912 40.0206 192.659 40.2033 192.407 40.3877C191.293 41.2029 189.729 40.9604 188.914 39.8461C188.098 38.7318 188.341 37.1675 189.455 36.3523C189.72 36.1587 189.985 35.9667 190.25 35.7764C191.372 34.9718 192.934 35.229 193.739 36.351ZM-98.4649 40.2219C-97.6342 39.1191 -96.0667 38.8985 -94.9639 39.7293C-94.701 39.9273 -94.4377 40.1254 -94.1741 40.3234C-93.0701 41.1526 -92.8474 42.7198 -93.6767 43.8238C-94.5059 44.9277 -96.0731 45.1504 -97.177 44.3211C-97.4425 44.1218 -97.7076 43.9224 -97.9723 43.723C-99.0751 42.8922 -99.2957 41.3248 -98.4649 40.2219ZM319.587 42.3453C320.327 41.18 321.872 40.8358 323.038 41.5763C323.311 41.7502 323.583 41.9242 323.854 42.0986C325.015 42.846 325.35 44.3931 324.603 45.554C323.855 46.7149 322.308 47.05 321.147 46.3025C320.885 46.1335 320.621 45.9648 320.356 45.7962C319.19 45.0557 318.846 43.5106 319.587 42.3453ZM181.637 45.9876C182.594 46.9826 182.564 48.5652 181.569 49.5224C181.342 49.7399 181.117 49.959 180.891 50.1795C179.904 51.145 178.321 51.1274 177.356 50.1403C176.39 49.1533 176.408 47.5704 177.395 46.605C177.63 46.3748 177.866 46.1461 178.102 45.919C179.097 44.9618 180.68 44.9925 181.637 45.9876ZM-85.7624 49.6438C-84.9559 48.523 -83.3937 48.2683 -82.2729 49.0747C-82.0079 49.2654 -81.7426 49.4561 -81.477 49.6467C-80.3551 50.4515 -80.0982 52.0135 -80.9031 53.1353C-81.708 54.2571 -83.2699 54.5141 -84.3917 53.7092C-84.6592 53.5173 -84.9264 53.3253 -85.1933 53.1332C-86.3141 52.3268 -86.5688 50.7645 -85.7624 49.6438ZM332.364 51.0771C333.221 49.9945 334.793 49.8116 335.875 50.6686C336.002 50.7684 336.127 50.8682 336.252 50.968L333.135 54.8773C333.015 54.7812 332.894 54.6851 332.772 54.5889C331.69 53.732 331.507 52.1597 332.364 51.0771ZM170.981 57.1682C172.053 58.038 172.217 59.6124 171.348 60.6846C171.146 60.9338 170.944 61.1844 170.742 61.4364C169.88 62.5148 168.307 62.6902 167.228 61.8281C166.15 60.9659 165.975 59.3927 166.837 58.3143C167.046 58.053 167.255 57.7931 167.465 57.5347C168.334 56.4624 169.909 56.2983 170.981 57.1682ZM-72.8822 58.7627C-72.1015 57.6238 -70.5455 57.3335 -69.4067 58.1142C-69.1368 58.2992 -68.8668 58.484 -68.5965 58.6687C-67.4566 59.4477 -67.1639 61.0033 -67.9429 62.1433C-68.722 63.2833 -70.2776 63.5759 -71.4175 62.7969C-71.6898 62.6108 -71.9619 62.4246 -72.2338 62.2382C-73.3726 61.4575 -73.6629 59.9015 -72.8822 58.7627ZM-59.783 67.586C-59.0303 66.4285 -57.4818 66.1003 -56.3243 66.8531C-56.1649 66.9567 -56.0055 67.0603 -55.846 67.1638C-55.7305 67.2387 -55.6151 67.3136 -55.4996 67.3884C-54.3409 68.1393 -54.0103 69.6873 -54.7612 70.846C-55.512 72.0047 -57.0601 72.3353 -58.2187 71.5844C-58.496 71.4047 -58.7732 71.2248 -59.0501 71.0447C-60.2076 70.292 -60.5357 68.7435 -59.783 67.586ZM161.691 69.5176C162.847 70.272 163.173 71.8211 162.418 72.9774C162.246 73.2423 162.073 73.5084 161.901 73.7758C161.153 74.9366 159.606 75.2715 158.445 74.5239C157.285 73.7762 156.95 72.2292 157.697 71.0684C157.875 70.7928 158.053 70.5185 158.231 70.2455C158.985 69.0891 160.534 68.7632 161.691 69.5176ZM-46.4652 76.0798C-45.7434 74.9028 -44.2041 74.5338 -43.0271 75.2556C-42.748 75.4268 -42.4687 75.5977 -42.1893 75.7683C-41.011 76.4881 -40.6393 78.0267 -41.3591 79.205C-42.0788 80.3833 -43.6175 80.755 -44.7958 80.0352C-45.0776 79.8631 -45.3594 79.6906 -45.641 79.5179C-46.818 78.7961 -47.187 77.2568 -46.4652 76.0798ZM153.607 82.78C154.825 83.4316 155.283 84.9466 154.632 86.1639C154.597 86.2293 154.562 86.2947 154.527 86.3602C154.485 86.439 154.443 86.5178 154.401 86.5968C154.359 86.6748 154.318 86.7527 154.276 86.8305C154.235 86.9067 154.194 86.9827 154.153 87.0587C153.498 88.2741 151.982 88.7285 150.767 88.0735C149.551 87.4185 149.097 85.9022 149.752 84.6867C149.83 84.5411 149.909 84.395 149.987 84.2485C150.065 84.1002 150.144 83.9521 150.223 83.8044C150.875 82.5871 152.39 82.1285 153.607 82.78ZM-32.9252 84.2028C-32.2381 83.0052 -30.7103 82.5912 -29.5127 83.2783C-29.2276 83.4418 -28.9426 83.6049 -28.6574 83.7678C-27.4584 84.4525 -27.0415 85.9795 -27.7262 87.1785C-28.4109 88.3775 -29.9379 88.7944 -31.1369 88.1097C-31.4249 87.9452 -31.7128 87.7804 -32.0006 87.6153C-33.1983 86.9283 -33.6122 85.4005 -32.9252 84.2028ZM-19.1316 91.9163C-18.4845 90.6967 -16.9711 90.2326 -15.7515 90.8797C-15.4618 91.0334 -15.172 91.1867 -14.8823 91.3397C-13.6612 91.9841 -13.1937 93.4964 -13.8382 94.7175C-14.4826 95.9386 -15.9949 96.4061 -17.216 95.7616C-17.399 95.665 -17.582 95.5683 -17.765 95.4714C-17.875 95.4131 -17.985 95.3548 -18.095 95.2965C-19.3147 94.6493 -19.7788 93.136 -19.1316 91.9163ZM145.383 96.3376C146.464 97.1955 146.646 98.768 145.788 99.8498C145.577 100.116 145.365 100.379 145.152 100.641C144.28 101.712 142.705 101.873 141.635 101.001C140.564 100.129 140.403 98.5539 141.275 97.4834C141.475 97.2386 141.673 96.9918 141.87 96.7429C142.728 95.6611 144.301 95.4797 145.383 96.3376ZM-5.08551 99.1462C-4.48492 97.903 -2.9902 97.382 -1.74696 97.9826C-1.45305 98.1246 -1.15916 98.2661 -0.865311 98.4071C0.379471 99.0045 0.904251 100.498 0.306854 101.743C-0.290558 102.987 -1.78395 103.512 -3.02873 102.915C-3.32643 102.772 -3.62413 102.629 -3.92186 102.485C-5.1651 101.884 -5.6861 100.389 -5.08551 99.1462ZM9.21739 105.802C9.76257 104.534 11.2329 103.947 12.5014 104.493C12.7989 104.62 13.0962 104.748 13.3935 104.874C14.6637 105.416 15.2545 106.884 14.7131 108.155C14.1717 109.425 12.7031 110.015 11.433 109.474C11.1311 109.345 10.8291 109.216 10.5271 109.086C9.25859 108.541 8.67221 107.071 9.21739 105.802ZM134.72 107.905C135.583 108.982 135.409 110.556 134.331 111.419C134.063 111.633 133.793 111.846 133.522 112.056C132.432 112.903 130.861 112.705 130.015 111.614C129.168 110.524 129.366 108.953 130.456 108.107C130.707 107.912 130.957 107.715 131.206 107.515C132.284 106.653 133.857 106.827 134.72 107.905ZM23.8463 111.793C24.3239 110.498 25.7612 109.835 27.0567 110.313C27.3645 110.426 27.6722 110.539 27.9797 110.651C29.2769 111.124 29.9453 112.559 29.4724 113.856C28.9996 115.153 27.5647 115.821 26.2675 115.349C25.9542 115.234 25.6408 115.119 25.3273 115.004C24.0318 114.526 23.3687 113.089 23.8463 111.793ZM38.7791 116.947C39.1724 115.624 40.5641 114.87 41.8876 115.263C42.1979 115.355 42.5078 115.447 42.8176 115.537C44.1428 115.924 44.9031 117.313 44.5157 118.638C44.1284 119.963 42.74 120.724 41.4147 120.336C41.0978 120.244 40.7807 120.15 40.4633 120.056C39.1398 119.662 38.3857 118.271 38.7791 116.947ZM121.655 116.704C122.236 117.956 121.693 119.443 120.44 120.024C120.132 120.168 119.822 120.309 119.511 120.448C118.25 121.011 116.772 120.446 116.208 119.185C115.645 117.924 116.21 116.446 117.471 115.883C117.76 115.754 118.048 115.623 118.334 115.489C119.587 114.908 121.073 115.451 121.655 116.704ZM54.0088 121.048C54.2946 119.697 55.6214 118.834 56.9722 119.119C57.2935 119.187 57.6145 119.254 57.9352 119.32C59.2876 119.598 60.1585 120.92 59.8805 122.273C59.6024 123.625 58.2806 124.496 56.9282 124.218C56.5981 124.15 56.2677 124.081 55.937 124.011C54.5862 123.725 53.7229 122.398 54.0088 121.048ZM106.884 122.212C107.18 123.561 106.326 124.894 104.978 125.189C104.644 125.263 104.309 125.334 103.973 125.403C102.621 125.682 101.299 124.812 101.02 123.459C100.741 122.107 101.611 120.785 102.964 120.506C103.279 120.441 103.593 120.374 103.907 120.305C105.256 120.01 106.589 120.863 106.884 122.212ZM69.5726 123.808C69.7179 122.435 70.9487 121.439 72.3218 121.584C72.6408 121.618 72.9594 121.651 73.2774 121.682C74.6515 121.817 75.6557 123.041 75.5205 124.415C75.3853 125.789 74.1618 126.793 72.7877 126.658C72.4574 126.626 72.1268 126.592 71.7957 126.557C70.4226 126.411 69.4273 125.181 69.5726 123.808ZM91.3107 124.592C91.3639 125.971 90.2887 127.133 88.909 127.186C88.5712 127.199 88.2329 127.211 87.894 127.221C86.5138 127.26 85.3627 126.174 85.3228 124.794C85.2829 123.414 86.3694 122.263 87.7495 122.223C88.0724 122.213 88.3946 122.202 88.7161 122.19C90.0957 122.137 91.2574 123.212 91.3107 124.592Z" fill="black"/>
</svg>
