<svg width="55" height="55" viewBox="0 0 55 55" fill="none" xmlns="http://www.w3.org/2000/svg">
<path fill-rule="evenodd" clip-rule="evenodd" d="M20.9874 4.11736C17.5713 6.38192 12.2482 9.91072 9.15853 11.9591L3.54102 15.6835H2.19957C0.723777 15.6835 0.358212 15.7877 0.137949 16.2714C-0.0598691 16.7057 -0.0390349 21.1861 0.162649 21.5762C0.418674 22.0714 0.704983 22.1288 2.91427 22.1288H4.94969V23.853C4.94969 26.1834 5.09177 26.4257 6.45824 26.4257H7.09755V33.1933V39.9608H6.44782C5.69779 39.9608 5.26016 40.1486 5.07802 40.5486C4.99565 40.7294 4.94969 41.4441 4.94969 42.544V44.2577H4.13887C3.2227 44.2577 2.80215 44.4191 2.60799 44.8455C2.52562 45.0263 2.47965 45.741 2.47965 46.8409V48.5546H1.66883C0.752666 48.5546 0.332115 48.716 0.137949 49.1424C-0.0401088 49.5333 -0.0401088 54.0211 0.137949 54.412C0.417278 55.0254 -0.0938053 54.9998 11.8765 54.9998C23.8469 54.9998 23.3358 55.0254 23.6151 54.412C23.8662 53.8609 23.6851 53.2602 23.1909 53.0045C22.9408 52.8752 21.2903 52.8514 12.5263 52.8514H2.15747V51.7772V50.703H27.5022H52.8469V51.7772V52.8514H42.4781C31.2152 52.8514 31.668 52.8275 31.3893 53.4392C31.227 53.7954 31.227 54.0558 31.3893 54.412C31.6686 55.0254 31.1575 54.9998 43.1279 54.9998C55.0982 54.9998 54.5871 55.0254 54.8665 54.412C55.0445 54.0211 55.0445 49.5333 54.8665 49.1424C54.6723 48.716 54.2517 48.5546 53.3356 48.5546H52.5248V46.8409C52.5248 45.741 52.4788 45.0263 52.3964 44.8455C52.2023 44.4191 51.7817 44.2577 50.8655 44.2577H50.0547V42.544C50.0547 41.4441 50.0088 40.7294 49.9264 40.5486C49.7442 40.1486 49.3066 39.9608 48.5566 39.9608H47.9069V33.1933V26.4257H48.5566C49.3066 26.4257 49.7442 26.2379 49.9264 25.8379C50.0088 25.6571 50.0547 24.9424 50.0547 23.8425V22.1288H52.1006C54.329 22.1288 54.6276 22.0654 54.8665 21.541C55.0445 21.1501 55.0445 16.6623 54.8665 16.2714C54.6462 15.7876 54.2807 15.6835 52.8035 15.6835H51.4608L44.0726 10.7777C28.83 0.656561 27.8205 0 27.5026 0C27.2823 0 25.4898 1.13276 20.9874 4.11736ZM37.41 8.93189C42.8584 12.5447 47.3621 15.5418 47.4182 15.592C47.4745 15.6426 45.1771 15.6835 42.2902 15.6835H37.0602V15.4322C37.0602 14.9577 36.6269 13.481 36.2613 12.7089C35.0055 10.0576 32.7472 8.16608 29.9185 7.39662C29.221 7.20691 28.7664 7.16298 27.5022 7.16298C26.238 7.16298 25.7834 7.20691 25.0859 7.39662C22.2631 8.16447 19.9962 10.0631 18.7431 12.7089C18.3775 13.481 17.9442 14.9577 17.9442 15.4322V15.6835H12.7142C9.83768 15.6835 7.53013 15.6433 7.58619 15.5941C7.64235 15.5448 10.4912 13.6479 13.917 11.3787C17.3428 9.10956 21.7889 6.15622 23.7971 4.81571C25.8054 3.4753 27.461 2.37509 27.4761 2.3709C27.4914 2.36671 31.9616 5.31919 37.41 8.93189ZM26.4283 10.462C26.4283 11.5418 26.4201 11.5803 26.1777 11.6412C25.7442 11.75 24.9516 12.5459 24.6355 13.1899C24.033 14.4169 24.3179 15.9476 25.3208 16.8723C25.9067 17.4125 26.4961 17.6775 27.3325 17.7767C27.8277 17.8353 28.0355 17.9192 28.2722 18.156C28.6687 18.5527 28.6829 19.0851 28.3088 19.5298C27.8148 20.1169 27.0969 20.045 26.3746 19.3359C25.6922 18.666 25.0648 18.5806 24.5572 19.0884C24.3435 19.3022 24.2804 19.4731 24.2804 19.839C24.2804 20.2627 24.3357 20.3683 24.8033 20.836C25.0909 21.1237 25.5742 21.4847 25.8772 21.6384L26.4283 21.9177V23.0557V24.1938L26.0288 24.1188C24.2122 23.7779 22.1759 22.3841 21.1936 20.809C19.7305 18.4632 19.598 15.9189 20.8089 13.4277C21.2238 12.5743 21.4564 12.2558 22.2289 11.4834C22.9639 10.7485 23.3394 10.4676 24.0657 10.1094C24.9249 9.68588 25.8155 9.37704 26.2403 9.35524C26.4079 9.34675 26.4283 9.46674 26.4283 10.462ZM29.4735 9.51605C31.4153 10.0176 33.2944 11.5742 34.1955 13.4277C34.7339 14.5355 35.0197 15.69 35.0197 16.7578C35.0197 17.8255 34.7339 18.98 34.1955 20.0878C33.2138 22.1073 31.1333 23.714 28.9756 24.1188L28.5761 24.1938V23.0561V21.9184L29.0101 21.6969C30.3781 20.9989 31.058 19.2806 30.553 17.798C30.348 17.1962 29.5631 16.2903 28.9957 16.0007C28.7702 15.8856 28.2657 15.7461 27.8745 15.6907C27.0445 15.5731 26.7277 15.3954 26.54 14.942C26.2494 14.2402 26.7484 13.5351 27.5356 13.5351C27.913 13.5351 28.1104 13.6131 28.5148 13.9219C29.1108 14.3772 29.6093 14.4397 30.0456 14.1138C30.8784 13.4918 30.5314 12.524 29.226 11.828L28.5761 11.4815V10.4136C28.5761 9.70522 28.6161 9.34568 28.6949 9.34568C28.7602 9.34568 29.1105 9.42238 29.4735 9.51605ZM18.0667 18.7185C18.1635 19.2058 18.2775 19.689 18.3198 19.7924C18.3927 19.9705 17.9679 19.9804 10.2771 19.9804H2.15747V18.9062V17.832L10.024 17.8323L17.8905 17.8327L18.0667 18.7185ZM52.8469 18.9062V19.9804H44.7273C37.0365 19.9804 36.6117 19.9705 36.6846 19.7924C36.7269 19.689 36.8409 19.2058 36.9377 18.7185L37.1139 17.8327L44.9804 17.8323L52.8469 17.832V18.9062ZM15.689 23.2031V24.2773H11.3933H7.09755V23.2031V22.1288H11.3933H15.689V23.2031ZM19.7004 22.4534C20.0339 23.018 21.3334 24.2506 22.1734 24.7991C23.8969 25.9246 25.3844 26.3604 27.5022 26.3604C29.62 26.3604 31.1075 25.9246 32.831 24.7991C33.671 24.2506 34.9705 23.018 35.304 22.4534C35.4911 22.1365 35.5153 22.1288 36.3316 22.1288H37.1676V23.8425C37.1676 24.9424 37.2135 25.6571 37.2959 25.8379C37.478 26.2379 37.9157 26.4257 38.6657 26.4257H39.3154V33.1933V39.9608H38.6657C37.9157 39.9608 37.478 40.1486 37.2959 40.5486C37.2135 40.7294 37.1676 41.4441 37.1676 42.544V44.2577H36.0936H35.0197V39.8489C35.0197 34.7438 34.9761 34.3673 34.2018 32.7808C33.1767 30.6807 31.2034 29.1628 28.9334 28.7283C27.2494 28.406 25.7569 28.6145 24.173 29.3932C23.3262 29.8096 22.9957 30.0519 22.2289 30.8189C21.4621 31.5859 21.2198 31.9166 20.8036 32.7636C20.0293 34.3393 19.9847 34.7259 19.9847 39.8629V44.2577H18.9108H17.8368V42.544C17.8368 41.4441 17.7909 40.7294 17.7085 40.5486C17.5264 40.1486 17.0887 39.9608 16.3387 39.9608H15.689V33.1933V26.4257H16.3387C17.0887 26.4257 17.5264 26.2379 17.7085 25.8379C17.7909 25.6571 17.8368 24.9424 17.8368 23.8425V22.1288H18.6728C19.4891 22.1288 19.5134 22.1365 19.7004 22.4534ZM47.9069 23.2031V24.2773H43.6111H39.3154V23.2031V22.1288H43.6111H47.9069V23.2031ZM13.5411 33.1933V39.9608H11.3933H9.24541V33.1933V26.4257H11.3933H13.5411V33.1933ZM45.759 33.1933V39.9608H43.6111H41.4633V33.1933V26.4257H43.6111H45.759V33.1933ZM28.5977 30.8413C30.6103 31.2611 32.3335 32.9848 32.7532 34.9978C32.8285 35.3591 32.8718 37.1551 32.8718 39.9124V44.2577H27.5022H22.1326V39.9124C22.1326 37.1551 22.1759 35.3591 22.2512 34.9978C22.6592 33.0412 24.3018 31.348 26.2509 30.8751C26.9583 30.7035 27.8738 30.6902 28.5977 30.8413ZM15.689 43.1835V44.2577H11.3933H7.09755V43.1835V42.1093H11.3933H15.689V43.1835ZM47.9069 43.1835V44.2577H43.6111H39.3154V43.1835V42.1093H43.6111H47.9069V43.1835ZM50.3769 47.4803V48.5546H27.5022H4.62751V47.4803V46.4061H27.5022H50.3769V47.4803ZM26.9771 53.0014C26.0461 53.5175 26.4356 54.9998 27.5022 54.9998C28.0464 54.9998 28.5761 54.4751 28.5761 53.9361C28.5761 53.1295 27.6851 52.6087 26.9771 53.0014Z" fill="#C11B17"/>
</svg>
