<svg width="55" height="55" viewBox="0 0 55 55" fill="none" xmlns="http://www.w3.org/2000/svg">
<path fill-rule="evenodd" clip-rule="evenodd" d="M24.8073 0.12146C22.3838 0.346923 19.0897 1.19513 16.7653 2.19212C6.38392 6.64523 -0.286804 16.9888 0.00948163 28.1734C0.049483 29.685 0.0536093 29.7054 0.371557 29.9787C0.761141 30.3135 1.12688 30.3302 1.50764 30.0307C1.79189 29.8071 1.79315 29.7976 1.85963 27.3084C1.94766 24.0142 2.28395 21.9926 3.20272 19.2359C5.30182 12.9371 10.2824 7.31107 16.3256 4.41249C18.6983 3.27439 21.1021 2.52751 23.7757 2.09756C25.5311 1.81524 29.3471 1.81375 31.1685 2.09458C36.0475 2.84674 40.3803 4.80713 44.044 7.92006C46.0889 9.65763 46.0587 9.65431 47.4467 8.29591C47.9992 7.75524 48.475 7.35543 48.5041 7.40758C48.6367 7.64554 50.5611 15.5993 50.5007 15.6598C50.4401 15.7202 42.4867 13.7956 42.2487 13.663C42.1965 13.6339 42.6183 13.1362 43.1861 12.5573C44.2735 11.4483 44.4681 11.0846 44.2159 10.6326C43.9139 10.0922 42.1141 8.58396 40.5098 7.52725C37.08 5.26815 32.8888 3.91731 28.6421 3.7024L27.1806 3.62835L26.8822 3.92683C26.4927 4.31632 26.4858 4.83579 26.8652 5.21508C27.1008 5.45074 27.2573 5.49648 27.8273 5.49648C29.7101 5.49648 32.3623 5.94373 34.3778 6.60121C36.736 7.37045 39.9624 9.16155 41.5414 10.5779L42.1145 11.092L40.7677 12.4599C39.3047 13.9459 39.1961 14.1709 39.6788 14.7149C39.906 14.971 40.6497 15.1828 45.933 16.497C51.5734 17.8999 51.9485 17.9786 52.2532 17.821C52.9313 17.4702 52.9374 17.5145 51.3269 11.0439C50.023 5.80504 49.8117 5.06458 49.5559 4.83739C48.9779 4.32446 48.6738 4.46842 47.1433 5.97984L45.9827 7.12596L45.0802 6.36131C43.8215 5.29485 41.5564 3.80051 39.994 3.00583C35.3199 0.628552 30.0721 -0.368209 24.8073 0.12146ZM23.0753 3.93095C22.8523 4.12272 22.7633 4.30784 22.7633 4.57949C22.7633 5.39263 23.8763 5.80745 24.4686 5.21508C25.346 4.33775 24.0216 3.11702 23.0753 3.93095ZM25.8961 12.9038C24.9328 13.0264 23.5885 13.3431 22.6868 13.6597C21.4623 14.0898 19.5897 15.0427 19.1353 15.4672C18.6953 15.8782 18.6704 16.3913 19.0712 16.792C19.4165 17.1374 19.8736 17.1536 20.3372 16.8372C20.5263 16.7081 21.1324 16.3727 21.6839 16.0918C26.6696 13.5528 32.5969 14.4928 36.5541 18.4502C40.4471 22.3435 41.4263 28.1337 39.0259 33.067C35.1305 41.0726 24.6976 42.8081 18.3908 36.4997C14.9831 33.091 13.7993 27.9567 15.3615 23.3617C15.7078 22.3431 16.536 20.7609 17.1986 19.8519C17.5065 19.4297 17.7583 18.9631 17.7583 18.815C17.7583 18.5071 17.1813 17.8758 16.8999 17.8758C16.4141 17.8758 16.1797 18.1026 15.3014 19.4232C13.5445 22.0648 12.7148 25.0594 12.8722 28.1918C13.062 31.9705 14.4739 35.1383 17.1704 37.8349C19.2981 39.9627 21.6908 41.2658 24.6353 41.9006C25.9976 42.1943 29.004 42.1943 30.3662 41.9006C33.3107 41.2658 35.7035 39.9627 37.8311 37.8349C39.9587 35.7072 41.2618 33.3143 41.8966 30.3697C42.1902 29.0074 42.1902 26.0008 41.8966 24.6385C41.2618 21.6939 39.9587 19.301 37.8311 17.1732C35.7432 15.0853 33.4507 13.815 30.5954 13.1641C29.6386 12.9459 26.8001 12.7887 25.8961 12.9038ZM25.0313 18.6157C24.8003 18.8466 24.75 19.0105 24.75 19.5326V20.1682H23.6559C22.6471 20.1682 22.5399 20.1901 22.2805 20.4496C21.9082 20.8218 21.9082 21.3486 22.2805 21.7208C22.4353 21.8755 22.6416 22.0022 22.739 22.0022C22.8962 22.0022 22.9161 22.6181 22.9161 27.5041C22.9161 32.3901 22.8962 33.006 22.739 33.006C22.4303 33.006 21.9991 33.5405 21.9991 33.923C21.9991 34.1463 22.1031 34.3812 22.2805 34.5586C22.5399 34.8181 22.6471 34.84 23.6559 34.84H24.75V35.4755C24.75 36.2404 25.0817 36.6739 25.6669 36.6739C26.2521 36.6739 26.5838 36.2404 26.5838 35.4755V34.84H27.5008H28.4177V35.4755C28.4177 36.2404 28.7494 36.6739 29.3346 36.6739C29.9168 36.6739 30.2516 36.2398 30.2516 35.4851V34.859L30.8272 34.7355C32.649 34.3448 34.0467 32.8699 34.4009 30.9642C34.6588 29.5778 34.1299 28.0338 33.0271 26.9536L32.4066 26.3457L32.6998 25.9219C34.0908 23.9117 33.0963 21.0211 30.7793 20.3397L30.3089 20.2013L30.2511 19.4864C30.2048 18.9153 30.139 18.7278 29.9232 18.553C29.5469 18.2483 29.0404 18.2742 28.6991 18.6157C28.468 18.8466 28.4177 19.0105 28.4177 19.5326V20.1682H27.5008H26.5838V19.5326C26.5838 18.7678 26.2521 18.3343 25.6669 18.3343C25.4436 18.3343 25.2086 18.4382 25.0313 18.6157ZM30.6733 22.2993C31.7982 23.1336 31.7982 24.5385 30.6734 25.373C30.3806 25.5902 30.1507 25.6182 28.2273 25.6701C26.1675 25.7257 26.098 25.7355 25.8857 25.9981C25.5809 26.3749 25.6068 26.8813 25.9483 27.2227C26.2262 27.5008 26.2545 27.5041 28.3266 27.5066C30.1876 27.5088 30.4815 27.5354 30.9393 27.7426C32.0347 28.2385 32.5927 29.0865 32.5927 30.255C32.5927 31.4236 32.0347 32.2716 30.9393 32.7675C30.4656 32.9819 30.1923 33.0012 27.5867 33.0035L24.75 33.006V27.4984V21.9908L27.5499 22.0251C30.1823 22.0574 30.3693 22.0738 30.6733 22.2993ZM53.4932 24.978C53.2086 25.2019 53.2071 25.2134 53.1417 27.643C53.0673 30.403 52.8826 31.811 52.3035 34.0342C49.9857 42.9312 42.9305 49.9868 34.0305 52.3086C31.6059 52.9411 30.1953 53.1154 27.5008 53.1154C24.887 53.1154 23.4539 52.9466 21.1511 52.3674C17.4853 51.4454 13.901 49.5891 10.9575 47.0881C8.90492 45.344 8.90916 45.3445 7.55897 46.7018C7.02681 47.2368 6.55791 47.6366 6.5171 47.5902C6.39171 47.4478 4.4282 39.4212 4.50087 39.3484C4.56139 39.288 12.5148 41.2125 12.7529 41.3452C12.805 41.3743 12.3832 41.872 11.8154 42.4509C10.7263 43.5616 10.5346 43.9213 10.7857 44.3823C11.12 44.9958 13.4328 46.8519 15.1717 47.9024C18.6725 50.0171 23.2817 51.3457 27.1169 51.3457C27.7478 51.3457 27.896 51.3048 28.1363 51.0643C28.5086 50.6921 28.5086 50.1653 28.1363 49.7931C27.8972 49.5539 27.7468 49.5117 27.1327 49.5117C25.2542 49.5117 22.3829 49.0009 20.286 48.2936C19.0467 47.8757 16.7674 46.7618 15.6178 46.0124C14.6674 45.393 13.1361 44.2275 13.015 44.0313C12.9828 43.9791 13.473 43.4242 14.1046 42.7982C15.6496 41.267 15.84 40.8754 15.3227 40.2941C15.0961 40.0393 14.3444 39.8245 9.12006 38.5215C4.12699 37.2763 3.12203 37.0576 2.84236 37.1551C2.46504 37.2866 2.28498 37.5548 2.28498 37.9853C2.28498 38.1476 2.9391 40.8964 3.73855 44.0939C5.29242 50.3091 5.33551 50.4287 6.02242 50.4287C6.26231 50.4287 6.61888 50.1455 7.60963 49.1678C8.31247 48.4744 8.92487 47.907 8.97048 47.907C9.01622 47.907 9.52924 48.3032 10.1107 48.7875C12.0878 50.4344 14.9418 52.1282 17.2966 53.0525C26.6406 56.7199 36.9826 55.1443 44.8078 48.8611C51.3383 43.6177 55.2831 35.0574 54.9841 26.7784C54.9319 25.3297 54.9217 25.2806 54.6194 25.0207C54.2397 24.6941 53.8718 24.6801 53.4932 24.978ZM30.4108 49.7802C30.1878 49.9719 30.0988 50.157 30.0988 50.4287C30.0988 51.2418 31.2118 51.6566 31.8041 51.0643C32.6815 50.1869 31.3571 48.9662 30.4108 49.7802Z" fill="#C11B17"/>
</svg>
