<svg width="85" height="85" viewBox="0 0 85 85" fill="none" xmlns="http://www.w3.org/2000/svg">
<path fill-rule="evenodd" clip-rule="evenodd" d="M39.2992 0.257567C36.526 0.728193 33.7505 1.83593 31.4292 3.39845C29.8876 4.43629 27.3821 6.9205 26.3045 8.47965C24.6185 10.9189 23.369 14.1498 22.9521 17.1469C22.0098 23.9232 24.9699 31.1288 30.408 35.297C32.0471 36.5534 31.9714 36.5415 33.5494 35.7913C34.8137 35.1904 35.1071 35.123 36.7228 35.0629C38.2799 35.0051 38.6775 35.0553 39.8929 35.4633L41.2826 35.93L42.4692 35.5065C45.0971 34.5688 46.8873 34.7312 49.9124 36.1822L51.9014 37.1361L53.2797 36.2309C57.9992 33.132 61.2656 27.9527 62.0479 22.3284C62.7053 17.6007 61.4646 12.4862 58.6847 8.464C57.6277 6.93455 55.1101 4.43451 53.614 3.42851C49.4126 0.603511 44.1417 -0.564162 39.2992 0.257567ZM38.6512 9.73999C40.141 10.551 40.8996 11.893 40.8996 13.7174C40.8996 15.1111 40.4408 16.1057 39.3582 17.0589C38.3387 17.9566 37.6079 18.1921 36.1053 18.107C34.5166 18.0174 33.3958 17.3543 32.6059 16.0369C30.1807 11.9919 34.5079 7.48451 38.6512 9.73999ZM51.1003 11.1355C51.5994 11.6348 51.6926 12.2242 51.3725 12.8572C51.0932 13.4098 36.2866 28.2454 35.7071 28.5535C34.9942 28.9323 34.425 28.8651 33.8997 28.3399C33.3746 27.8145 33.3074 27.2451 33.6861 26.5321C33.9731 25.9919 48.7923 11.1714 49.3462 10.8707C49.9532 10.5411 50.6042 10.6394 51.1003 11.1355ZM35.7228 12.3564C35.0826 12.7043 34.7812 13.4771 35.0303 14.1323C35.291 14.818 35.7078 15.1008 36.4675 15.1075C37.2976 15.115 37.8787 14.5233 37.8709 13.679C37.8641 12.9495 37.5759 12.525 36.9169 12.2744C36.3146 12.0453 36.292 12.0469 35.7228 12.3564ZM50.2759 21.6108C51.3226 22.0481 51.9866 22.6523 52.5432 23.6738C52.9696 24.4562 53.0629 24.8379 53.0594 25.785C53.0496 28.4067 51.1593 30.2956 48.546 30.2956C46.7472 30.2956 45.1731 29.2856 44.4331 27.6565C43.9994 26.7016 43.9991 24.8689 44.4322 23.9175C44.7971 23.116 45.9896 21.9619 46.8309 21.5958C47.5856 21.2673 49.4739 21.2755 50.2759 21.6108ZM47.51 24.7737C47.0719 25.2404 46.9984 26.2279 47.3658 26.7119C48.3488 28.0058 50.5122 26.9127 49.9816 25.3902C49.7319 24.6737 49.308 24.3748 48.5325 24.3678C48.0928 24.3639 47.7775 24.4891 47.51 24.7737ZM29.7841 41.0368L23.7938 44.016L15.72 44.0704L7.64644 44.1249V52.454V60.7832L8.66893 60.9063C10.9785 61.1845 14.4192 62.0642 16.9383 63.0205L18.1391 63.4766L19.4897 61.7972C20.636 60.3718 21.0126 60.033 21.9821 59.5556C24.1491 58.4884 26.5403 58.9058 28.1554 60.6329C28.5863 61.0936 29.0446 61.763 29.1738 62.1205C29.3835 62.7006 29.4577 62.7566 29.8638 62.642C30.1142 62.5716 30.7992 62.5188 31.386 62.525C34.0148 62.5526 36.2034 64.5663 36.4108 67.148C36.4963 68.2145 36.5376 68.3072 36.9675 68.3984C39.5479 68.9455 41.3408 70.8816 41.4798 73.2708L41.5365 74.2455L42.2683 74.3703C45.1307 74.8591 47.1314 78.016 46.3695 80.8414L46.1276 81.7385L47.8747 83.2799C49.8765 85.0459 50.5108 85.2963 51.5463 84.7287C52.9463 83.9614 53.2829 82.6275 52.4096 81.3075C51.7988 80.3841 51.7716 79.5279 52.3362 78.9971C52.8734 78.4923 53.7572 78.498 54.4758 79.0106C54.8888 79.3053 55.2863 79.4108 55.9839 79.4108C56.8506 79.4108 56.9829 79.3544 57.5398 78.7465C58.312 77.9038 58.369 76.9259 57.7086 75.8535C57.1604 74.9632 57.1454 74.3161 57.6595 73.7185C58.2078 73.081 59.0049 73.0803 59.9229 73.7165C61.1701 74.5809 62.7881 74.2603 63.3703 73.0332C63.7945 72.1392 63.729 71.4719 63.1308 70.5888C62.4487 69.5819 62.4441 68.9507 63.1139 68.2807C63.7692 67.6252 64.2575 67.6292 65.2437 68.2976C66.1332 68.9003 67.0933 68.9934 67.9347 68.5581C69.0469 67.9829 69.3575 66.2616 68.5272 65.2746C67.6147 64.1896 62.1889 59.9038 52.129 52.3214L45.6651 47.4493L45.1049 47.9797C40.8457 52.0142 37.4676 55.0684 36.8811 55.4151C35.7549 56.081 34.3601 56.276 33.0764 55.9471C30.4618 55.2771 28.9373 53.3802 28.9197 50.7748C28.9055 48.6728 29.2112 48.2205 34.1977 42.9624C36.6028 40.4264 38.5297 38.2854 38.4799 38.2045C38.43 38.1238 37.8008 38.0576 37.0817 38.0576H35.7745L29.7841 41.0368ZM43.1137 38.5745C42.1931 39.0387 41.334 39.8595 37.1566 44.2665C33.7441 47.8666 32.2077 49.613 32.051 50.0701C31.4272 51.8922 33.3065 53.6941 35.047 52.943C35.3808 52.7991 37.4407 51.0117 39.6249 48.9711C41.809 46.9307 43.9222 45.0811 44.3207 44.8609C45.193 44.3792 46.1201 44.3495 46.9525 44.7764C48.0942 45.3621 64.0253 57.47 68.0718 60.8273L69.7263 62.2001L71.1116 61.7972C72.7785 61.3125 75.5253 60.8241 76.5846 60.8241H77.3536V52.4747V44.1252L68.0622 44.0706L58.7709 44.016L52.9493 41.0813L47.1275 38.1465L45.6585 38.0894C44.3147 38.0371 44.0976 38.0784 43.1137 38.5745ZM0 52.2813V63.6699H2.31296H4.6261L4.58022 52.3311L4.53452 40.9923L2.26726 40.9425L0 40.8927V52.2813ZM80.4952 41.0221C80.4299 41.0871 80.3766 46.2096 80.3766 52.4053V63.6699H82.6883H85V52.2867V40.9034H82.8069C81.6005 40.9034 80.5603 40.9568 80.4952 41.0221ZM23.0547 62.4359C22.5757 62.8128 21.216 64.4367 19.5929 66.5709C18.5787 67.904 18.4137 68.7027 18.9413 69.7231C19.4595 70.7254 21.0891 71.1131 22.0908 70.4723C22.7018 70.0814 26.0906 65.7888 26.4304 64.9753C26.7716 64.1583 26.4958 63.1399 25.7674 62.5268C25.0601 61.9315 23.7516 61.8876 23.0547 62.4359ZM30.3066 65.6917C29.9591 65.8486 28.913 67.0081 27.4276 68.8831C25.0042 71.942 24.5397 72.6479 24.5397 73.2713C24.5397 74.4274 25.6526 75.5848 26.7654 75.586C27.7587 75.5873 28.406 75.0028 30.8726 71.8774C33.0919 69.0656 33.315 68.7171 33.3774 67.9644C33.4164 67.4952 33.3467 66.9535 33.2162 66.7107C32.6793 65.7118 31.3186 65.2353 30.3066 65.6917ZM35.4982 71.5836C34.6827 71.8692 34.9553 71.5928 32.7609 74.3586C30.6806 76.9807 30.5858 77.1386 30.5858 77.9851C30.5858 79.3116 31.4873 80.2112 32.8168 80.2112C33.8021 80.2112 34.2632 79.8306 36.0983 77.5023C38.3233 74.6797 38.4536 74.4632 38.4419 73.6103C38.42 72.0295 37.0054 71.0555 35.4982 71.5836ZM39.4887 78.217C38.0999 79.6739 36.6195 81.7501 36.5164 82.3858C36.3928 83.1474 36.8158 84.1815 37.4103 84.571C38.1063 85.0272 39.116 85.0875 39.7809 84.7127C40.5002 84.3072 43.3258 80.7263 43.4798 80.025C43.6402 79.2947 43.286 78.3491 42.6524 77.8159C42.2324 77.4625 41.9214 77.3654 41.2088 77.3654C40.356 77.3654 40.2512 77.4173 39.4887 78.217Z" fill="#CCD3E5"/>
</svg>
