<svg width="92" height="92" viewBox="0 0 92 92" fill="none" xmlns="http://www.w3.org/2000/svg">
<path fill-rule="evenodd" clip-rule="evenodd" d="M18.5985 0.350981C17.9067 0.551458 17.3101 0.744023 17.2729 0.779084C17.1897 0.857297 20.1277 12.4359 20.3027 12.7191C20.3938 12.8665 20.7674 12.839 21.6697 12.6182C22.3525 12.4513 22.9798 12.253 23.0637 12.1777C23.1777 12.0756 20.867 2.47891 20.1972 0.272588C20.0839 -0.100857 20.1733 -0.105352 18.5985 0.350981ZM63.8332 0.596407C63.1986 1.04123 63.0965 1.38213 62.6239 4.63274C62.3779 6.32483 62.0925 7.86662 61.9896 8.059C61.6697 8.65684 60.9905 8.9927 60.3746 8.85731C59.9189 8.75717 59.4436 8.23593 57.7534 5.98303C55.5712 3.07405 55.0893 2.66788 54.2141 3.00087C53.9505 3.1012 52.7025 3.96316 51.4409 4.91646L49.1467 6.64991L47.5154 6.54707C42.7701 6.24842 37.5905 7.35688 33.1094 9.63063C30.2625 11.075 28.0765 12.6676 25.7863 14.9657C21.0294 19.7386 18.2368 25.4662 17.4017 32.1614C17.1908 33.8526 17.1588 33.9401 16.7523 33.9401C16.5171 33.9401 16.1027 34.1627 15.8315 34.4346C15.4137 34.8535 15.2585 35.3203 14.8145 37.4912C14.5262 38.9004 14.2258 40.0533 14.1467 40.0533C14.0678 40.0533 13.056 39.3886 11.8982 38.5759C8.87157 36.4516 9.11506 36.4032 5.74145 39.7996C3.4728 42.0834 3.05482 42.5885 3.05482 43.0455C3.05482 43.43 3.49759 44.2333 4.58224 45.8175C5.42231 47.0443 6.10965 48.0923 6.10965 48.1463C6.10965 48.2004 4.95744 48.4802 3.54899 48.7684C1.38545 49.2109 0.911775 49.3682 0.494163 49.7832L0 50.2742V53.808V57.3418L0.494163 57.8332C0.910877 58.2476 1.3824 58.4053 3.50406 58.839C4.88772 59.122 6.0543 59.3807 6.09635 59.4143C6.13858 59.4478 5.46113 60.5196 4.59122 61.796C3.16803 63.8842 3.02068 64.1772 3.12203 64.7186C3.20954 65.185 3.81188 65.8965 5.80291 67.8851C9.13105 71.2094 8.86995 71.1567 11.8497 69.1034C13.0793 68.256 14.1329 67.5627 14.1909 67.5627C14.2488 67.5627 14.5316 68.7156 14.8197 70.1248C15.2619 72.2896 15.4191 72.7636 15.8339 73.1815L16.3246 73.6759H19.8564H23.3881L23.877 73.1815C24.2882 72.7657 24.4479 72.2864 24.8801 70.1698C25.1629 68.7853 25.4213 67.6193 25.4544 67.5787C25.4877 67.5381 26.5599 68.217 27.8374 69.0874C30.6959 71.035 30.7479 71.0359 32.6404 69.1552L33.9238 67.8797L33.9946 70.7329C34.055 73.1725 34.1213 73.7093 34.4516 74.437C34.9558 75.5474 35.6281 76.4162 36.3837 76.9344L36.9925 77.3517L37.0498 82.3013L37.1071 87.2508L37.6105 88.3296C38.2645 89.7317 39.312 90.7849 40.68 91.4162C41.7569 91.9132 41.8558 91.9249 45.5444 91.9856C49.6571 92.0536 51.0245 91.8941 52.2016 91.2094C53.2837 90.58 54.2628 89.5235 54.7868 88.4195C55.2528 87.438 55.2567 87.3932 55.3115 82.4606L55.3667 77.4907L56.2447 76.7499C56.8346 76.2522 57.3177 75.6131 57.7169 74.8022L58.3112 73.595L58.4156 69.0955C58.5229 64.4764 58.5789 64.0963 59.3843 62.538C59.8753 61.5881 60.8794 60.6043 62.6027 59.3845C65.0196 57.6739 65.4897 57.244 65.2996 56.9185C65.2117 56.7681 64.7716 56.2382 64.3218 55.7412L63.504 54.8377L62.8843 55.36C62.5434 55.6474 61.527 56.4034 60.6259 57.0403C58.0474 58.8616 56.669 60.6034 55.8549 63.0677C55.5166 64.0917 55.4557 64.795 55.3626 68.746L55.2564 73.2555L54.7385 73.9343C53.8256 75.1308 53.815 75.1321 45.9487 75.0753L38.9041 75.0244L38.299 74.5927C37.1544 73.7757 37.0257 73.1847 37.0212 68.7242C37.0171 64.5018 36.8818 63.5296 36.0466 61.7192C35.1544 59.7853 34.1441 58.7613 30.5579 56.156C25.3567 52.3775 21.6384 46.317 20.4574 39.6937C20.0923 37.6458 20.1482 32.4262 20.5556 30.5239C21.9735 23.9032 25.4185 18.4682 30.6514 14.596C34.0629 12.0716 38.9819 10.1174 42.8313 9.75721C43.4387 9.7004 44.3602 9.6105 44.879 9.55763C45.7528 9.46863 45.8224 9.48985 45.8224 9.84585C45.8224 10.3941 46.0049 10.6866 48.0889 13.4785C50.0183 16.0633 50.2793 16.6916 49.725 17.4142C49.169 18.1388 48.8517 18.1564 45.3674 17.6555C41.7025 17.1286 41.2126 17.1736 40.8022 18.0748C40.4795 18.7837 39.2665 27.6522 39.4133 28.2291C39.6198 29.0399 40.2216 29.2664 43.395 29.7278C45.0357 29.9664 46.5783 30.212 46.8231 30.2735C47.7372 30.5029 48.1128 31.8388 47.4806 32.6116C47.3097 32.8203 46.0288 33.8457 44.6339 34.8904C42.0842 36.7998 41.8691 37.0271 41.8691 37.8143C41.8691 38.299 47.5492 46.0202 48.1376 46.3352C48.9138 46.7509 49.376 46.5392 52.0555 44.5408C53.5194 43.449 54.8957 42.5106 55.1139 42.4556C55.7099 42.3053 56.4814 42.6308 56.7784 43.1581C57.0151 43.5779 56.996 43.9604 56.596 46.8294C56.3505 48.5909 56.1912 50.2663 56.242 50.5526C56.4176 51.5406 56.9189 51.7155 61.4706 52.377C66.3583 53.0874 67.1878 53.1271 67.7423 52.6778C68.087 52.3986 68.2058 51.9 68.6527 48.857C69.1273 45.6257 69.2024 45.3265 69.634 44.9529C69.891 44.7303 70.2383 44.5494 70.4058 44.5508C71.2689 44.5577 71.6236 44.8809 73.4398 47.3149C74.4811 48.7105 75.4948 49.9941 75.6921 50.1671C76.5294 50.9012 76.9954 50.6775 81.222 47.5112C85.2068 44.5264 85.6752 44.0508 85.4627 43.2068C85.4118 43.0053 84.484 41.6507 83.401 40.1966C82.3178 38.7426 81.3825 37.398 81.3225 37.2087C81.1647 36.7116 81.4926 35.9846 82.0348 35.6292C82.4815 35.3364 82.6653 35.3447 85.8848 35.8034C89.3603 36.2984 89.8605 36.2827 90.375 35.6626C90.586 35.4082 91.9881 26.6782 92 25.5445C92.0023 25.3275 91.8223 24.9395 91.5998 24.6824C91.2266 24.2507 90.9276 24.1754 87.7178 23.7034C85.5746 23.3884 84.1432 23.095 83.987 22.9389C83.5705 22.5219 83.3893 21.6271 83.6249 21.1495C83.7403 20.916 84.9247 19.8992 86.2571 18.89C88.9568 16.8453 89.4884 16.3185 89.4884 15.6872C89.4884 15.4101 88.5116 13.9435 86.7705 11.6068C83.3435 7.00717 83.309 6.97013 82.458 6.97013C81.881 6.97013 81.4026 7.25476 79.1223 8.95549C77.6583 10.0472 76.2845 10.9851 76.0694 11.0392C75.4525 11.1947 74.6872 10.7251 74.471 10.0584C74.321 9.59521 74.3692 8.84527 74.6906 6.64434C75.2089 3.09617 75.2101 2.78817 74.7084 2.20472C74.3253 1.75899 74.0497 1.6975 69.4523 1.03134C66.7838 0.644594 64.5175 0.325809 64.416 0.322932C64.3143 0.319875 64.0521 0.443038 63.8332 0.596407ZM71.8326 4.52719C71.8721 4.56675 71.7693 5.51699 71.6042 6.63876C71.1763 9.54451 71.207 10.4971 71.7643 11.5973C72.8744 13.7896 75.6056 14.7422 77.716 13.6733C78.0137 13.5224 79.1296 12.7511 80.1956 11.959C81.2616 11.167 82.1582 10.5498 82.1884 10.5875C82.9133 11.4946 85.5685 15.1241 85.6258 15.2862C85.6704 15.4125 84.9536 16.0612 83.9868 16.7692C81.1528 18.8452 80.4603 19.8346 80.4592 21.8103C80.4583 23.6396 81.5209 25.2633 83.1701 25.9529C83.5255 26.1016 84.9056 26.3833 86.2366 26.5789C87.5676 26.7747 88.6781 26.9563 88.7044 26.9826C88.7308 27.0088 88.555 28.3221 88.3141 29.9009C88.0731 31.4797 87.8749 32.8185 87.8736 32.8762C87.8722 32.934 86.84 32.8273 85.58 32.6393C84.32 32.4512 82.8747 32.3363 82.3685 32.3841C79.6587 32.6398 77.7999 35.1676 78.3548 37.8421C78.5172 38.625 78.8648 39.2262 80.1588 40.962C81.0402 42.1446 81.7615 43.1421 81.7615 43.179C81.7615 43.2156 80.6777 44.0598 79.3532 45.0548L76.9451 46.864L75.355 44.7671C73.3018 42.0593 72.5902 41.5798 70.6344 41.5858C69.0038 41.5908 68.1224 41.9826 67.129 43.1439C66.3639 44.038 66.0606 45.0104 65.7544 47.5492C65.6329 48.557 65.4748 49.4764 65.4031 49.5926C65.3051 49.7512 64.554 49.7023 62.3759 49.3948C59.0384 48.9239 59.3303 49.2427 59.7488 46.5261C60.1529 43.9028 60.1062 42.9596 59.5164 41.8301C58.6237 40.1204 56.9337 39.1962 55.0521 39.3891C53.8731 39.51 53.355 39.7858 51.0625 41.5128L49.187 42.9254L47.4148 40.5596C46.4402 39.2584 45.6427 38.1385 45.6427 38.0707C45.6427 38.0031 46.5733 37.2412 47.7108 36.3778C50.1473 34.5282 50.6687 33.8029 50.8078 32.0711C50.9131 30.7573 50.6952 29.9563 49.9537 28.932C49.0727 27.7149 48.1897 27.3323 45.2624 26.8992C43.8409 26.6886 42.6531 26.4968 42.6231 26.4729C42.5345 26.4018 43.3501 20.7367 43.4689 20.5982C43.5285 20.5287 44.6689 20.6328 46.0028 20.8296C49.2364 21.3068 50.3739 21.0875 51.7369 19.7239C52.5662 18.8939 52.8745 18.1742 52.9694 16.8462C53.0788 15.3168 52.7615 14.5859 50.9464 12.1879C50.19 11.1886 49.5969 10.2984 49.6285 10.2098C49.6837 10.0546 54.184 6.61053 54.3315 6.61053C54.3712 6.61053 55.1018 7.54046 55.9549 8.6768C57.5815 10.8434 58.3288 11.4813 59.6462 11.8269C61.5188 12.3181 63.8755 11.2379 64.7894 9.46953C65.0431 8.97868 65.4476 6.91817 65.6859 4.90244C65.756 4.3091 65.8404 3.77617 65.8733 3.71809C65.9339 3.61147 71.6996 4.39414 71.8326 4.52719ZM4.92905 9.5855C4.46741 10.2328 4.1197 10.7858 4.15618 10.8144C4.79823 11.3155 14.4933 18.1742 14.6384 18.2299C14.82 18.2997 16.6387 15.997 16.4991 15.874C16.0817 15.5063 6.01621 8.40853 5.91216 8.40853C5.8331 8.40853 5.39069 8.93822 4.92905 9.5855ZM63.1387 14.7902C59.4237 15.5986 56.3665 18.0025 54.736 21.3973C53.7847 23.3778 53.4932 24.6594 53.4986 26.838C53.5065 30.1107 54.6912 32.9293 57.0609 35.3136C58.2726 36.533 58.7978 36.9124 60.21 37.5886C62.435 38.6543 63.4658 38.887 65.8584 38.8641C67.4654 38.8487 68.1039 38.7577 69.2726 38.3769C72.6112 37.2891 75.1185 35.0874 76.6588 31.8908C78.9332 27.1703 77.7404 21.2317 73.8004 17.6609C72.4505 16.4373 69.9499 15.1571 68.1945 14.7905C66.657 14.4696 64.6128 14.4694 63.1387 14.7902ZM33.6442 18.206C30.1445 20.754 27.3854 24.4877 26.0032 28.5461C25.1381 31.0862 24.9144 32.554 24.9205 35.6482C24.9259 38.2823 24.9739 38.7066 25.4887 40.677C26.4832 44.4829 28.5845 48.1378 31.2978 50.7804C33.0446 52.482 35.0624 53.8301 37.8726 55.1734C39.8259 56.1069 40.6746 56.6246 41.443 57.3506C43.2746 59.0817 44.2755 60.9842 44.5201 63.2004L44.6543 64.4162L46.1893 64.4676L47.7243 64.519L47.5997 63.2989C47.4299 61.6374 47.2818 61.0171 46.7275 59.6456C46.0955 58.082 45.139 56.672 43.8745 55.4395C42.4863 54.0865 41.9355 53.7318 39.1165 52.3755C33.655 49.7481 30.4827 46.2535 28.754 40.9606C26.4188 33.8107 29.0631 25.4295 35.0622 20.9659C35.7422 20.46 36.2985 19.981 36.2985 19.9013C36.2985 19.7699 34.8663 17.3985 34.7869 17.3985C34.7684 17.3985 34.2541 17.7619 33.6442 18.206ZM67.7986 17.8461C71.0495 18.6933 73.6425 21.2649 74.5084 24.5006C74.6409 24.9951 74.7501 25.9692 74.7512 26.6654C74.7623 33.2572 67.9249 37.7744 62.0007 35.0887C56.0548 32.3933 54.6504 24.7941 59.2663 20.2928C61.651 17.9672 64.7993 17.0645 67.7986 17.8461ZM7.60525 24.8318C4.42518 25.6386 1.77359 26.3493 1.71268 26.4112C1.59049 26.5354 2.13065 28.9111 2.33281 29.1386C2.42841 29.2461 13.1483 26.7111 14.3133 26.3056C14.5846 26.2111 13.8784 23.3249 13.5897 23.3485C13.4784 23.3576 10.7853 24.0252 7.60525 24.8318ZM18.182 42.7503C18.39 43.5909 18.5944 44.3705 18.6357 44.4827C18.6804 44.6039 18.323 44.7772 17.7563 44.9092C14.07 45.7679 11.1156 49.1251 10.6836 52.946C10.3206 56.1557 12.1268 59.8473 14.8752 61.5139C19.2317 64.1553 24.6014 63.0328 27.3922 58.8972L27.9619 58.0531L29.3897 59.077C31.2925 60.4415 32.7137 61.8834 33.2187 62.962L33.6324 63.8452L32.007 65.4713L30.3817 67.0976L28.5684 65.8701C27.5709 65.1949 26.4487 64.5649 26.0745 64.4698C24.8115 64.149 23.3937 64.8387 22.7532 66.0851C22.6152 66.3539 22.3151 67.4841 22.0866 68.5966L21.6707 70.6193H19.8449H18.0188L17.7164 69.0959C17.0657 65.8174 16.5309 64.9416 14.9144 64.5059C13.8702 64.2247 13.1658 64.48 11.1093 65.8852L9.33303 67.0992L7.95296 65.7183L6.5729 64.3375L7.79465 62.5475C8.46671 61.5631 9.08702 60.448 9.17328 60.0697C9.51775 58.5589 8.54542 56.9784 6.98638 56.5153C6.49887 56.3703 5.41477 56.1156 4.57738 55.9492L3.05482 55.6466V53.8085V51.9705L5.07496 51.5679C6.1862 51.3464 7.30858 51.0547 7.56931 50.9197C8.72476 50.3219 9.45917 48.7993 9.18064 47.5788C9.09852 47.2185 8.49511 46.1381 7.83994 45.178C7.18477 44.218 6.64873 43.3782 6.64873 43.3117C6.64873 43.2451 7.24982 42.5935 7.98441 41.8634L9.31991 40.5359L11.2121 41.8136C13.2543 43.1924 13.9277 43.4242 15.0285 43.1277C16.2022 42.8114 16.9748 41.8792 17.3525 40.323L17.4835 39.7836L17.6434 40.5028C17.7313 40.8984 17.9737 41.9098 18.182 42.7503ZM20.4181 48.7287C21.4639 50.794 22.6291 52.4778 24.6005 54.7728L25.5838 55.9174L25.1601 56.7168C24.5775 57.8156 23.1863 59.0163 21.9592 59.4794C20.5378 60.016 18.4501 59.9151 17.1609 59.2479C15.9582 58.6254 14.8578 57.4533 14.2738 56.1729C13.8421 55.2266 13.8024 54.9661 13.8752 53.5658C13.9325 52.4631 14.0711 51.7702 14.351 51.1865C15.2617 49.2875 17.3579 47.8442 19.2693 47.8002C19.9031 47.7856 19.9665 47.8369 20.4181 48.7287ZM75.2924 58.4828V60.0111H80.5934H85.8945V58.4828V56.9545H80.5934H75.2924V58.4828ZM73.6786 66.0468C73.1492 66.6998 72.7963 67.2867 72.8856 67.3658C72.974 67.4444 75.0214 69.153 77.4355 71.163L81.8247 74.8173L82.7771 73.7521C83.3009 73.1663 83.7313 72.6284 83.7338 72.557C83.737 72.4579 76.5334 66.36 74.9161 65.0928C74.6745 64.9035 74.4915 65.0444 73.6786 66.0468ZM44.7442 69.8102V72.0577H46.2716H47.799V69.8102V67.5627H46.2716H44.7442V69.8102ZM66.128 74.3879V79.7891H67.6581H69.1882L69.1406 74.44L69.0929 69.091L67.6104 69.0389L66.128 68.9865V74.3879ZM52.2914 79.6992V81.2275H46.1818H40.0721V79.8191C40.0721 79.0444 40.126 78.3566 40.192 78.2908C40.2577 78.2248 43.0071 78.1709 46.3016 78.1709H52.2914V79.6992ZM52.2914 85.3512C52.2914 86.615 52.0808 87.2468 51.4263 87.9472C50.5606 88.8737 50.1155 88.9589 46.1399 88.9589C42.054 88.9589 41.7246 88.8794 40.7352 87.6564C40.3399 87.1677 40.1986 86.7704 40.1228 85.9345C39.9602 84.1383 39.4169 84.2841 46.266 84.2841H52.2914V85.3512Z" fill="#CCD3E5"/>
</svg>
