<svg width="86" height="86" viewBox="0 0 86 86" fill="none" xmlns="http://www.w3.org/2000/svg">
<path fill-rule="evenodd" clip-rule="evenodd" d="M41.6558 0.267163C40.8964 0.596099 40.1954 1.26691 39.7921 2.05061C39.4905 2.63708 39.4716 3.12562 39.4716 10.3029V17.9318L37.5813 18.0447C23.4286 18.8904 19.0824 23.0565 18.1075 36.7107L17.9099 39.4784H10.2858C3.11334 39.4784 2.62457 39.4974 2.03818 39.799C-0.679393 41.1967 -0.679393 44.816 2.03818 46.2138C2.62457 46.5153 3.11334 46.5343 10.2858 46.5343H17.9099L18.1075 49.302C19.0815 62.9462 23.4392 67.1229 37.5813 67.9681L39.4716 68.081V75.7098C39.4716 82.8871 39.4905 83.3757 39.7921 83.9621C41.1901 86.6793 44.8099 86.6793 46.2079 83.9621C46.5095 83.3758 46.5284 82.8871 46.5284 75.7157V68.0927L49.2966 67.8952C62.9364 66.9216 67.1206 62.5577 67.9654 48.4242L68.0783 46.5343H75.7083C82.8867 46.5343 83.3753 46.5153 83.9618 46.2138C86.6794 44.816 86.6794 41.1967 83.9618 39.799C83.3753 39.4974 82.8867 39.4784 75.7083 39.4784H68.0783L67.9654 37.5885C67.3884 27.9375 65.1712 23.0481 60.248 20.5715C57.5032 19.1907 54.311 18.4756 49.2966 18.1176L46.5284 17.92V10.297C46.5284 3.12562 46.5095 2.63692 46.2079 2.05061C45.3232 0.331337 43.3201 -0.45354 41.6558 0.267163ZM45.8604 28.9649C48.6586 29.5581 51.0242 30.8512 53.0905 32.9174C55.9112 35.7375 57.2759 39.0274 57.2759 43.0064C57.2759 46.9854 55.9112 50.2752 53.0905 53.0954C50.091 56.0946 46.7529 57.3912 42.4119 57.2434C40.5198 57.1789 40.0141 57.097 38.6315 56.6324C36.4378 55.8952 34.6305 54.7849 32.9959 53.1701C30.0992 50.3087 28.7241 47.0368 28.7241 43.0064C28.7241 39.0274 30.0888 35.7375 32.9095 32.9174C34.9474 30.8796 37.3199 29.5711 40.0596 28.9733C41.4018 28.6805 44.4977 28.676 45.8604 28.9649ZM41.776 35.9515C38.8316 36.4673 36.4618 38.9046 35.9213 41.9729C35.4123 44.8615 37.151 48.1326 39.872 49.4057C45.9684 52.2581 52.2588 46.1123 49.472 40.0261C48.1341 37.1042 44.9175 35.4012 41.776 35.9515Z" fill="#CCD3E5"/>
</svg>
