<svg width="50" height="54" viewBox="0 0 50 54" fill="none" xmlns="http://www.w3.org/2000/svg">
<path fill-rule="evenodd" clip-rule="evenodd" d="M15.0816 0.157482C9.15697 1.46698 6.25372 8.1609 9.33654 13.4035C10.1835 14.844 11.6576 16.1662 13.2585 16.9214C13.7141 17.1364 14.0956 17.3168 14.1065 17.3224C14.1173 17.328 13.9162 18.068 13.6595 18.9669C13.4029 19.8657 13.1456 20.7765 13.0878 20.991C12.9898 21.3542 12.9487 21.3857 12.4876 21.4528C11.856 21.5447 10.4415 21.9877 9.89851 22.2637C7.55001 23.4575 5.83603 25.647 5.22537 28.2336C4.93093 29.4807 4.98517 31.6305 5.3393 32.7427C5.95079 34.664 7.00521 36.1741 8.56809 37.367C8.87289 37.5997 9.10849 37.8479 9.09163 37.9187C9.07467 37.9893 8.11847 39.5905 6.96667 41.4768L4.8725 44.9064L4.06112 44.9646C1.24121 45.1668 -0.668983 47.9987 0.219992 50.6594C1.39283 54.1699 5.98252 54.7685 7.96874 51.67C8.18716 51.3292 8.39636 50.9103 8.43375 50.7388L8.5016 50.4272H14.1508C19.4387 50.4272 19.8038 50.4391 19.8591 50.612C20.216 51.7288 21.2401 52.9944 22.1771 53.4764C24.3943 54.6168 27.0595 53.8398 28.349 51.6769C28.7227 51.05 29.0076 50.078 29.0081 49.4285L29.0085 49.0019L33.1179 46.6808C35.3782 45.4042 37.9038 43.9736 38.7305 43.5017L40.2336 42.6436L40.7447 42.9904C43.4695 44.8393 47.2742 43.9904 49.1118 41.1235C49.7711 40.0951 49.9978 39.2762 50 37.9161C50.003 36.0393 49.5204 34.8513 48.2126 33.5164C47.2733 32.5575 45.435 31.7499 44.173 31.7415C43.8564 31.7395 43.9901 32.0859 42.5734 27.5954C42.1383 26.2161 41.7823 25.0438 41.7823 24.9905C41.7823 24.9372 41.9462 24.8389 42.1467 24.7722C42.6128 24.6171 43.8854 23.7736 44.5405 23.1855C45.7263 22.1212 46.7342 20.3748 47.1291 18.7007C47.3171 17.9031 47.346 17.5216 47.309 16.3252C47.2698 15.0622 47.2263 14.786 46.9257 13.8991C46.5326 12.7384 46.1491 12.0251 45.4298 11.1162C43.8539 9.12515 41.5919 7.96019 39.0075 7.8089C36.7117 7.67439 34.4771 8.47193 32.6868 10.0648C32.1569 10.5363 31.2847 11.5805 31.0152 12.0661C30.9491 12.185 30.4147 12.0277 28.2778 11.2606C26.8173 10.7362 25.616 10.3072 25.6081 10.3072C25.6003 10.3072 25.6272 9.98657 25.6679 9.59456C25.8998 7.36156 25.1232 4.9287 23.5777 3.04549C22.6174 1.87525 20.6118 0.624563 19.0605 0.228642C17.9875 -0.0452299 16.1477 -0.0781706 15.0816 0.157482ZM18.5809 2.35331C20.9277 2.94445 22.9084 5.04188 23.4195 7.47675C23.6173 8.41914 23.5692 9.77509 23.3049 10.7022L23.1171 11.361L22.2066 10.491C21.6162 9.92692 21.0411 9.49098 20.5709 9.25142C20.1721 9.04818 19.8276 8.87144 19.8054 8.85867C19.7831 8.846 19.871 8.58691 20.0007 8.28305C20.1988 7.81851 20.2289 7.59542 20.19 6.88096C20.1174 5.54824 19.4897 4.56921 18.3444 4.00204C17.5485 3.60801 16.3479 3.58669 15.5528 3.95262C14.8647 4.26915 14.1037 5.03502 13.8116 5.70481C13.485 6.45369 13.4776 7.63089 13.795 8.32866L14.0236 8.83111L13.4793 9.10667C12.6475 9.52783 11.6956 10.246 11.1773 10.8432L10.7099 11.382L10.5273 10.871C10.2545 10.1075 10.194 8.12204 10.4173 7.25894C11.3631 3.60421 14.9618 1.44174 18.5809 2.35331ZM17.7041 6.14128C18.2261 6.61754 18.2182 7.47527 17.6877 7.92535C17.2708 8.27894 16.9578 8.34957 16.4926 8.19479C15.7372 7.9434 15.4615 6.92573 15.9803 6.30408C16.4238 5.7726 17.218 5.69763 17.7041 6.14128ZM40.4193 10.1976C42.4424 10.762 44.2407 12.5477 44.9421 14.6887C45.2613 15.6633 45.2811 17.5101 44.9832 18.5238L44.7869 19.1914L44.0437 18.4542C43.2918 17.7084 42.1561 16.8987 41.6997 16.7832C41.4329 16.7158 41.4326 16.7222 41.7333 15.9029C41.9738 15.2476 41.9009 14.0087 41.5856 13.3906C41.2343 12.7019 40.6758 12.1401 40.0191 11.8149C39.1859 11.4024 38.0149 11.3951 37.1751 11.7974C36.4421 12.1483 35.8592 12.7363 35.5122 13.4746C35.1489 14.2478 35.1309 15.3933 35.4703 16.1415L35.6983 16.644L35.154 16.9195C34.3217 17.341 33.3702 18.0589 32.8509 18.6573L32.3825 19.1974L32.2227 18.6851C32.1348 18.4033 32.0325 18.0349 31.9953 17.8661C31.8734 17.3144 31.9316 15.6527 32.0954 15.0055C32.6399 12.8528 34.4261 10.9394 36.5301 10.2547C37.5905 9.90971 39.2971 9.88458 40.4193 10.1976ZM17.804 10.5209C19.1795 10.7361 20.7542 11.7591 21.5304 12.9418L21.831 13.3997L21.2572 13.9193C20.5321 14.576 19.238 15.2246 18.2228 15.4403C16.1944 15.8712 13.7169 15.155 12.3666 13.7471C12.0256 13.3915 12.015 13.3582 12.1554 13.0806C12.2367 12.9199 12.6154 12.4739 12.997 12.0896C13.7843 11.2967 14.6642 10.8065 15.7098 10.5782C16.5484 10.3951 16.9327 10.3846 17.804 10.5209ZM27.5076 13.2768C28.8222 13.7488 29.9313 14.1651 29.9723 14.2018C30.0132 14.2386 29.9741 14.6721 29.8854 15.165C29.6666 16.3804 29.7494 17.8807 30.1023 19.1016C30.5498 20.6487 31.1836 21.7367 32.2975 22.8701L32.9731 23.5574L32.0629 24.7819L31.1527 26.0064L30.7347 25.8561C30.0855 25.6228 28.8393 25.576 28.1701 25.7599C27.8534 25.8469 27.5625 25.8857 27.5237 25.8462C27.4849 25.8068 26.2665 23.5745 24.8162 20.8855L22.1792 15.9964L22.8117 15.4193C23.554 14.7422 24.3171 13.7519 24.6973 12.9731C24.8461 12.6682 25.0015 12.4188 25.0425 12.4188C25.0835 12.4188 26.1928 12.8049 27.5076 13.2768ZM39.2933 13.8933C39.8955 14.3709 39.9287 15.2577 39.3623 15.7382C39.1871 15.8869 38.932 16.0368 38.7955 16.0713C38.4255 16.1649 37.8348 15.9274 37.5957 15.5887C37.2113 15.0444 37.4053 14.0741 37.952 13.8066C38.3273 13.623 39.008 13.6669 39.2933 13.8933ZM23.063 22.1577L25.7808 27.1889L25.5137 27.5419C25.3668 27.7362 25.1235 28.1662 24.9731 28.4976C24.8225 28.829 24.6845 29.1003 24.6663 29.1003C24.6131 29.1003 22.9051 28.7842 22.6468 28.7265C22.4891 28.6914 22.4108 28.596 22.4098 28.4384C22.409 28.3089 22.2732 27.811 22.1078 27.3322C21.1535 24.5679 18.743 22.3368 15.9661 21.6476C15.566 21.5483 15.2278 21.4592 15.2144 21.4496C15.2011 21.4399 15.4248 20.6038 15.7117 19.5914C15.9986 18.5791 16.2334 17.7388 16.2334 17.7242C16.2334 17.7097 16.6457 17.6974 17.1496 17.697C18.0226 17.6963 19.5889 17.4067 19.988 17.1722C20.0826 17.1165 20.2016 17.0836 20.2526 17.0988C20.3036 17.1141 21.5683 19.3906 23.063 22.1577ZM39.4787 18.3338C40.8536 18.5488 42.4411 19.5906 43.2332 20.7975L43.5057 21.2126L42.9318 21.7321C41.8271 22.7325 40.0796 23.3931 38.5269 23.3972C37.6645 23.3994 36.3803 23.0778 35.532 22.6471C34.8069 22.2789 33.8693 21.542 33.7712 21.263C33.6857 21.02 34.1947 20.2846 34.8761 19.6669C35.5346 19.0698 36.4816 18.5882 37.3845 18.3911C38.2231 18.2079 38.6074 18.1974 39.4787 18.3338ZM15.9336 23.896C19.3167 25.0717 21.1899 28.7187 20.1811 32.1657L20.0101 32.75L19.1396 31.9017C18.5572 31.3343 18.0065 30.9153 17.476 30.636L16.6829 30.2185L16.874 29.7831C17.6599 27.9914 16.6144 25.7095 14.7711 25.1931C14.2052 25.0346 13.1876 25.0684 12.6134 25.2647C11.9041 25.5073 10.89 26.5298 10.6494 27.245C10.4113 27.9532 10.4247 28.9662 10.6813 29.6472C10.7951 29.9491 10.8771 30.2076 10.8634 30.2213C10.8498 30.2351 10.5564 30.3959 10.2115 30.5787C9.41602 31.0002 8.58672 31.6436 8.05763 32.2496C7.83052 32.5097 7.62184 32.6996 7.59388 32.6714C7.44582 32.522 7.12395 30.8727 7.12552 30.2711C7.13211 27.7618 8.5861 25.3775 10.7885 24.2643C11.9501 23.6773 12.7718 23.4965 14.0442 23.5479C14.8048 23.5786 15.2636 23.6631 15.9336 23.896ZM35.8341 25.1047C36.6883 25.3968 36.986 25.444 38.2446 25.4877L39.6806 25.5374L39.7855 25.8671C39.9127 26.2671 41.6191 31.6955 41.7228 32.0301C41.7764 32.203 41.7541 32.2676 41.641 32.2676C41.3922 32.2676 39.9375 33.2957 39.5611 33.7374L39.2169 34.1415L36.5468 33.0014C34.0756 31.9462 33.8792 31.843 33.9091 31.6158C33.9269 31.4808 33.9505 30.9426 33.9615 30.42C33.9846 29.3218 33.8017 28.6621 33.241 27.8221L32.8864 27.2909L33.8299 26.0312C34.3487 25.3384 34.7926 24.7715 34.8164 24.7715C34.8402 24.7715 35.2981 24.9215 35.8341 25.1047ZM14.3475 27.3576C14.7833 27.5848 14.9769 27.9203 14.9769 28.4481C14.9769 28.8328 14.9173 28.9703 14.6209 29.2692C14.3291 29.5633 14.1856 29.6282 13.8255 29.6282C12.7159 29.6282 12.1698 28.3456 12.9625 27.6011C13.4258 27.1659 13.8401 27.093 14.3475 27.3576ZM30.4429 28.0629C30.9404 28.2968 31.4768 28.8627 31.691 29.3795C31.8976 29.878 31.8702 30.965 31.6383 31.4799C31.3962 32.017 30.6128 32.7202 30.0751 32.8825C29.4384 33.0749 28.8015 33.0311 28.2225 32.7551C26.724 32.0408 26.245 30.243 27.1876 28.8715C27.8823 27.8607 29.2766 27.5143 30.4429 28.0629ZM24.4537 31.3059C24.5829 31.3608 24.7114 31.5734 24.7871 31.8578C24.8548 32.1122 25.0983 32.6134 25.3281 32.9715C25.6916 33.5379 25.9866 33.8218 27.0099 34.5904C27.2176 34.7464 27.2031 34.8086 26.018 38.8135C24.1369 45.1705 24.3229 44.6204 24.0536 44.6204C23.8465 44.6204 23.233 44.7714 22.5593 44.988C22.3657 45.0503 22.135 44.7253 20.5231 42.1207C19.5232 40.505 18.5496 38.9361 18.3596 38.6343L18.0139 38.0855L18.6157 37.6901C19.4749 37.1255 20.8208 35.7121 21.3186 34.8514C21.8713 33.896 22.2564 32.9072 22.4084 32.054C22.6371 30.7694 22.5027 30.8989 23.4309 31.0685C23.8779 31.15 24.3381 31.2569 24.4537 31.3059ZM15.1381 32.0071C15.4814 32.096 16.0201 32.2979 16.3354 32.4558C17.0123 32.7948 18.2037 33.8897 18.4912 34.437L18.694 34.8232L18.1353 35.3304C16.2286 37.0612 13.1948 37.4477 10.8493 36.2585C10.2169 35.9379 8.90378 34.9606 8.90378 34.8105C8.90378 34.6212 9.59172 33.7112 10.0464 33.2991C11.4118 32.0616 13.4007 31.5568 15.1381 32.0071ZM35.6045 34.951C37.6999 35.853 38.1648 36.0903 38.1426 36.2466C37.8917 38.0125 37.9579 38.9375 38.4213 40.141C38.5973 40.5979 38.707 41.004 38.665 41.0432C38.623 41.0824 36.4212 42.3371 33.7721 43.8313C31.1229 45.3254 28.8264 46.623 28.6685 46.7149C28.3826 46.8813 28.3797 46.8798 27.8575 46.2891C27.5692 45.9629 27.1217 45.5611 26.863 45.3961C26.5594 45.2024 26.4101 45.0396 26.4422 44.9373C26.4696 44.8501 27.1069 42.6883 27.8584 40.1333C28.6099 37.5783 29.2478 35.4112 29.2759 35.3175C29.3128 35.1942 29.5037 35.1309 29.9676 35.0886C30.6952 35.0221 31.9373 34.4618 32.3579 34.0104C32.53 33.8256 32.6847 33.7532 32.8268 33.7908C32.9436 33.8217 34.1935 34.3437 35.6045 34.951ZM45.6604 34.3047C47.2217 35.0582 48.1753 36.8995 47.8549 38.5417C47.6032 39.8316 46.835 40.8483 45.6793 41.4205C45.1441 41.6855 44.9692 41.717 44.0319 41.717C43.058 41.717 42.9332 41.6922 42.2835 41.3699C39.6358 40.0567 39.3788 36.3142 41.8203 34.6253C42.5658 34.1096 43.1485 33.954 44.1905 33.9922C44.8928 34.0179 45.2029 34.0838 45.6604 34.3047ZM12.3068 38.9939C13.111 39.1499 14.7223 39.1333 15.6707 38.9591L15.998 38.899L18.3331 42.6666L20.6682 46.4343L20.4868 46.7151C20.3094 46.9901 20.067 47.4993 19.8883 47.9725L19.7987 48.2101H14.1501H8.5016L8.43375 47.8985C8.34118 47.4734 7.6544 46.4233 7.23808 46.0701C7.05055 45.911 6.91285 45.7363 6.93191 45.6818C6.95107 45.6273 7.90905 44.0364 9.06084 42.1466C10.6144 39.5976 11.1955 38.726 11.3121 38.7709C11.3985 38.8041 11.8461 38.9044 12.3068 38.9939ZM25.5248 47.089C25.9425 47.3096 26.4588 47.8848 26.6465 48.3387C26.8683 48.8748 26.8508 49.8511 26.61 50.3744C26.5031 50.6067 26.2568 50.9488 26.0626 51.1345C24.4813 52.6472 21.8615 51.5141 21.8615 49.3173C21.8615 48.0787 22.703 47.0664 23.9112 46.8517C24.4093 46.7631 25.1002 46.8648 25.5248 47.089ZM5.29134 47.3392C6.07372 47.7292 6.49549 48.4225 6.49549 49.3187C6.49549 50.5734 5.59437 51.4943 4.35566 51.5055C2.33259 51.5239 1.37912 49.039 2.89351 47.695C3.60564 47.0629 4.47765 46.9334 5.29134 47.3392Z" fill="#C11B17"/>
</svg>
