<svg width="55" height="55" viewBox="0 0 55 55" fill="none" xmlns="http://www.w3.org/2000/svg">
<path fill-rule="evenodd" clip-rule="evenodd" d="M4.35815 0.113721C2.96342 0.38287 1.38395 1.56621 0.690327 2.86153C-0.0435511 4.23221 0.000506266 2.66284 0.000506266 27.486C0.000506266 47.2006 0.0216404 50.1157 0.169355 50.7395C0.643363 52.7413 2.24575 54.3364 4.25673 54.8083C5.34374 55.0634 30.8178 55.0642 31.8146 54.8091C33.867 54.2841 35.4637 52.6549 35.8801 50.6609C35.9613 50.2726 36.0034 47.9623 36.0034 43.8988V37.7265H43.1923C50.9508 37.7265 51.0118 37.7224 52.1963 37.1249C53.4222 36.5066 54.4464 35.2183 54.8079 33.8397C54.9818 33.1765 55 32.2584 55 24.1467C55 16.0349 54.9818 15.1168 54.8079 14.4536C54.4464 13.0751 53.4222 11.7867 52.1963 11.1684C51.0118 10.5709 50.9508 10.5668 43.1923 10.5668H36.0034V7.73382C36.0034 6.102 35.9511 4.65085 35.8801 4.31102C35.5731 2.84083 34.3833 1.27079 33.0949 0.635879C31.7327 -0.0355462 32.3703 -0.00883168 18.0047 0.00452558C10.7759 0.0112042 4.63491 0.0604035 4.35815 0.113721ZM31.8902 3.02794C32.4858 3.37657 32.9394 3.9123 33.1601 4.52796C33.2833 4.87147 33.3106 8.93608 33.3142 27.4303C33.317 42.5908 33.2808 50.0501 33.2027 50.3297C33.0298 50.9495 32.4368 51.6481 31.8121 51.9682L31.257 52.2526L18.176 52.2817C3.59218 52.3143 4.44638 52.3575 3.6056 51.5453C3.3691 51.3168 3.0768 50.9316 2.95615 50.6894C2.74067 50.2569 2.7362 49.8478 2.70522 27.7643C2.6833 12.1479 2.71003 5.1326 2.79267 4.79867C3.02056 3.8778 3.66095 3.18567 4.63245 2.81044C4.88885 2.71137 8.23967 2.68388 18.168 2.69913L31.3628 2.71939L31.8902 3.02794ZM50.7637 13.4702C51.8024 13.9389 52.2521 14.6531 52.265 15.854L52.2733 16.6332H44.1663H36.0593L36.0284 14.9357L35.9976 13.2382L43.129 13.2407C50.0655 13.243 50.2742 13.2494 50.7637 13.4702ZM52.3045 26.2894C52.2736 33.1407 52.2706 33.2235 52.0325 33.6637C51.7232 34.2358 51.3896 34.5406 50.7637 34.8231C50.2742 35.044 50.0655 35.0503 43.1319 35.0526L36.0034 35.0551V27.2077V19.3603H44.1695H52.3357L52.3045 26.2894ZM38.0534 29.2717C37.5002 29.4406 37.1216 29.9668 37.1216 30.5667C37.1216 30.9909 37.1815 31.1298 37.5018 31.4486L37.882 31.8271H39.7691C41.2984 31.8271 41.7038 31.7941 41.9056 31.6533C42.2264 31.4297 42.4891 30.9211 42.4885 30.5248C42.4881 30.1376 42.1383 29.5503 41.7961 29.3619C41.4768 29.186 38.5641 29.1159 38.0534 29.2717ZM45.1933 29.2657C44.1486 29.5119 43.8315 30.7318 44.6106 31.5074L44.9318 31.8271H46.8396H48.7473L49.1125 31.5023C49.442 31.2093 49.4777 31.1169 49.4777 30.5587C49.4777 29.441 48.9242 29.1545 46.794 29.1697C46.1175 29.1744 45.3972 29.2177 45.1933 29.2657ZM13.8915 45.4042C13.0287 45.6081 12.6149 46.5112 13.0236 47.298C13.3784 47.9809 13.2753 47.9671 18.0234 47.9671H22.3577L22.7094 47.6544C22.9926 47.4025 23.0714 47.2325 23.1152 46.7798C23.1635 46.2793 23.1345 46.1791 22.8492 45.8622C22.6534 45.6447 22.3551 45.4665 22.0817 45.4037C21.5472 45.281 14.4114 45.2813 13.8915 45.4042Z" fill="#C11B17"/>
</svg>
