<svg width="58" height="58" viewBox="0 0 58 58" fill="none" xmlns="http://www.w3.org/2000/svg">
<path fill-rule="evenodd" clip-rule="evenodd" d="M10.3336 0.143954C9.78126 0.344184 9.20463 0.849968 8.91858 1.3852C8.66596 1.85768 8.66369 1.9048 8.6314 7.41077L8.599 12.96L8.15651 13.4131C7.45345 14.1329 7.13727 14.9388 7.13433 16.0179C7.13059 17.4109 8.49285 38.9549 8.61316 39.4045C8.79963 40.1017 9.38645 40.9776 9.94122 41.3867C10.9565 42.1356 10.7956 42.1225 18.9936 42.1225H26.3932V43.9374C26.3932 45.7465 26.3923 45.7525 26.1225 45.8551C25.7327 46.0032 25.0515 46.6295 24.8442 47.0303C24.7457 47.2207 24.64 47.7951 24.6075 48.316L24.5487 49.2574H23.7885C23.3705 49.2574 22.8551 49.3152 22.6433 49.3857C22.178 49.5407 21.4724 50.189 21.2901 50.6291L21.1573 50.9495L16.1186 50.9811L11.0797 51.0128L10.8065 51.3306C10.4716 51.7199 10.4622 51.9681 10.768 52.3566L11.0027 52.655H16.0358H21.0687V53.561V54.467H11.5187C4.24202 54.467 1.93631 54.4346 1.83277 54.3311C1.758 54.2564 1.69682 53.9281 1.69682 53.6014C1.69682 52.654 1.6932 52.655 5.00738 52.655C7.66326 52.655 7.82651 52.6428 8.04084 52.4285C8.32712 52.1423 8.33165 51.6268 8.05081 51.2802L7.83432 51.0128H4.85048C3.20942 51.0128 1.72752 51.0518 1.55725 51.0994C1.10672 51.2255 0.446371 51.8481 0.20881 52.3708C0.0729802 52.6697 0.00160998 53.0972 2.39782e-05 53.6219C-0.00303475 54.5836 0.286411 55.2408 0.942677 55.7628L1.37792 56.1092L11.2718 56.1393L21.1657 56.1694L21.2893 56.5438C21.4434 57.0105 22.0123 57.5713 22.5662 57.8022C23.1985 58.0659 34.799 58.0659 35.4314 57.8022C35.9852 57.5713 36.5542 57.0105 36.7082 56.5438L36.8318 56.1694L46.7258 56.1393L56.6196 56.1092L57.0549 55.7628C57.7029 55.2474 58 54.582 58 53.6466C58 52.7493 57.7988 52.1873 57.2894 51.661C56.5939 50.9426 56.8057 50.9562 46.3247 50.9562H36.843L36.7083 50.6313C36.5269 50.1931 35.945 49.6472 35.4314 49.4331C35.1893 49.3321 34.6782 49.2574 34.2295 49.2574H33.4489L33.3901 48.316C33.3576 47.7951 33.2519 47.2207 33.1533 47.0303C32.946 46.6295 32.2648 46.0032 31.875 45.8551C31.6053 45.7525 31.6043 45.7463 31.6043 43.9405V42.1287L39.2228 42.0973L46.8413 42.0659L47.403 41.7875C48.114 41.4352 48.7363 40.8155 49.1004 40.0973C49.4323 39.4424 49.472 39.2065 49.6149 37.051C49.7318 35.2873 49.678 34.9903 49.2025 34.7736C48.8051 34.5926 48.6464 34.6159 48.3196 34.9027C48.0436 35.145 48.0238 35.2417 47.9175 36.8563C47.856 37.7906 47.7774 38.7218 47.7427 38.9255C47.6649 39.3839 47.0808 40.0664 46.5919 40.2708C46.0475 40.4982 11.95 40.4982 11.4057 40.2708C10.947 40.0791 10.3497 39.4102 10.2609 38.9882C10.1729 38.5706 8.83385 17.1338 8.83385 16.143C8.83385 15.2507 9.00661 14.8545 9.58958 14.41L10.0057 14.0926H28.9988H47.9919L48.408 14.41C48.9807 14.8467 49.1635 15.2539 49.165 16.0972C49.1657 16.4896 48.9551 20.1893 48.6969 24.3187L48.2275 31.8268L48.4938 32.1101C48.6962 32.3256 48.8534 32.3855 49.1488 32.3599C49.9379 32.2916 49.8951 32.5634 50.4041 24.3929C50.6565 20.3411 50.8625 16.5953 50.8618 16.0689C50.8606 14.938 50.5593 14.151 49.845 13.4131L49.4065 12.9601L49.3701 10.5252C49.335 8.17783 49.3231 8.06786 49.0398 7.4674C48.6845 6.71461 47.9796 5.98855 47.2599 5.63419L46.728 5.37224L39.3385 5.34155C32.0535 5.31131 31.9458 5.31402 31.72 5.53974C31.3209 5.93872 31.435 6.58132 31.9524 6.8487C32.2235 6.98891 33.3482 7.01439 39.2512 7.01439C46.7537 7.01439 46.5284 6.99752 47.0908 7.59979C47.6002 8.14521 47.691 8.58701 47.691 10.5216V12.3372H46.6714H45.6518V11.0858C45.6518 10.1887 45.6031 9.74037 45.48 9.5022C45.1076 8.78226 46.1848 8.82643 28.9988 8.82643C11.8127 8.82643 12.8899 8.78226 12.5176 9.5022C12.3944 9.74037 12.3457 10.1887 12.3457 11.0858V12.3372H11.3227H10.2999L10.3315 7.23082L10.3632 2.12439L10.6307 1.90797C10.8847 1.70242 11.1399 1.69166 15.7285 1.69404C21.888 1.69721 21.5893 1.59403 22.3771 3.99079C22.8869 5.542 23.1908 6.09173 23.7521 6.4786C24.3611 6.8982 24.9799 7.0085 26.7445 7.01167C28.4485 7.01473 28.9049 6.91416 29.0964 6.49377C29.2759 6.09999 29.2593 5.9556 28.9964 5.62139C28.7689 5.33237 28.7549 5.33022 26.8555 5.29477C25.1796 5.2634 24.9148 5.23294 24.7105 5.04777C24.5781 4.92783 24.2745 4.22805 24.0078 3.42781C23.5018 1.91001 23.139 1.31985 22.3349 0.706704C21.425 0.0129213 21.2261 -0.00814352 15.6954 0.00136966C12.1565 0.00748527 10.5956 0.0489355 10.3336 0.143954ZM43.9525 11.4312V12.3372H28.9988H14.045V11.4312V10.5252H28.9988H43.9525V11.4312ZM31.5391 19.344C30.934 19.6226 30.6981 20.1162 30.6981 21.1031V21.8504L25.6851 21.8568C22.1111 21.8614 20.5595 21.9019 20.2797 21.9983C20.0554 22.0756 19.7761 22.2984 19.6283 22.5184C19.3896 22.8733 19.3694 23.0256 19.3694 24.4776C19.3694 25.6634 19.4118 26.1339 19.5413 26.3842C19.9044 27.0862 19.5378 27.06 28.9988 27.06C38.4597 27.06 38.0931 27.0862 38.4562 26.3842C38.6717 25.9677 38.676 25.4412 38.4673 25.0441C38.2498 24.6304 32.8163 19.2461 32.6143 19.244C32.5262 19.2432 32.352 19.2175 32.2274 19.187C32.1028 19.1564 31.7931 19.227 31.5391 19.344ZM34.4931 23.3227L36.5299 25.3612H28.7994H21.0687V24.4552V23.5492H26.4019H31.7351L32.0662 23.2182C32.3698 22.9146 32.3973 22.8204 32.3973 22.0856C32.3973 21.6449 32.4106 21.2842 32.4268 21.2842C32.4431 21.2842 33.3729 22.2015 34.4931 23.3227ZM20.0223 29.1625C19.4299 29.4838 19.1947 30.3662 19.5319 31.0012C19.6212 31.1694 20.9088 32.5174 22.3933 33.9967C25.178 36.7719 25.4825 37.0017 26.157 36.8358C26.9529 36.6401 27.2995 36.0658 27.2995 34.9422V34.1949L32.3124 34.1886C35.8864 34.1839 37.438 34.1434 37.7178 34.047C37.9421 33.9697 38.2214 33.7469 38.3692 33.5269C38.6079 33.172 38.6281 33.0197 38.6281 31.5677C38.6281 29.8159 38.5267 29.4542 37.9521 29.1571C37.4568 28.901 20.4948 28.9062 20.0223 29.1625ZM36.9288 31.5901V32.4961H31.6107H26.2926L25.9747 32.7692C25.691 33.0128 25.6507 33.135 25.6002 33.9038L25.5435 34.7656L23.5055 32.7249L21.4676 30.6841H29.1982H36.9288V31.5901ZM29.9051 43.9346V45.7466H28.9988H28.0925V43.9346V42.1225H28.9988H29.9051V43.9346ZM31.5412 47.6971C31.6702 47.8811 31.7176 48.232 31.7176 49.0011C31.7176 50.0414 31.7222 50.0585 32.1052 50.4766L32.4927 50.8996L33.692 50.9382C35.303 50.9902 35.2295 50.8621 35.2295 53.6176C35.2295 55.3875 35.1978 55.8209 35.0531 56.0273L34.8768 56.279H28.9988H23.1207L22.9444 56.0273C22.7998 55.8209 22.768 55.3875 22.768 53.6176C22.768 50.8621 22.6945 50.9902 24.3056 50.9382L25.5048 50.8996L25.8923 50.4766C26.2754 50.0585 26.2799 50.0414 26.2799 49.0011C26.2799 47.3662 26.1417 47.4454 28.9988 47.4454C31.3155 47.4454 31.3686 47.4506 31.5412 47.6971ZM56.0489 52.8313C56.2547 52.9754 56.3007 53.1161 56.3007 53.6014C56.3007 53.9281 56.2395 54.2564 56.1648 54.3311C56.0612 54.4346 53.7555 54.467 46.4788 54.467H36.9288V53.561V52.655H46.3629C54.7183 52.655 55.8259 52.6751 56.0489 52.8313Z" fill="#C11B17"/>
</svg>
