<svg width="58" height="55" viewBox="0 0 58 55" fill="none" xmlns="http://www.w3.org/2000/svg">
<path fill-rule="evenodd" clip-rule="evenodd" d="M22.9897 0.125181C20.7202 0.323964 17.9647 0.991331 15.8007 1.86636C5.89781 5.87079 -0.407422 15.5641 0.0204989 26.1261C0.0606271 27.115 0.1249 28.1364 0.163441 28.396C0.227828 28.8302 0.257187 28.864 0.530943 28.8186C0.69463 28.7915 6.49066 28.2103 13.4111 27.5272C20.3315 26.844 26.1084 26.261 26.2487 26.2316L26.5038 26.178V13.089V0L25.2852 0.015507C24.615 0.0239348 23.582 0.0733778 22.9897 0.125181ZM24.1233 13.2528V24.0334L23.6415 24.099C23.0002 24.1862 2.76633 26.1823 2.52307 26.1823C2.35088 26.1823 2.34057 26.0339 2.41096 24.581C2.70557 18.5088 4.80562 13.5424 8.83635 9.38618C12.1846 5.9336 16.2545 3.72811 20.9493 2.82218C22.2768 2.56609 22.6637 2.51631 23.5281 2.49013L24.1233 2.47215V13.2528ZM31.4914 17.0358V29.2719L22.6793 38.0079L13.8673 46.7438L14.8294 47.7087C17.3764 50.2629 20.3866 52.2089 23.7445 53.4723C25.0238 53.9536 27.4401 54.564 28.9976 54.7993C30.7818 55.0689 34.3453 55.0665 36.135 54.7946C45.0649 53.4378 52.4793 47.8133 55.9704 39.7476C59.2103 32.263 58.5406 23.617 54.1812 16.6496C51.4416 12.2707 47.1887 8.69049 42.4164 6.74536C39.4522 5.53727 36.7599 4.96901 33.5035 4.8644L31.4914 4.79967V17.0358ZM34.9488 7.30654C42.0313 8.09111 48.2661 11.9979 52.0405 18.0166C53.643 20.5719 54.7444 23.5932 55.2426 26.8003C55.4971 28.4389 55.4981 31.5372 55.2446 33.1864C54.2075 39.9348 50.2836 45.7915 44.4141 49.3516C41.8654 50.8975 38.8453 51.9677 35.7643 52.4167C33.2799 52.7788 29.6733 52.6085 27.2406 52.0144C23.8307 51.1815 20.157 49.3358 17.8887 47.3159L17.2652 46.7606L25.5119 38.5781L33.7586 30.3956V18.7936C33.7586 12.4125 33.7968 7.19215 33.8436 7.1926C33.8904 7.19316 34.3877 7.2444 34.9488 7.30654ZM13.9212 29.8422C6.40848 30.606 0.221707 31.2326 0.17285 31.2349C0.0811446 31.2391 0.110051 31.5689 0.381199 33.6102C1.07358 38.8247 3.68736 44.0227 7.48026 47.728L8.31298 48.5416L18.4567 38.4856L28.6004 28.4297L28.0905 28.4416C27.8101 28.4482 21.4339 29.0784 13.9212 29.8422ZM15.1715 38.2587L8.31752 45.0539L8.04716 44.8043C7.65982 44.4468 6.34341 42.678 5.72698 41.6866C4.93246 40.409 4.02164 38.4151 3.51517 36.8448C3.04519 35.3874 2.6099 33.5371 2.71283 33.435C2.75488 33.3934 20.1367 31.6158 21.8558 31.4774C21.9491 31.4699 18.9412 34.5215 15.1715 38.2587Z" fill="#C11B17"/>
</svg>
