<svg width="55" height="57" viewBox="0 0 55 57" fill="none" xmlns="http://www.w3.org/2000/svg">
<path fill-rule="evenodd" clip-rule="evenodd" d="M3.4375 0.187385C1.83585 0.617678 0.59502 1.88072 0.172097 3.51138C0.0199597 4.09809 0 6.29831 0 22.5094C0 40.4552 0.00465724 40.8588 0.219113 41.556C0.725423 43.2017 2.0309 44.4235 3.65683 44.7737L4.21371 44.8936V49.8924V54.8913L4.52164 55.2374C4.96442 55.7348 5.39155 55.7133 6.60909 55.1325L7.6012 54.6591L8.91122 55.2223C9.63176 55.5321 10.2975 55.7855 10.3908 55.7855C10.484 55.7855 11.1368 55.5329 11.8416 55.2241L13.1229 54.6628L14.4256 55.2241C15.1421 55.5329 15.8176 55.7855 15.9268 55.7855C16.036 55.7855 16.6554 55.534 17.303 55.2266L18.4808 54.6677L19.6659 55.1788C20.7629 55.652 20.8804 55.6803 21.2456 55.5592C21.4835 55.4804 21.7247 55.2894 21.853 55.0782C22.0542 54.7468 22.0658 54.4623 22.0661 49.8197L22.0665 44.9116L22.7485 44.7212C23.6548 44.4683 24.2515 44.1029 24.9236 43.3893C25.942 42.3081 26.1684 41.6138 26.2665 39.2696L26.3357 37.6163L26.8238 38.4903C27.0923 38.9709 27.3861 39.4511 27.4769 39.5573C27.6233 39.7284 27.6202 39.8603 27.449 40.7259C27.0833 42.5744 27.2656 43.4226 28.2178 44.3037C29.0667 45.0894 30.3854 45.2888 31.3573 44.7782L31.7217 44.587L32.2028 45.0498C32.9871 45.8044 34.1391 46.0686 35.1236 45.7199L35.5674 45.5627L35.8715 46.36C36.8247 48.8592 38.4181 51.1953 40.5631 53.2393C41.4808 54.1137 41.7626 54.4694 42.3052 55.4377C42.6611 56.0729 43.0529 56.6867 43.1756 56.8015C43.4664 57.0735 43.8108 57.0659 44.1735 56.7793C44.6378 56.4127 44.5609 56.0312 43.7284 54.5725C43.0766 53.4302 42.8227 53.1129 41.5359 51.8332C39.8397 50.1464 38.9363 48.9139 38.0271 47.046C36.7304 44.3825 36.4289 42.9798 36.2081 38.5849C35.9625 33.6941 35.962 33.6903 35.6938 33.1603C35.5613 32.8986 34.8311 31.5928 34.0711 30.2586C32.6065 27.6872 32.4442 27.2437 32.7509 26.6483C33.0592 26.0499 33.5487 25.7263 34.1454 25.7263C34.9934 25.7263 35.2828 26.0052 36.3306 27.8327C36.8368 28.7158 37.3151 29.4791 37.3931 29.5289C37.8841 29.8417 38.6996 29.4327 38.6996 28.8737C38.6996 28.5254 37.0077 25.5634 36.4967 25.0171C35.5316 23.9853 33.9978 23.7437 32.6987 24.4189C31.0955 25.2522 30.5083 27.1098 31.331 28.7448C31.497 29.0746 32.2348 30.3966 32.9704 31.6824L34.3078 34.0204L34.3885 35.579C34.4655 37.0655 34.4587 37.1459 34.2433 37.3145C34.1191 37.4118 33.2856 37.9003 32.3913 38.4C31.0325 39.1592 30.6837 39.3085 30.2692 39.3081C29.6865 39.3077 29.1939 39.0395 28.8047 38.5109C28.6543 38.3067 27.073 35.5718 25.2905 32.4334C23.5081 29.2948 21.957 26.6772 21.8436 26.6163C21.5266 26.4459 21.2374 26.4834 20.9172 26.7364C20.4683 27.0907 20.5361 27.4751 21.2746 28.7659C22.2517 30.4736 22.2375 30.4422 21.9713 30.2993C21.8448 30.2312 21.1199 30.1795 20.2941 30.1795C18.6702 30.1795 18.3761 30.2663 17.9447 30.8736C17.7087 31.2059 17.6865 31.3522 17.6865 32.578C17.6865 34.0707 17.782 34.3455 18.441 34.7489C18.746 34.9356 19.0037 34.9659 20.2923 34.9659C21.581 34.9659 21.8387 34.9356 22.1437 34.7489C22.7423 34.3825 22.8715 34.0689 22.9305 32.8402L22.9837 31.7292L23.8107 33.1863L24.6376 34.6433L24.5974 37.7273C24.5593 40.6562 24.5445 40.8396 24.3042 41.3682C24.0015 42.034 23.5025 42.5807 22.8982 42.9088C22.4551 43.1492 22.4448 43.1495 13.311 43.1799C3.2857 43.2132 3.64963 43.2349 2.78848 42.5502C2.55983 42.3683 2.22561 41.9529 2.04576 41.6269L1.71875 41.0342L1.6897 22.6814C1.67029 10.4034 1.69835 4.18827 1.77442 3.90471C1.96614 3.18974 2.54575 2.45508 3.21573 2.07789L3.8256 1.73454L12.8535 1.70415C22.9764 1.67008 22.617 1.64492 23.53 2.45185C23.8246 2.71225 24.1403 3.13809 24.2953 3.48377C24.5545 4.06258 24.5589 4.1306 24.5602 7.51838L24.5615 10.9643L23.7576 11.4404L22.9536 11.9166L22.951 9.88716C22.9479 7.52651 22.8727 7.08319 22.4033 6.66092L22.063 6.35476H13.1884C3.44814 6.35476 3.85122 6.32715 3.49483 7.01907C3.36187 7.27713 3.32661 7.78647 3.32661 9.44707C3.32661 11.4997 3.3326 11.5541 3.58321 11.7906C3.94636 12.133 4.46942 12.1103 4.76005 11.7393C4.96996 11.4714 4.98992 11.2973 4.98992 9.73531V8.02471H13.0868H21.1836L21.1538 10.4881L21.124 12.9516L19.1571 14.0833C17.0157 15.3153 16.542 15.6964 16.101 16.5415C15.86 17.0035 15.8098 17.2496 15.8061 17.9888C15.8035 18.4786 15.8422 18.9921 15.892 19.1299L15.9827 19.3804H10.4863H4.98992V16.9435C4.98992 14.7284 4.97107 14.4831 4.78245 14.2493C4.49414 13.8918 3.82239 13.8918 3.53408 14.2493C3.34391 14.4851 3.32661 14.735 3.32706 17.2497C3.32739 19.8046 3.3428 20.018 3.55127 20.3612C3.97375 21.0571 3.9009 21.05 10.7248 21.0533L16.9103 21.0562L17.8528 22.7429C19.0236 24.8379 19.1978 25.0583 19.6842 25.0583C20.0886 25.0583 20.5141 24.6495 20.5141 24.2609C20.5141 24.145 19.9222 23.012 19.1988 21.7431C17.5081 18.7778 17.4093 18.5767 17.4093 18.101C17.4093 17.5968 17.6383 17.0534 17.9771 16.7531C18.3635 16.411 31.8248 8.73378 32.1891 8.64794C32.5793 8.55587 33.2619 8.73667 33.6341 9.0307C33.7976 9.15973 36.3744 13.5692 39.6503 19.3259L45.3807 29.3951L45.3314 29.9923C45.2564 30.9008 45.0077 31.1543 43.1361 32.2312C42.224 32.756 41.4375 33.1854 41.3884 33.1854C41.3391 33.1854 41.0554 32.7623 40.7578 32.2452C40.1651 31.2155 39.8481 30.9758 39.3366 31.1711C39.0147 31.294 38.8105 31.5995 38.8105 31.958C38.8105 32.087 39.3664 33.1642 40.0457 34.3518C41.366 36.66 41.5655 36.876 42.1654 36.647C42.7114 36.4386 42.8465 35.8161 42.4698 35.245C42.3486 35.0613 42.2491 34.8536 42.2488 34.7833C42.2483 34.7131 42.9839 34.2378 43.8836 33.727C44.7832 33.2163 45.6969 32.6378 45.9141 32.4413C46.5563 31.8605 46.9328 31.0477 46.9925 30.1138C47.0564 29.1159 46.9279 28.7204 46.0385 27.1758C45.6691 26.5341 45.384 25.9919 45.4048 25.9708C45.4572 25.9183 48.839 28.7785 49.458 29.3988C51.5409 31.4863 52.7746 34.4316 52.7864 37.3447C52.7886 37.9044 52.5794 40.4722 52.3216 43.0511L51.8528 47.7398L52.7121 49.2573C53.5638 50.7615 53.7692 50.9983 54.2216 50.9983C54.5304 50.9983 55 50.5173 55 50.2011C55 50.0632 54.676 49.3667 54.2799 48.6533L53.5598 47.3562L54.0114 42.9706C54.3914 39.281 54.4548 38.3288 54.4102 36.9706C54.3319 34.5847 53.7867 32.7335 52.5577 30.6805C51.6092 29.096 50.7968 28.2822 46.7231 24.8356L42.8411 21.5514L39.1413 15.0385C35.0674 7.86763 34.8684 7.58017 33.6996 7.18205C33.0029 6.9447 32.0681 6.92455 31.4389 7.13318C31.1963 7.21356 30.0037 7.85237 28.7886 8.55264C27.5735 9.25291 26.5121 9.85187 26.4298 9.88349C26.3071 9.9308 26.2796 9.49383 26.2768 7.45214C26.2749 6.08322 26.226 4.59652 26.168 4.14852C25.916 2.19968 24.5767 0.669892 22.6764 0.160221C21.8197 -0.0695652 4.30198 -0.0448499 3.4375 0.187385ZM28.7448 13.9391C26.7202 14.2374 24.9188 15.5571 24.0078 17.4093C23.4813 18.4801 23.4187 18.9023 23.7278 19.2969C23.9022 19.5195 24.0668 19.6031 24.3306 19.6031C24.7736 19.6031 24.971 19.3972 25.2768 18.6162C25.7582 17.3873 26.5698 16.5256 27.7617 15.9776C28.5878 15.598 29.4506 15.4879 30.5236 15.6255C31.3528 15.7317 31.4022 15.7253 31.6629 15.4794C32.2848 14.8929 31.8428 14.1144 30.8169 13.9891C29.6189 13.843 29.429 13.8384 28.7448 13.9391ZM29.0687 17.2753C28.0364 17.4753 27.1085 18.3079 26.8125 19.2996C26.7047 19.6606 26.7105 19.7919 26.8445 20.0316C27.2039 20.6744 28.0409 20.5973 28.3333 19.8944C28.4195 19.6876 28.6452 19.3871 28.8351 19.2268C29.1269 18.9802 29.2875 18.9351 29.8732 18.9351C30.4606 18.9351 30.6042 18.8946 30.8152 18.6689C31.1465 18.3149 31.0993 17.7517 30.7157 17.4819C30.3684 17.2376 29.6971 17.1534 29.0687 17.2753ZM29.6442 20.4355C29.3108 20.67 29.2353 21.0957 29.4512 21.5245C29.741 22.1003 30.0584 22.3863 30.4075 22.3863C30.7882 22.3863 31.2702 21.9457 31.2702 21.5973C31.2702 21.3285 30.8869 20.6263 30.622 20.4102C30.3922 20.2226 29.9299 20.2345 29.6442 20.4355ZM4.11136 24.0322C3.48474 24.376 3.32661 24.8146 3.32661 26.2086C3.32661 27.5974 3.47232 28.0414 4.0445 28.3964C4.3613 28.593 4.59583 28.6208 5.93246 28.6208C7.26909 28.6208 7.50362 28.593 7.82042 28.3964C8.38983 28.043 8.53831 27.5956 8.53831 26.2327C8.53831 24.9564 8.44971 24.6554 7.93042 24.1676C7.64722 23.9017 7.56405 23.8879 6.06242 23.8567C4.69729 23.8284 4.44103 23.8514 4.11136 24.0322ZM11.2328 24.0518C10.648 24.4097 10.5343 24.768 10.5347 26.2495C10.5351 27.356 10.5692 27.6194 10.7516 27.9196C11.1357 28.5523 11.4632 28.6414 13.2524 28.601C14.7695 28.5668 14.8553 28.5525 15.1417 28.2869C15.6178 27.8454 15.746 27.403 15.7457 26.203C15.7456 24.945 15.5806 24.4885 14.9811 24.0864C14.6354 23.8545 14.4799 23.8336 13.096 23.8341C11.7957 23.8344 11.5388 23.8645 11.2328 24.0518ZM6.875 26.2272V26.9509H5.93246H4.98992V26.2272V25.5036H5.93246H6.875V26.2272ZM14.0827 26.2272V26.9509H13.1401H12.1976V26.2272V25.5036H13.1401H14.0827V26.2272ZM4.1097 30.3829C3.48574 30.7189 3.32661 31.1602 3.32661 32.5545C3.32661 33.9432 3.47232 34.3872 4.0445 34.7422C4.3613 34.9389 4.59583 34.9667 5.93246 34.9667C7.26909 34.9667 7.50362 34.9389 7.82042 34.7422C8.42709 34.3658 8.56204 33.9189 8.51968 32.4257C8.46257 30.4084 8.197 30.1795 5.91394 30.1795C4.74419 30.1795 4.41952 30.2161 4.1097 30.3829ZM11.2328 30.3932C10.647 30.7589 10.5343 31.115 10.5347 32.5953C10.5351 33.7019 10.5692 33.9653 10.7516 34.2654C11.1357 34.8981 11.4632 34.9873 13.2524 34.9469C14.7695 34.9127 14.8553 34.8983 15.1417 34.6327C15.615 34.1938 15.746 33.7474 15.746 32.5731C15.746 31.3988 15.615 30.9523 15.1417 30.5135C14.854 30.2466 14.7749 30.2338 13.2146 30.2033C11.7502 30.1747 11.5522 30.1936 11.2328 30.3932ZM6.875 32.5731V33.2967H5.93246H4.98992V32.5731V31.8494H5.93246H6.875V32.5731ZM14.0827 32.5731V33.2967H13.1401H12.1976V32.5731V31.8494H13.1401H14.0827V32.5731ZM21.1794 32.5731V33.2967H20.2369H19.2944V32.5731V31.8494H20.2369H21.1794V32.5731ZM4.04738 36.7466C3.465 37.1314 3.32661 37.5449 3.32661 38.9003C3.32661 40.2891 3.47232 40.733 4.0445 41.0881C4.36008 41.2839 4.59594 41.3125 5.89187 41.3125C8.22394 41.3125 8.53831 41.0282 8.53831 38.9189C8.53831 36.8063 8.22549 36.5249 5.87879 36.5261C4.57354 36.5266 4.33713 36.5551 4.04738 36.7466ZM11.2328 36.7391C10.647 37.1048 10.5343 37.4608 10.5347 38.9412C10.5351 40.0477 10.5692 40.3111 10.7516 40.6112C11.1357 41.2439 11.4632 41.3331 13.2524 41.2927C14.7695 41.2585 14.8553 41.2442 15.1417 40.9785C15.615 40.5397 15.746 40.0932 15.746 38.9189C15.746 37.7446 15.615 37.2982 15.1417 36.8593C14.854 36.5924 14.7749 36.5796 13.2146 36.5491C11.7502 36.5205 11.5522 36.5394 11.2328 36.7391ZM18.441 36.7431C17.7815 37.1468 17.6865 37.4208 17.6865 38.9189C17.6865 40.417 17.7815 40.6911 18.441 41.0948C18.7452 41.281 19.0039 41.3117 20.2702 41.3121C21.9163 41.3125 22.2074 41.2273 22.6399 40.6184C22.8759 40.2863 22.8982 40.1394 22.8982 38.9189C22.8982 37.6984 22.8759 37.5515 22.6399 37.2195C22.2074 36.6105 21.9163 36.5253 20.2702 36.5258C19.0039 36.5261 18.7452 36.5568 18.441 36.7431ZM6.875 38.9189V39.6426H5.93246H4.98992V38.9189V38.1953H5.93246H6.875V38.9189ZM14.0827 38.9189V39.6426H13.1401H12.1976V38.9189V38.1953H13.1401H14.0827V38.9189ZM21.1794 38.9189V39.6426H20.2369H19.2944V38.9189V38.1953H20.2369H21.1794V38.9189ZM34.631 40.5054C34.6685 41.2248 34.783 42.2607 34.8854 42.8072L35.0717 43.801L34.822 44.004C34.2762 44.4478 33.284 44.101 33.0483 43.3843C32.939 43.0515 32.9644 42.7575 33.2102 41.5109C33.3706 40.6976 33.5282 39.941 33.5602 39.8297C33.619 39.6259 34.2148 39.1985 34.4412 39.1977C34.5188 39.1973 34.5876 39.6713 34.631 40.5054ZM31.4878 41.6926C31.2461 42.8035 31.1187 43.0349 30.6176 43.2736C30.3074 43.4214 30.1653 43.4309 29.8186 43.3266C29.0426 43.0931 28.811 42.5093 29.0117 41.291L29.0794 40.88L29.9808 40.9401C30.4976 40.9746 31.0003 40.9511 31.1593 40.8851C31.6886 40.6652 31.7035 40.7019 31.4878 41.6926ZM20.4032 49.2741V53.6732L19.9874 53.4901C19.7587 53.3893 19.3144 53.208 19.0002 53.0872L18.4288 52.8674L17.1471 53.4502L15.8655 54.033L14.5312 53.4542C13.5973 53.0492 13.1218 52.8979 12.9467 52.9502C12.8091 52.9913 12.1838 53.2523 11.5571 53.5301L10.4177 54.0354L9.22847 53.532C7.54553 52.8197 7.65254 52.8333 6.77786 53.2189C6.35339 53.4059 5.97715 53.5589 5.94155 53.5589C5.90607 53.5589 5.87702 51.605 5.87702 49.217V44.8751H13.1401H20.4032V49.2741Z" fill="#C11B17"/>
</svg>
