<svg width="86" height="86" viewBox="0 0 86 86" fill="none" xmlns="http://www.w3.org/2000/svg">
<path fill-rule="evenodd" clip-rule="evenodd" d="M56.416 5.37657V10.7533L54.3604 10.8285C52.6377 10.8916 52.1688 10.9689 51.4657 11.3051C47.9535 12.9847 47.2776 17.6537 50.1768 20.2066C51.3192 21.2127 52.3932 21.5375 54.5765 21.5375H56.416V25.5664V29.5953H61.7858H67.1556V31.4355C67.1556 33.8086 67.507 34.8371 68.7389 36.0693C71.3812 38.7126 75.7623 37.9414 77.3841 34.5475C77.7203 33.8442 77.7974 33.3751 77.8605 31.6518L77.9357 29.5953H81.9679H86L85.8958 26.5317C85.7778 23.0651 85.4664 21.2155 84.528 18.4101C81.4578 9.2314 73.7807 2.48164 64.21 0.546085C63.1085 0.32332 61.4995 0.173075 59.4785 0.104248L56.416 0V5.37657ZM34.685 10.9088C25.6077 11.7013 17.3774 15.4923 11.0242 21.8076C5.06945 27.7268 1.22096 35.6305 0.20506 44.0279C0.110417 44.8102 0.0328901 45.509 0.0328901 45.5807C0.0328901 45.6524 2.44931 45.711 5.40271 45.711H10.7725V45.0571C10.7725 44.2315 11.3174 42.4682 11.8342 41.6216C12.9961 39.718 15.2642 38.1957 17.5014 37.8182C20.8596 37.2516 24.3776 39.0691 25.9297 42.1726C26.2579 42.8293 26.5731 43.724 26.6296 44.161C26.6862 44.598 26.7675 45.1254 26.8105 45.3332L26.8884 45.711H32.255H37.6216V39.0129V32.315L35.4821 32.2504C33.5669 32.1925 33.2546 32.1394 32.5035 31.7444C31.3863 31.1567 30.521 30.2289 29.975 29.0326C29.577 28.1607 29.5347 27.8961 29.5984 26.6804C29.683 25.0682 30.2292 23.8731 31.3007 22.9557C32.5334 21.9001 33.2867 21.6557 35.566 21.5723L37.6216 21.4971V16.1453V10.7938L36.4889 10.822C35.8659 10.8376 35.0542 10.8765 34.685 10.9088ZM18.0721 43.1455C17.5486 43.2728 16.6711 43.9998 16.3939 44.5362C16.1976 44.9159 16.1423 45.6888 16.1423 48.0528V51.0828H8.07117H0L0.112095 52.132C1.78849 67.81 12.6228 80.6212 27.7011 84.7552C29.4815 85.2434 33.6825 85.9961 34.6431 85.9992C34.9186 86 34.9367 85.5048 34.9367 77.9422V69.8844H37.9656C41.2744 69.8844 41.5911 69.8132 42.3632 68.8951C43.5667 67.4644 42.7626 65.2199 40.8564 64.6905C40.5079 64.5936 39.0342 64.514 37.5815 64.5135L34.9406 64.5125L34.8966 57.8396L34.8528 51.1668L28.1825 51.123L21.5122 51.079L21.5112 48.437C21.5107 46.9838 21.4283 45.4927 21.3281 45.1234C20.9394 43.6903 19.4795 42.8034 18.0721 43.1455ZM40.3065 55.1085V59.1343L40.6841 59.2122C40.8918 59.2551 41.4191 59.3365 41.8559 59.3931C43.0235 59.5445 44.8974 60.5509 45.9244 61.5785C47.6907 63.3453 48.5932 66.0551 48.2109 68.4437C47.8485 70.7083 46.3125 73.0226 44.3943 74.1941C43.5481 74.7112 41.7854 75.2563 40.9601 75.2563H40.3065V80.6281C40.3065 83.5827 40.3651 86 40.4368 86C40.5084 86 41.207 85.9225 41.989 85.8278C44.4693 85.5275 46.8587 84.9856 49.452 84.1351C62.817 79.7522 72.731 67.9238 74.7815 53.9151C74.9251 52.9338 75.0426 51.8952 75.0426 51.6069V51.0828H68.4315H61.8204L61.7612 53.1392C61.7081 54.9811 61.6533 55.2947 61.2354 56.146C60.7231 57.1898 59.8413 58.0789 58.7309 58.6713C58.1251 58.9944 57.7559 59.0557 56.416 59.0557C55.0761 59.0557 54.7069 58.9944 54.1011 58.6713C52.9907 58.0789 52.1089 57.1898 51.5966 56.146C51.1787 55.2947 51.1239 54.9811 51.0708 53.1392L51.0116 51.0828H45.6591H40.3065V55.1085Z" fill="white"/>
</svg>
